<svg xmlns="http://www.w3.org/2000/svg" viewBox="0 0 64 64"><title>Affiliate</title><g id="Affiliate"><path d="M58.59,43.55a28.86,28.86,0,0,0,0-23.08C68.26,14.76,64.09,0,53,0a11,11,0,0,0-9.45,5.41,28.87,28.87,0,0,0-23.1,0A11,11,0,0,0,11,0C-.1,0-4.24,14.77,5.4,20.47a28.86,28.86,0,0,0,0,23.08,11,11,0,1,0,15,15,28.87,28.87,0,0,0,23.1,0C49.22,68.15,64,64.16,64,53A11,11,0,0,0,58.59,43.55ZM47.7,18.25l.27-.81a5.31,5.31,0,0,1,10.06,0l.27.8A8.92,8.92,0,0,1,47.7,18.25Zm2.66-9.07V8.27a2.64,2.64,0,0,1,5.28,0v.91a2.64,2.64,0,0,1-5.28,0ZM53,2a9,9,0,0,1,6.91,14.76,7.28,7.28,0,0,0-3.74-4.21,5.07,5.07,0,0,0,1.47-4.28,4.64,4.64,0,0,0-9.28,0c0,1.46,0,2.87,1.47,4.28a7.31,7.31,0,0,0-3.74,4.21A9,9,0,0,1,53,2ZM11,2a9,9,0,0,1,6.91,14.75,7.29,7.29,0,0,0-3.74-4.2,5.07,5.07,0,0,0,1.47-4.28,4.64,4.64,0,0,0-9.28,0c0,1.46,0,2.87,1.47,4.28a7.29,7.29,0,0,0-3.74,4.2A9,9,0,0,1,11,2ZM5.69,18.26,6,17.44a5.31,5.31,0,0,1,10.06,0l.28.81A9,9,0,0,1,5.69,18.26ZM8.36,9.18V8.27a2.64,2.64,0,0,1,5.28,0v.91a2.64,2.64,0,0,1-5.28,0Zm0,42v-.91a2.64,2.64,0,0,1,5.28,0v.91a2.64,2.64,0,0,1-5.28,0ZM5.7,60.25,6,59.44a5.31,5.31,0,0,1,10.06,0l.27.8A8.91,8.91,0,0,1,5.7,60.25Zm12.21-1.49a7.28,7.28,0,0,0-3.74-4.21,5.07,5.07,0,0,0,1.47-4.28,4.64,4.64,0,0,0-9.28,0c0,1.46,0,2.87,1.47,4.28a7.31,7.31,0,0,0-3.74,4.21,9,9,0,1,1,13.82,0Zm3.4-2a11,11,0,0,0-14.1-14.1,26.91,26.91,0,0,1,0-21.37A11,11,0,0,0,21.31,7.21a26.93,26.93,0,0,1,21.38,0,11,11,0,0,0,14.1,14.11,26.91,26.91,0,0,1,0,21.37,11,11,0,0,0-14.1,14.1A26.93,26.93,0,0,1,21.31,56.79Zm29.05-5.61v-.91a2.64,2.64,0,0,1,5.28,0v.91a2.64,2.64,0,1,1-5.28,0ZM47.7,60.25l.27-.81a5.31,5.31,0,0,1,10.06,0l.27.8A8.91,8.91,0,0,1,47.7,60.25Zm12.21-1.49a7.28,7.28,0,0,0-3.74-4.21,5.07,5.07,0,0,0,1.47-4.28,4.64,4.64,0,0,0-9.28,0c0,1.46,0,2.87,1.47,4.28a7.31,7.31,0,0,0-3.74,4.21,9,9,0,1,1,13.82,0Z"/><path d="M32,19A13,13,0,1,0,45,32,13,13,0,0,0,32,19Zm0,24A11,11,0,1,1,43,32,11,11,0,0,1,32,43Z"/><path d="M31,29h4a1,1,0,0,0,0-2H33V26a1,1,0,0,0-2,0v1a3,3,0,0,0,0,6h2a1,1,0,0,1,0,2H29a1,1,0,0,0,0,2h2v1a1,1,0,0,0,2,0V37a3,3,0,0,0,0-6H31A1,1,0,0,1,31,29Z"/></g></svg>