<svg xmlns="http://www.w3.org/2000/svg" viewBox="0 0 64 64"><title>Anti Virus</title><g id="Anti_Virus" data-name="Anti Virus"><path d="M59.22,6C30.42-.38,32.12,0,31.78,0l-27,6A1,1,0,0,0,4,7V26.84A39,39,0,0,0,31.72,64a1.06,1.06,0,0,0,.56,0A39,39,0,0,0,60,26.84V7A1,1,0,0,0,59.22,6ZM58,26.84A37,37,0,0,1,32,62,37,37,0,0,1,6,26.84V7.8L32,2,58,7.8Z"/><path d="M10.78,10.84a1,1,0,0,0-.78,1v15A32.83,32.83,0,0,0,31.66,57.63a1,1,0,0,0,.68,0A32.83,32.83,0,0,0,54,26.84v-15a1,1,0,0,0-.78-1c-22.49-5-21.11-4.74-21.44-4.67ZM52,12.62V26.84A30.81,30.81,0,0,1,32,55.62,30.81,30.81,0,0,1,12,26.84V12.62L32,8.17Z"/><path d="M21,35c.89,0,1-1.1,3-2.29a13.18,13.18,0,0,0,.16,2.91A5.75,5.75,0,0,0,21,41a1,1,0,0,0,2,0,3.75,3.75,0,0,1,1.84-3.46,8,8,0,0,0,14.32,0A3.77,3.77,0,0,1,41,41a1,1,0,0,0,2,0,5.75,5.75,0,0,0-3.16-5.38A13.2,13.2,0,0,0,40,32.71C42,33.89,42.1,35,43,35a1,1,0,0,0,.79-1.62A10.47,10.47,0,0,0,40,30.49v-2A4.4,4.4,0,0,0,43,24a1,1,0,0,0-2,0,2.37,2.37,0,0,1-1.3,2.49A4,4,0,0,0,37,24.14a5,5,0,0,0-1.35-3.54C37,17.5,34,17.45,34,19a2.63,2.63,0,0,1-.06.39,5,5,0,0,0-3.88,0A2.63,2.63,0,0,1,30,19c0-1.55-3-1.5-1.65,1.6A5,5,0,0,0,27,24.14a4,4,0,0,0-2.7,2.35A2.35,2.35,0,0,1,23,24.23c0-1.72-2-1.49-2-.23a4.39,4.39,0,0,0,3,4.53v2a10.47,10.47,0,0,0-3.79,2.89A1,1,0,0,0,21,35ZM35,24H29a3,3,0,0,1,6,0Zm-9,4a2,2,0,0,1,2-2h8a2,2,0,0,1,2,2v6a6,6,0,0,1-5,5.91V29a1,1,0,0,0-2,0V39.91A6,6,0,0,1,26,34Z"/></g></svg>