<svg xmlns="http://www.w3.org/2000/svg" viewBox="0 0 64 64"><title>Binocular</title><g id="Binocular"><path d="M13,42a9,9,0,1,0,9,9A9,9,0,0,0,13,42Zm0,16a7,7,0,1,1,7-7A7,7,0,0,1,13,58Z"/><path d="M51,38H37a4,4,0,0,0-3,1.35,6,6,0,0,0-4,0A4,4,0,0,0,27,38H13A13,13,0,1,0,26,51.75l2.1-2.23a6,6,0,0,0,7.88,0L38,51.75A13,13,0,1,0,51,38Zm-6.9,2a13,13,0,0,0-5.93,9l-1-1a6,6,0,0,0-1.39-7.57C36.63,39.82,36.74,40,44.1,40Zm-15.93.39A6,6,0,0,0,26.78,48l-1,1a13,13,0,0,0-5.93-9C27.69,40,27.44,39.87,28.17,40.39ZM13,62A11,11,0,1,1,24,51,11,11,0,0,1,13,62ZM32,49a4,4,0,1,1,4-4A4,4,0,0,1,32,49ZM51,62A11,11,0,1,1,62,51,11,11,0,0,1,51,62Z"/><path d="M51,42a9,9,0,1,0,9,9A9,9,0,0,0,51,42Zm0,16a7,7,0,1,1,7-7A7,7,0,0,1,51,58Z"/><circle cx="32" cy="45" r="2"/><path d="M32,28A11,11,0,1,0,21,17,11,11,0,0,0,32,28ZM32,8a9,9,0,1,1-9,9A9,9,0,0,1,32,8Z"/><path d="M33,20H29a1,1,0,0,0,0,2h2v1a1,1,0,0,0,2,0V22a3,3,0,0,0,0-6H31a1,1,0,0,1,0-2h4a1,1,0,0,0,0-2H33V11a1,1,0,0,0-2,0v1a3,3,0,0,0,0,6h2A1,1,0,0,1,33,20Z"/><path d="M19.28,29a1,1,0,0,0,1.36.37l1.62-.94A15.16,15.16,0,0,0,27,31.14V33a1,1,0,0,0,1,1h8a1,1,0,0,0,1-1V31.14a15.16,15.16,0,0,0,4.74-2.75l1.62.94A1,1,0,0,0,44.72,29l4-6.92a1,1,0,0,0-.36-1.37l-1.62-.93a14.43,14.43,0,0,0,0-5.48l1.62-.93A1,1,0,0,0,48.72,12L44.72,5a1,1,0,0,0-1.36-.37l-1.62.94A15.16,15.16,0,0,0,37,2.86V1a1,1,0,0,0-1-1H28a1,1,0,0,0-1,1V2.86a15.16,15.16,0,0,0-4.74,2.75l-1.62-.94A1,1,0,0,0,19.28,5c-4.92,8.52-5.23,7.37-2,9.22a14.43,14.43,0,0,0,0,5.48C14.15,21.53,14.28,20.31,19.28,29ZM19.36,20a12.76,12.76,0,0,1,0-6c.21-.87-.47-1.1-1.85-1.89l3-5.2,1.38.8c1.36.78,1.65-1.74,6.4-3.15.85-.26.71-1,.71-2.55h6V3.59c0,1.56,2.29.54,5.92,4,.65.62,1.19.14,2.57-.66l3,5.2c-3,1.74-1.49.66-1.49,4.9s-1.53,3.16,1.49,4.9l-3,5.2-1.38-.8a1,1,0,0,0-1.19.14c-3.62,3.42-5.92,2.41-5.92,4V32H29c0-1.5.17-2.28-.71-2.55-4.78-1.42-5-3.94-6.4-3.15l-1.38.8-3-5.2C18.89,21.1,19.57,20.88,19.36,20Z"/></g></svg>