<svg xmlns="http://www.w3.org/2000/svg" viewBox="0 0 64 64"><title>Budget</title><g id="Budget"><path d="M63,0H1A1,1,0,0,0,0,1V52a1,1,0,0,0,1,1H8.15A12.9,12.9,0,0,0,20.88,64H43.12A12.9,12.9,0,0,0,55.85,53H63a1,1,0,0,0,1-1V1A1,1,0,0,0,63,0ZM2,2H62V8H2ZM43.12,62H20.88a10.89,10.89,0,0,1-7.47-18.79L27.4,30h9.2l14,13.21A10.89,10.89,0,0,1,43.12,62ZM36.26,24H27.74l-2.4-8H38.66ZM27,26H37a1,1,0,0,1,0,2H27A1,1,0,0,1,27,26ZM56,51a12.87,12.87,0,0,0-4-9.24L38.83,29.36a3,3,0,0,0-.57-5.07c2.94-9.83,3-9.34,2.54-9.89S41.31,14,24,14a1,1,0,0,0-1,1.29l2.7,9a3,3,0,0,0-.57,5.07L12,41.76A12.87,12.87,0,0,0,8,51H2V10H62V51Z"/><path d="M6,4A1,1,0,0,0,6,6,1,1,0,0,0,6,4Z"/><path d="M11,4a1,1,0,0,0,0,2A1,1,0,0,0,11,4Z"/><path d="M16,4a1,1,0,0,0,0,2A1,1,0,0,0,16,4Z"/><path d="M31.5,45H34a1,1,0,0,0,0-2H33V42a1,1,0,0,0-2,0v1a2.5,2.5,0,0,0,.5,5h1a.5.5,0,0,1,0,1H30a1,1,0,0,0,0,2h1v1a1,1,0,0,0,2,0V51a2.5,2.5,0,0,0-.5-5h-1A.5.5,0,0,1,31.5,45Z"/><path d="M43.49,43.49c.15-.53.08-.46-2.1-4.22A1,1,0,0,0,40,38.9l-1.28.74A9.7,9.7,0,0,0,35,37.47V36a1,1,0,0,0-1-1H30a1,1,0,0,0-1,1v1.47a9.77,9.77,0,0,0-3.75,2.17L24,38.9a1,1,0,0,0-1.36.37c-2.69,4.65-2.88,4.11-.37,5.56a10.08,10.08,0,0,0,0,4.34c-2.49,1.44-2.32.9.37,5.56A1,1,0,0,0,24,55.1l1.28-.74A9.7,9.7,0,0,0,29,56.53V58a1,1,0,0,0,1,1h4a1,1,0,0,0,1-1V56.53a9.77,9.77,0,0,0,3.75-2.17c2.5,1.44,2,1.58,4.64-3.09A1,1,0,0,0,43,49.9c-1.94-1.12-1-.09-1-2.9s-.92-1.78,1-2.9A1,1,0,0,0,43.49,43.49Zm-3.84,1.15a8.08,8.08,0,0,1,0,4.72c-.29.91.53,1.21,1.51,1.77l-1,1.74-1.07-.62c-1.37-.79-1.48,1.67-5.31,2.54a1,1,0,0,0-.78,1V57H31V55.77c0-1.58-2.18-.45-4.86-3.34-.66-.71-1.37-.1-2.3.44l-1-1.74,1.06-.61c1-.6.1-1.3.1-3.52s.95-2.92-.1-3.52l-1.06-.61,1-1.74c1,.56,1.65,1.14,2.3.44C28.78,38.73,31,39.78,31,38.23V37h2c0,1.12-.16,2,.78,2.21,3.78.86,3.95,3.32,5.31,2.54l1.07-.62,1,1.74C40.2,43.42,39.36,43.72,39.65,44.64Z"/></g></svg>