<svg xmlns="http://www.w3.org/2000/svg" viewBox="0 0 64 64"><title>Cloud Data</title><g id="Cloud_Data" data-name="Cloud Data"><path d="M61,54H60V18a4,4,0,0,0-4-4c-10.35,0-6.08.24-8.91-.85A6,6,0,0,0,41,7.77,10.88,10.88,0,0,0,19.75,9.94,8,8,0,0,0,13.69,14H8a4,4,0,0,0-4,4V54H3a3,3,0,0,0-3,3v2a5,5,0,0,0,5,5H59a5,5,0,0,0,5-5V57A3,3,0,0,0,61,54ZM54,20V50H10V20h2.92a8.08,8.08,0,0,0,7.79,6H26v9H16a1,1,0,0,0-1,1v5.18a3,3,0,1,0,2,0V37H27a1,1,0,0,0,1-1V26h3V41.18a3,3,0,1,0,2,0V26h3V36a1,1,0,0,0,1,1H47v4.18a3,3,0,1,0,2,0V36a1,1,0,0,0-1-1H38V26h6.71a6.66,6.66,0,0,0,6.61-6ZM16,43a1,1,0,0,1,0,2A1,1,0,0,1,16,43Zm16,0a1,1,0,0,1,0,2A1,1,0,0,1,32,43Zm16,0a1,1,0,0,1,0,2A1,1,0,0,1,48,43ZM20.71,11.88a1,1,0,0,0,1-1A8.88,8.88,0,0,1,39.28,9.06a1,1,0,0,0,1.17.78,3.93,3.93,0,0,1,4.66,3.91,1,1,0,0,0,.75,1.11C51.13,16.21,50.13,24,44.71,24h-24a6.06,6.06,0,0,1,0-12.12ZM6,18a2,2,0,0,1,2-2h4.89a8.21,8.21,0,0,0-.24,2H9a1,1,0,0,0-1,1V51a1,1,0,0,0,1,1H55a1,1,0,0,0,1-1V19a1,1,0,0,0-1-1H51.2a6.67,6.67,0,0,0-.78-2H56a2,2,0,0,1,2,2V54H6ZM40.13,56l-.67,1H24.54l-.67-1ZM62,59a3,3,0,0,1-3,3H5a3,3,0,0,1-3-3V57a1,1,0,0,1,1-1H21.46l1.71,2.55c.42.64-.41.45,16.83.45.69,0,.74-.3,2.54-3H61a1,1,0,0,1,1,1Z"/></g></svg>