<svg xmlns="http://www.w3.org/2000/svg" viewBox="0 0 64 64"><title>Cloud Computing</title><g id="Cloud_Computing" data-name="Cloud Computing"><path d="M16,36H27v3H9a1,1,0,0,0-1,1v4a1,1,0,0,0,2,0V41H28a1,1,0,0,0,1-1V36h2v8a1,1,0,0,0,2,0V36h2v4a1,1,0,0,0,1,1H54v3a1,1,0,0,0,2,0V40a1,1,0,0,0-1-1H37V36H50a9,9,0,0,0,3-17.48A8,8,0,0,0,44.46,11,15,15,0,0,0,15,14a11,11,0,0,0,1,22Zm0-20a1,1,0,0,0,1-1,13,13,0,0,1,25.72-2.67,1,1,0,0,0,1.17.78,6,6,0,0,1,7.11,6,1,1,0,0,0,.74,1.14A7,7,0,0,1,50,34H16a9,9,0,0,1,0-18Z"/><path d="M40,46H24a1,1,0,0,0-1,1V59a1,1,0,0,0,1,1h5v2H28a1,1,0,0,0,0,2h8a1,1,0,0,0,0-2H35V60h5a1,1,0,0,0,1-1V47A1,1,0,0,0,40,46ZM33,62H31V60h2Zm6-4H25V48H39Z"/><path d="M63,46H47a1,1,0,0,0-1,1V59a1,1,0,0,0,1,1h5v2H51a1,1,0,0,0,0,2h8a1,1,0,0,0,0-2H58V60h5a1,1,0,0,0,1-1V47A1,1,0,0,0,63,46ZM56,62H54V60h2Zm6-4H48V48H62Z"/><path d="M17,46H1a1,1,0,0,0-1,1V59a1,1,0,0,0,1,1H6v2H5a1,1,0,0,0,0,2h8a1,1,0,0,0,0-2H12V60h5a1,1,0,0,0,1-1V47A1,1,0,0,0,17,46ZM10,62H8V60h2Zm6-4H2V48H16Z"/></g></svg>