<svg xmlns="http://www.w3.org/2000/svg" viewBox="0 0 64 64"><title>Comparison</title><g id="Comparison"><path d="M10,4a1,1,0,0,0,0,2A1,1,0,0,0,10,4Z"/><path d="M15,4a1,1,0,0,0,0,2A1,1,0,0,0,15,4Z"/><path d="M20,4a1,1,0,0,0,0,2A1,1,0,0,0,20,4Z"/><path d="M63,20H60V1a1,1,0,0,0-1-1H5A1,1,0,0,0,4,1V20H1a1,1,0,0,0-1,1V63a1,1,0,0,0,1,1H29a1,1,0,0,0,1-1V53h4V63a1,1,0,0,0,1,1H63a1,1,0,0,0,1-1V21A1,1,0,0,0,63,20ZM6,2H58V8H6ZM28,62H2V22H28Zm2-11V21a1,1,0,0,0-1-1H6V10H58V20H35a1,1,0,0,0-1,1V51ZM62,62H36V22H62Z"/><path d="M24,25H6a1,1,0,0,0-1,1V42a1,1,0,0,0,1,1H24a1,1,0,0,0,1-1V26A1,1,0,0,0,24,25ZM23,41H7V27H23Z"/><path d="M12.94,38.35l.5-1.35h3.12l.5,1.35a1,1,0,0,0,1.88-.7l-3-8a1,1,0,0,0-1.88,0l-3,8A1,1,0,0,0,12.94,38.35ZM15,32.85,15.81,35H14.19Z"/><path d="M58,43a1,1,0,0,0,1-1V26a1,1,0,0,0-1-1H40a1,1,0,0,0-1,1V42a1,1,0,0,0,1,1ZM41,27H57V41H41Z"/><path d="M51.6,33.47A3,3,0,0,0,49,29H46a1,1,0,0,0-1,1v8a1,1,0,0,0,1,1h4A3,3,0,0,0,51.6,33.47ZM47,31h2a1,1,0,0,1,0,2H47Zm3,6H47V35h3A1,1,0,0,1,50,37Z"/><path d="M6,46a1,1,0,0,0,0,2A1,1,0,0,0,6,46Z"/><path d="M24,46H10a1,1,0,0,0,0,2H24A1,1,0,0,0,24,46Z"/><path d="M6,51a1,1,0,0,0,0,2A1,1,0,0,0,6,51Z"/><path d="M24,51H10a1,1,0,0,0,0,2H24A1,1,0,0,0,24,51Z"/><path d="M6,56a1,1,0,0,0,0,2A1,1,0,0,0,6,56Z"/><path d="M24,56H10a1,1,0,0,0,0,2H24A1,1,0,0,0,24,56Z"/><path d="M40,46a1,1,0,0,0,0,2A1,1,0,0,0,40,46Z"/><path d="M44,46a1,1,0,0,0,0,2H58a1,1,0,0,0,0-2Z"/><path d="M40,51a1,1,0,0,0,0,2A1,1,0,0,0,40,51Z"/><path d="M58,51H44a1,1,0,0,0,0,2H58A1,1,0,0,0,58,51Z"/><path d="M40,56a1,1,0,0,0,0,2A1,1,0,0,0,40,56Z"/><path d="M58,56H44a1,1,0,0,0,0,2H58A1,1,0,0,0,58,56Z"/></g></svg>