<svg xmlns="http://www.w3.org/2000/svg" viewBox="0 0 64 64"><title>Creative Idea</title><g id="Creative_Idea" data-name="Creative Idea"><path d="M63,0H1A1,1,0,0,0,0,1V52a1,1,0,0,0,1,1H24a1,1,0,0,0,1,1v1a1,1,0,1,0,0,2,4,4,0,0,0,3.25,3.92c1.37,4.09,6.11,4.18,7.5,0A4,4,0,0,0,38.86,58a1,1,0,1,0,.21-2c-.1,0-.07.15-.07-1a1,1,0,0,0,0-2H63a1,1,0,0,0,1-1V1A1,1,0,0,0,63,0ZM2,2H62V8H2ZM27,51H37v1.85l-10-.71Zm10-2H27c-.26-2.72-1.65-4.52-3.74-6.44A13,13,0,0,1,31.37,20c12.14-.58,18.29,14.34,9.45,22.51C38.71,44.48,37.32,46.29,37.05,49ZM30.4,61h3.2A1.78,1.78,0,0,1,30.4,61ZM35,59H29a2,2,0,0,1-2-1.85l9.8.7A2,2,0,0,1,35,59Zm-8-3.86v-1l10,.71v1ZM39,51c0-2.81.12-4.18,3.18-7a15,15,0,1,0-20.32,0c3,2.77,3.14,4.14,3.14,7H2V10H62V51Z"/><path d="M6,4A1,1,0,0,0,6,6,1,1,0,0,0,6,4Z"/><path d="M11,4a1,1,0,0,0,0,2A1,1,0,0,0,11,4Z"/><path d="M16,4a1,1,0,0,0,0,2A1,1,0,0,0,16,4Z"/><path d="M31,31h4a1,1,0,0,0,0-2H33V28a1,1,0,0,0-2,0v1a3,3,0,0,0,0,6h2a1,1,0,0,1,0,2H29a1,1,0,0,0,0,2h2v1a1,1,0,0,0,2,0V39a3,3,0,0,0,0-6H31A1,1,0,0,1,31,31Z"/><path d="M53,32H50a1,1,0,0,0,0,2h3A1,1,0,0,0,53,32Z"/><path d="M14,32H11a1,1,0,0,0,0,2h3A1,1,0,0,0,14,32Z"/><path d="M31,12v3a1,1,0,0,0,2,0V12A1,1,0,0,0,31,12Z"/><path d="M45.43,45A1,1,0,0,0,44,46.44c2.31,2.3,2.29,2.41,2.83,2.41a1,1,0,0,0,.71-1.71Z"/><path d="M17.86,17.44a1,1,0,0,0-1.42,1.42c2.31,2.3,2.29,2.41,2.83,2.41A1,1,0,0,0,20,19.56Z"/><path d="M17.86,48.56,20,46.44A1,1,0,0,0,18.57,45l-2.13,2.12A1,1,0,0,0,17.86,48.56Z"/><path d="M46.14,17.44,44,19.56A1,1,0,0,0,45.43,21l2.13-2.12A1,1,0,0,0,46.14,17.44Z"/></g></svg>