<svg xmlns="http://www.w3.org/2000/svg" viewBox="0 0 64 64"><title>Data Analytic</title><g id="Data_Analytic" data-name="Data Analytic"><path d="M61,54H60V18a4,4,0,0,0-4-4H51V1a1,1,0,0,0-1-1H14a1,1,0,0,0-1,1V14H8a4,4,0,0,0-4,4V54H3a3,3,0,0,0-3,3v2a5,5,0,0,0,5,5H59a5,5,0,0,0,5-5V57A3,3,0,0,0,61,54ZM10,50V20h3V50ZM15,8H49V50H15ZM51,20h3V50H51ZM15,2H49V6H15ZM6,18a2,2,0,0,1,2-2h5v2H9a1,1,0,0,0-1,1V51a1,1,0,0,0,1,1H55a1,1,0,0,0,1-1V19a1,1,0,0,0-1-1H51V16h5a2,2,0,0,1,2,2V54H6ZM40.13,56l-.67,1H24.54l-.67-1ZM62,59a3,3,0,0,1-3,3H5a3,3,0,0,1-3-3V57a1,1,0,0,1,1-1H21.46l1.71,2.55c.42.64-.41.45,16.83.45.69,0,.74-.3,2.54-3H61a1,1,0,0,1,1,1Z"/><path d="M18,3a1,1,0,0,0,0,2A1,1,0,0,0,18,3Z"/><path d="M22,3a1,1,0,0,0,0,2A1,1,0,0,0,22,3Z"/><path d="M26,3a1,1,0,0,0,0,2A1,1,0,0,0,26,3Z"/><path d="M44,31H41V21a1,1,0,0,0-2,0V31H36V26a1,1,0,0,0-2,0v5H31V23a1,1,0,0,0-2,0v8H26V28a1,1,0,0,0-2,0v3H21V27.41l9-9,3.29,3.3a1,1,0,0,0,1.42,0L42,14.41V16a1,1,0,0,0,2,0c0-5.94.87-5-5-5a1,1,0,0,0,0,2h1.59L34,19.59l-3.29-3.3a1,1,0,0,0-1.42,0L21,24.59V12a1,1,0,0,0-2,0V32a1,1,0,0,0,1,1H44A1,1,0,0,0,44,31Z"/><path d="M44,37H24a1,1,0,0,0,0,2H44A1,1,0,0,0,44,37Z"/><path d="M44,41H24a1,1,0,0,0,0,2H44A1,1,0,0,0,44,41Z"/><path d="M44,45H24a1,1,0,0,0,0,2H44A1,1,0,0,0,44,45Z"/><path d="M20,37a1,1,0,0,0,0,2A1,1,0,0,0,20,37Z"/><path d="M20,41a1,1,0,0,0,0,2A1,1,0,0,0,20,41Z"/><path d="M20,45a1,1,0,0,0,0,2A1,1,0,0,0,20,45Z"/></g></svg>