<svg xmlns="http://www.w3.org/2000/svg" viewBox="0 0 64 64"><title>Digital Agreement</title><g id="Digital_Agreement" data-name="Digital Agreement"><path d="M61,54H60V18a4,4,0,0,0-4-4H51V9h9a1,1,0,0,0,1-1V6a6,6,0,0,0-6-6H19a6,6,0,0,0-6,6v8H8a4,4,0,0,0-4,4V54H3a3,3,0,0,0-3,3v2a5,5,0,0,0,5,5H59a5,5,0,0,0,5-5V57A3,3,0,0,0,61,54ZM51,20h3V50H51ZM59,6V7H51V6a4,4,0,0,1,8,0ZM15,6a4,4,0,0,1,4-4H50.53A6.07,6.07,0,0,0,49,6V50H15ZM10,50V20h3V50ZM6,18a2,2,0,0,1,2-2h5v2H9a1,1,0,0,0-1,1V51a1,1,0,0,0,1,1H55a1,1,0,0,0,1-1V19a1,1,0,0,0-1-1H51V16h5a2,2,0,0,1,2,2V54H6ZM40.13,56l-.67,1H24.54l-.67-1ZM62,59a3,3,0,0,1-3,3H5a3,3,0,0,1-3-3V57a1,1,0,0,1,1-1H21.46l1.71,2.55c.42.64-.45.45,16.83.45.69,0,.74-.3,2.54-3H61a1,1,0,0,1,1,1Z"/><path d="M22,13a4,4,0,1,0-4-4A4,4,0,0,0,22,13Zm0-6a2,2,0,1,1-2,2A2,2,0,0,1,22,7Z"/><path d="M29,10h8a1,1,0,0,0,0-2H29A1,1,0,0,0,29,10Z"/><path d="M24,19H45a1,1,0,0,0,0-2H24A1,1,0,0,0,24,19Z"/><path d="M19,24H45a1,1,0,0,0,0-2H19A1,1,0,0,0,19,24Z"/><path d="M19,29H45a1,1,0,0,0,0-2H19A1,1,0,0,0,19,29Z"/><path d="M19,34H39a1,1,0,0,0,0-2H19A1,1,0,0,0,19,34Z"/><path d="M44,44H37c-.94,0-1-2-1-2a1,1,0,0,0-1.71-.71l-1,1-.38-.76a1,1,0,0,0-1.6-.26,18.29,18.29,0,0,1-3.18,2.51A26,26,0,0,1,29,38.24a1,1,0,0,0-1.73-.89l-6,7a1,1,0,0,0,1.52,1.3l3.5-4.09c-.74,5.41,1.24,5.7,5.44,2.07.45.91.55,1.26,1.14,1.36s.77-.18,1.54-1A2.77,2.77,0,0,0,37,46h7A1,1,0,0,0,44,44Z"/></g></svg>