<svg xmlns="http://www.w3.org/2000/svg" viewBox="0 0 64 64"><title>Direction</title><g id="Direction"><path d="M62.85,40.57,58.34,38a27.33,27.33,0,0,0,0-11.94l4.51-2.6a1,1,0,0,0,.36-1.37c-7.59-13.15-7-12.44-7.6-12.59s-.4-.11-5.28,2.71A27.16,27.16,0,0,0,40,6.21V1a1,1,0,0,0-1-1H25a1,1,0,0,0-1,1V6.21a27.16,27.16,0,0,0-10.33,6L9.15,9.57a1,1,0,0,0-1.36.37C.19,23.09.53,22.25.69,22.82s0,.36,5,3.21A27.33,27.33,0,0,0,5.66,38C.74,40.81.83,40.64.69,41.18s-.5-.27,7.1,12.88a1,1,0,0,0,1.36.37l4.52-2.61a27.16,27.16,0,0,0,10.33,6V63a1,1,0,0,0,1,1H39a1,1,0,0,0,1-1V57.79a27.16,27.16,0,0,0,10.33-6c4.92,2.84,4.73,2.85,5.28,2.71s0,.56,7.6-12.59A1,1,0,0,0,62.85,40.57ZM55,52.2l-4.3-2.49a1,1,0,0,0-1.2.15,25.08,25.08,0,0,1-10.75,6.22A1,1,0,0,0,38,57v5H26V57a1,1,0,0,0-.73-1,25.08,25.08,0,0,1-10.75-6.22,1,1,0,0,0-1.2-.15L9,52.2,3,41.8l4.29-2.47a1,1,0,0,0,.47-1.12,25.11,25.11,0,0,1,0-12.42,1,1,0,0,0-.47-1.12L3,22.2,9,11.8l4.3,2.49a1,1,0,0,0,1.2-.15A25.08,25.08,0,0,1,25.27,7.92,1,1,0,0,0,26,7V2H38V7a1,1,0,0,0,.73,1,25.08,25.08,0,0,1,10.75,6.22,1,1,0,0,0,1.2.15L55,11.8l6,10.4c-7.43,4.29-4,1.09-4,9.8s-3.45,5.52,4,9.8Z"/><path d="M46.14,17.86a20,20,0,1,0,0,28.28A20,20,0,0,0,46.14,17.86ZM47,33h3A17.89,17.89,0,0,1,45.4,44l-.67-.67a1,1,0,0,0-1.42,1.42l.67.67A17.89,17.89,0,0,1,33,50V47a1,1,0,0,0-2,0v3A17.89,17.89,0,0,1,20,45.4l.67-.67a1,1,0,0,0-1.42-1.42L18.6,44a17.89,17.89,0,0,1-4.55-11H17a1,1,0,0,0,0-2H14.05A17.89,17.89,0,0,1,18.6,20c.6.6.85,1,1.38,1a1,1,0,0,0,.71-1.71L20,18.6a17.89,17.89,0,0,1,11-4.55V17a1,1,0,0,0,2,0V14.05A17.89,17.89,0,0,1,44,18.6l-.67.67A1,1,0,0,0,44,21c.5,0,.65-.24,1.38-1A17.89,17.89,0,0,1,50,31H47A1,1,0,0,0,47,33Z"/><path d="M35.91,28.59c-.22-.49.46-.07-11.5-5.5a1,1,0,0,0-1.32,1.32c5.42,11.93,5,11.28,5.5,11.5C40.56,41.35,39.69,41,40,41a1,1,0,0,0,.91-1.41Zm-2.64.72-4,4L26,26Zm-2.54,5.38,4-4L38,38Z"/></g></svg>