<svg xmlns="http://www.w3.org/2000/svg" viewBox="0 0 64 64"><title>Ecommerce</title><g id="Ecommerce"><path d="M63,0H1A1,1,0,0,0,0,1V52a1,1,0,0,0,1,1H15v6a5,5,0,0,0,5,5H44a5,5,0,0,0,5-5V53H63a1,1,0,0,0,1-1V1A1,1,0,0,0,63,0ZM2,2H62V8H2ZM47,59a3,3,0,0,1-3,3H20a3,3,0,0,1-3-3V19a3,3,0,0,1,3-3H44a3,3,0,0,1,3,3Zm2-8V19a5,5,0,0,0-5-5H20a5,5,0,0,0-5,5V51H2V10H62V51Z"/><path d="M6,4A1,1,0,0,0,6,6,1,1,0,0,0,6,4Z"/><path d="M11,4a1,1,0,0,0,0,2A1,1,0,0,0,11,4Z"/><path d="M16,4a1,1,0,0,0,0,2A1,1,0,0,0,16,4Z"/><path d="M44,18c-5.41,0-5.53-.18-5.89.55A2.61,2.61,0,0,1,35.76,20H28.24a2.61,2.61,0,0,1-2.35-1.45c-.36-.73-.55-.55-5.89-.55a1,1,0,0,0-1,1V59a1,1,0,0,0,1,1H44a1,1,0,0,0,1-1V19A1,1,0,0,0,44,18ZM43,58H21V20h3.43a4.58,4.58,0,0,0,3.81,2h7.52a4.58,4.58,0,0,0,3.81-2H43Z"/><path d="M28,30.8a1,1,0,0,0-1-.8H24a1,1,0,0,0,0,2h2.19L28,40.66c-1.16,1.11-2,1.67-2,2.94a2.42,2.42,0,0,0,1.05,2A2,2,0,1,0,31,46h4a2,2,0,1,0,2-2c-8.88,0-9,.17-9-.4,0-.23,0-.19,1.48-1.6H38a1,1,0,0,0,1-.73c2.11-7.39,2.25-7.32,1.84-7.87s.07-.4-12.36-.4ZM38.67,35l-1.42,5H29.89l-1-5Z"/></g></svg>