<svg xmlns="http://www.w3.org/2000/svg" viewBox="0 0 64 64"><title>Growth</title><g id="Growth"><path d="M32,28A11,11,0,1,0,21,17,11,11,0,0,0,32,28ZM32,8a9,9,0,1,1-9,9A9,9,0,0,1,32,8Z"/><path d="M33,20H29a1,1,0,0,0,0,2h2v1a1,1,0,0,0,2,0V22a3,3,0,0,0,0-6H31a1,1,0,0,1,0-2h4a1,1,0,0,0,0-2H33V11a1,1,0,0,0-2,0v1a3,3,0,0,0,0,6h2A1,1,0,0,1,33,20Z"/><path d="M61,54H60V18a4,4,0,0,0-4-4H47.2c2.62-1.51,2.33-.64-2.48-9a1,1,0,0,0-1.36-.37l-1.62.94A15.16,15.16,0,0,0,37,2.86V1a1,1,0,0,0-1-1H28a1,1,0,0,0-1,1V2.86a15.16,15.16,0,0,0-4.74,2.75l-1.62-.94A1,1,0,0,0,19.28,5l-4,6.92a1,1,0,0,0,.36,1.37L16.8,14H8a4,4,0,0,0-4,4V54H3a3,3,0,0,0-3,3v2a5,5,0,0,0,5,5H59a5,5,0,0,0,5-5V57A3,3,0,0,0,61,54ZM10,50V20h6.8c-2.62,1.51-2.33.64,2.48,9a1,1,0,0,0,1.36.37l1.62-.94A15.16,15.16,0,0,0,27,31.14V33a1,1,0,0,0,1,1h3v4.36A9,9,0,0,0,24,35H18c-2.76,0-.12,10,8,10h5v5Zm20.93-7H26a7,7,0,0,1-6.93-6H24A7,7,0,0,1,30.93,43ZM33,47h5c8.06,0,10.78-10,8-10H40a9,9,0,0,0-7,3.36V34h3a1,1,0,0,0,1-1V31.14a15.16,15.16,0,0,0,4.74-2.75l1.62.94A1,1,0,0,0,44.72,29c4.28-7.41,4.25-7.12,4.1-7.68C48.39,19.67,43.21,20,54,20V50H33Zm.07-2A7,7,0,0,1,40,39h4.93A7,7,0,0,1,38,45ZM20.51,6.9l1.38.8a1,1,0,0,0,1.19-.14C26.71,4.13,29,5.15,29,3.59V2h6c0,1.67-.14,2.29.71,2.55,4.76,1.41,5,3.93,6.4,3.15l1.38-.8,3,5.2c-1.39.8-2.06,1-1.85,1.89a12.76,12.76,0,0,1,0,6c-.21.87.47,1.1,1.85,1.89l-3,5.2-1.38-.8c-1.36-.78-1.65,1.74-6.4,3.15-.86.26-.71,1-.71,2.55H29V30.41c0-1.57-2.28-.53-5.92-4-.65-.61-1.19-.14-2.57.66l-3-5.2c3-1.74,1.49-.68,1.49-4.9s1.53-3.16-1.49-4.9ZM6,18a2,2,0,0,1,2-2h9.05a9.55,9.55,0,0,0,0,2H9a1,1,0,0,0-1,1V51a1,1,0,0,0,1,1H55a1,1,0,0,0,1-1V19a1,1,0,0,0-1-1H47a9.55,9.55,0,0,0,0-2h9a2,2,0,0,1,2,2V54H6ZM40.13,56l-.67,1H24.54l-.67-1ZM62,59a3,3,0,0,1-3,3H5a3,3,0,0,1-3-3V57a1,1,0,0,1,1-1H21.46l1.71,2.55c.42.64-.41.45,16.83.45.69,0,.74-.3,2.54-3H61a1,1,0,0,1,1,1Z"/></g></svg>