<svg xmlns="http://www.w3.org/2000/svg" viewBox="0 0 64 64"><title>hockey stick growth</title><g id="hockey_stick_growth" data-name="hockey stick growth"><path d="M63,62H61V14a1,1,0,0,0-1-1H52a1,1,0,0,0-1,1V62H45V29a1,1,0,0,0-1-1H36a1,1,0,0,0-1,1V62H29V43a1,1,0,0,0-1-1H20a1,1,0,0,0-1,1V62H13V39a1,1,0,0,0-1-1H4a1,1,0,0,0-1,1V62H1a1,1,0,0,0,0,2H63A1,1,0,0,0,63,62ZM5,62V40h6V62Zm16,0V44h6V62Zm16,0V30h6V62Zm16,0V15h6V62Z"/><path d="M10.5,28.66,21,31.29a3,3,0,1,0,5.75-1.39L38.54,19.6a3,3,0,0,0,4.2-3.8L53.3,5.9C55.35,8.31,55.39,8.54,56,8.54a1,1,0,0,0,1-.85c1.06-7,1.17-6.87.75-7.35S57.55,0,50.52.1a1,1,0,0,0-.75,1.65L52,4.37l-10.63,10a3,3,0,0,0-4.15,3.75L25.46,28.4a3,3,0,0,0-4,1L11,26.72a3,3,0,1,0-.47,1.94ZM55.83,2l-.48,3.2L52.67,2.07ZM41,17a1,1,0,0,1-2,0A1,1,0,0,1,41,17ZM24,30a1,1,0,0,1,0,2A1,1,0,0,1,24,30ZM8,26a1,1,0,0,1,0,2A1,1,0,0,1,8,26Z"/></g></svg>