<svg xmlns="http://www.w3.org/2000/svg" viewBox="0 0 64 64"><title>Investor</title><g id="Investor"><path d="M43,23A11,11,0,1,0,32,34,11,11,0,0,0,43,23ZM23,23a9,9,0,1,1,9,9A9,9,0,0,1,23,23Z"/><path d="M47,23A15,15,0,1,0,32,38,15,15,0,0,0,47,23ZM19,23A13,13,0,1,1,32,36,13,13,0,0,1,19,23Z"/><path d="M33,29V28a3,3,0,0,0,0-6H31a1,1,0,0,1,0-2h4a1,1,0,0,0,0-2H33V17a1,1,0,0,0-2,0v1a3,3,0,0,0,0,6h2a1,1,0,0,1,0,2H29a1,1,0,0,0,0,2h2v1A1,1,0,0,0,33,29Z"/><path d="M58,62.78,55.1,50.12A12.94,12.94,0,0,0,42.42,40c-3.88,0-1.61.56,2.18-2.8l3.45,2a1,1,0,0,0,1.37-.37l5-8.66a1,1,0,0,0-.37-1.37l-3.45-2a18.29,18.29,0,0,0,0-7.62l3.45-2a1,1,0,0,0,.37-1.37l-5-8.66a1,1,0,0,0-1.37-.37l-3.45,2A19.18,19.18,0,0,0,38,5V1a1,1,0,0,0-1-1H27a1,1,0,0,0-1,1V5A19.18,19.18,0,0,0,19.4,8.8L16,6.8a1,1,0,0,0-1.37.37C9.2,16.5,9.33,16,9.48,16.59s.26.49,3.92,2.6a18.29,18.29,0,0,0,0,7.62c-3.51,2-3.76,2-3.92,2.6s-.27.12,5.1,9.42A1,1,0,0,0,16,39.2l3.45-2C23.08,40.47,25.26,40,22,40A12.94,12.94,0,0,0,8.91,50.12L6,62.78A1,1,0,0,0,8,63.22l2.89-12.66A10.93,10.93,0,0,1,20.68,42c-2.8,10.28-3,10.09-2.39,10.67l2.42,2.42c-1.57,2.36-2.08,2.79-1.48,3.51l4.17,5a1,1,0,0,0,1.54-1.28l-3.69-4.43,1.58-2.38a1,1,0,0,0-.12-1.26L20.12,51.7,22.76,42h.44c3.36,15.39,4.55,20.84,4.6,21.15a1,1,0,1,0,2-.37l1-9.68a1.23,1.23,0,0,1,2.44,0l1,9.67a1,1,0,1,0,2,.2c5.08-23.28,4.38-21,5-21l2.64,9.7-2.59,2.59a1,1,0,0,0-.12,1.26l1.58,2.38-3.69,4.43a1,1,0,0,0,1.54,1.28l4.17-5c.61-.74,0-1.22-1.48-3.51,2.69-2.7,2.87-2.69,2.67-3.39L43.32,42a11,11,0,0,1,9.83,8.52L56,63.22A1,1,0,0,0,58,62.78ZM15.82,37l-4-6.92c3.25-1.88,3.92-2,3.69-3a16.49,16.49,0,0,1,0-8.14c.24-1-.5-1.12-3.69-3l4-6.92L19,10.9c1.48.85,2.05-2.43,8.24-4.22.95-.28.72-1,.72-4.68h8V5.72c0,1.72,3,.49,7.77,5,.72.69,1.22.13,4.41-1.71l4,6.92C46.52,19.23,49,17.05,49,23s-2.46,3.78,3.18,7l-4,6.92c-3.26-1.88-3.7-2.39-4.41-1.71-4.66,4.47-7.77,3.32-7.77,5,0,.34.58-.22-4,3.44-4.57-3.66-4-3.1-4-3.44,0-1.72-3-.49-7.77-5C19.52,34.56,19,35.12,15.82,37ZM37.14,49.4c-3,13.55-.48,4.11-2.79,1.63a3.34,3.34,0,0,0,1-1.83l.14-.86Zm-3.8-.53a1.36,1.36,0,0,1-2.68,0l-.28-1.68,1.62-1,1.62,1Zm-4.93,7.65-1.55-7.13,1.68-1A3.88,3.88,0,0,0,29.65,51C28.71,52,28.82,52.64,28.41,56.52ZM26.65,42l3.62,2.9L26.4,47.32,25.24,42Zm11,5.32L33.73,44.9,37.35,42h1.41Z"/></g></svg>