<svg xmlns="http://www.w3.org/2000/svg" viewBox="0 0 64 64"><title>Manager</title><g id="Manager"><path d="M62.85,40.57,58.34,38a27.33,27.33,0,0,0,0-11.94l4.51-2.6a1,1,0,0,0,.36-1.37c-7.59-13.15-7-12.44-7.6-12.59s-.4-.11-5.28,2.71A27.16,27.16,0,0,0,40,6.21V1a1,1,0,0,0-1-1H25a1,1,0,0,0-1,1V6.21a27.16,27.16,0,0,0-10.33,6L9.15,9.57a1,1,0,0,0-1.36.37C.19,23.09.53,22.25.69,22.82s0,.36,5,3.21A27.33,27.33,0,0,0,5.66,38C.74,40.81.83,40.64.69,41.18s-.5-.27,7.1,12.88a1,1,0,0,0,1.36.37l4.52-2.61a27.16,27.16,0,0,0,10.33,6V63a1,1,0,0,0,1,1H39a1,1,0,0,0,1-1V57.79a27.16,27.16,0,0,0,10.33-6c4.92,2.84,4.73,2.85,5.28,2.71s0,.56,7.6-12.59A1,1,0,0,0,62.85,40.57ZM55,52.2l-4.3-2.49a1,1,0,0,0-1.2.15,25.08,25.08,0,0,1-10.75,6.22A1,1,0,0,0,38,57v5H26V57a1,1,0,0,0-.73-1,25.08,25.08,0,0,1-10.75-6.22,1,1,0,0,0-1.2-.15L9,52.2,3,41.8l4.29-2.47a1,1,0,0,0,.47-1.12,25.11,25.11,0,0,1,0-12.42,1,1,0,0,0-.47-1.12L3,22.2,9,11.8l4.3,2.49a1,1,0,0,0,1.2-.15A25.08,25.08,0,0,1,25.27,7.92,1,1,0,0,0,26,7V2H38V7a1,1,0,0,0,.73,1,25.08,25.08,0,0,1,10.75,6.22,1,1,0,0,0,1.2.15L55,11.8l6,10.4c-7.43,4.29-4,1.09-4,9.8s-3.45,5.52,4,9.8Z"/><path d="M32,12C13.34,12,5,35.29,19,47.23a20,20,0,0,0,25.94,0C59,35.29,50.66,12,32,12Zm1.91,37.9-.84-9.15c2.18-1,1.73-3.75-.3-3.75-1.68,0-2.44-.14-3,.84a2.07,2.07,0,0,0,1.2,2.91l-.84,9.15a18,18,0,0,1-9.24-3.78L21.58,44a11,11,0,0,1,15.94-6c3.84,2.21,4.69,5.37,5.63,8.17A17.91,17.91,0,0,1,33.91,49.9ZM32,34.45a5.91,5.91,0,0,1-5.94-5.9V26.82a5.91,5.91,0,1,1,11.82,0v1.73A5.91,5.91,0,0,1,32,34.45ZM44.77,44.67c-1.5-4.48-3.57-7.75-8.48-9.49a7.91,7.91,0,0,0,3.62-6.63V26.82a7.91,7.91,0,1,0-15.82,0v1.73a7.91,7.91,0,0,0,3.62,6.63c-4.91,1.74-7,5-8.48,9.49C8.05,33.41,16,14,32,14S56,33.41,44.77,44.67Z"/></g></svg>