<svg xmlns="http://www.w3.org/2000/svg" viewBox="0 0 64 64"><title>Mobile Payment</title><g id="Mobile_Payment" data-name="Mobile Payment"><path d="M16,5a1,1,0,0,0,0-2A1,1,0,0,0,16,5Z"/><path d="M24,5a1,1,0,0,0,0-2A1,1,0,0,0,24,5Z"/><path d="M63,17H40V5a5,5,0,0,0-5-5H5A5,5,0,0,0,0,5V59a5,5,0,0,0,5,5H35a5,5,0,0,0,5-5V47H63a1,1,0,0,0,1-1V18A1,1,0,0,0,63,17ZM38,59a3,3,0,0,1-3,3H5a3,3,0,0,1-3-3V5A3,3,0,0,1,5,2H35a3,3,0,0,1,3,3V17H36V5a1,1,0,0,0-1-1H28a1,1,0,0,0-1,1,1,1,0,0,1-1,1c-13,0-12.29.13-12.71-.31A.93.93,0,0,1,13,5a1,1,0,0,0-1-1H5A1,1,0,0,0,4,5V59a1,1,0,0,0,1,1H35a1,1,0,0,0,1-1V47h2ZM15,17a1,1,0,0,0-1,1V46a1,1,0,0,0,1,1H34V58H6V6h5.17A3,3,0,0,0,14,8H26a3,3,0,0,0,2.83-2H34V17ZM62,45H16V19H62Z"/><path d="M23,22a4,4,0,0,1-4,4,1,1,0,0,0-1,1V37a1,1,0,0,0,1,1,4,4,0,0,1,4,4,1,1,0,0,0,1,1H54a1,1,0,0,0,1-1,4,4,0,0,1,4-4,1,1,0,0,0,1-1V27a1,1,0,0,0-1-1,4,4,0,0,1-4-4,1,1,0,0,0-1-1H24A1,1,0,0,0,23,22Zm30.08,1A6,6,0,0,0,58,27.92v8.16A6,6,0,0,0,53.08,41H24.92A6,6,0,0,0,20,36.08V27.92A6,6,0,0,0,24.92,23Z"/><path d="M59,23a1,1,0,0,0,0-2A1,1,0,0,0,59,23Z"/><path d="M59,41a1,1,0,0,0,0,2A1,1,0,0,0,59,41Z"/><path d="M19,23a1,1,0,0,0,0-2A1,1,0,0,0,19,23Z"/><path d="M19,41a1,1,0,0,0,0,2A1,1,0,0,0,19,41Z"/><path d="M39,39a7,7,0,1,0-7-7A7,7,0,0,0,39,39Zm0-12a5,5,0,1,1-5,5A5,5,0,0,1,39,27Z"/><path d="M50,33h4a1,1,0,0,0,0-2H50A1,1,0,0,0,50,33Z"/><path d="M24,33h4a1,1,0,0,0,0-2H24A1,1,0,0,0,24,33Z"/></g></svg>