<svg xmlns="http://www.w3.org/2000/svg" viewBox="0 0 64 64"><title>MRR</title><g id="MRR"><path d="M55.32,10.1C57.44,8,58,7.69,57.67,6.87s-.54-.62-6.69-.62A32.1,32.1,0,0,0,10.1,8.68L8,6.54a1,1,0,0,0-1.71.71V13A32.1,32.1,0,0,0,8.68,53.9C6.56,56,6,56.31,6.33,57.13s.55.62,6.7.62A32.07,32.07,0,0,0,53.9,55.32c2.28,2.28,2.3,2.43,2.85,2.43a1,1,0,0,0,1-1V51A32.1,32.1,0,0,0,55.32,10.1Zm-2.11-.73a1,1,0,0,0,0,1.42,30.12,30.12,0,0,1,4.54,36.59v-.53a1,1,0,0,0-1-1H54a26.17,26.17,0,0,0-3.6-32.24,1,1,0,0,0-1.42,0l-1.12,1.13V8.25h6.49ZM46.85,45.85a1,1,0,0,0-.71,1.71l2.09,2.09a24.15,24.15,0,0,1-30.08,1.94c0-5,.2-5.32-.62-5.66s-1,.08-3.18,2.3a24.15,24.15,0,0,1-1.94-30.08h4.74a1,1,0,0,0,.71-1.71l-2.09-2.09a24.14,24.14,0,0,1,30.08-1.94c0,4.95-.2,5.32.62,5.66s1-.08,3.18-2.3a24.15,24.15,0,0,1,1.94,30.08ZM8.25,9.66c1.21,1.22,1.3,1.42,1.83,1.42a1,1,0,0,0,.71-.29A30.12,30.12,0,0,1,47.38,6.25h-.53a1,1,0,0,0-1,1V10a26.17,26.17,0,0,0-32.24,3.6h0c-.9.9.36,1.77,1.13,2.54H8.25Zm2.54,45a1,1,0,0,0,0-1.42,30.11,30.11,0,0,1-4.54-36.6v.54a1,1,0,0,0,1,1H10a26.17,26.17,0,0,0,3.6,32.24,1.24,1.24,0,0,0,.71.29c.55,0,.73-.31,1.83-1.42v6.49H9.66Zm45-.29-1.12-1.13a1,1,0,0,0-1.42,0,30.12,30.12,0,0,1-36.59,4.54h.53a1,1,0,0,0,1-1V54a26.18,26.18,0,0,0,32.24-3.61h0c.9-.9-.36-1.77-1.13-2.54h6.49Z"/><path d="M32,21A11,11,0,1,0,43,32,11,11,0,0,0,32,21Zm0,20a9,9,0,1,1,9-9A9,9,0,0,1,32,41Z"/><path d="M31,29h4a1,1,0,0,0,0-2H33V26a1,1,0,0,0-2,0v1a3,3,0,0,0,0,6h2a1,1,0,0,1,0,2H29a1,1,0,0,0,0,2h2v1a1,1,0,0,0,2,0V37a3,3,0,0,0,0-6H31A1,1,0,0,1,31,29Z"/><path d="M48.36,35.67l-1.62-.93a14.43,14.43,0,0,0,0-5.48l1.62-.93A1,1,0,0,0,48.72,27l-4-6.92a1,1,0,0,0-1.36-.37l-1.62.94A15.16,15.16,0,0,0,37,17.86V16a1,1,0,0,0-1-1H28a1,1,0,0,0-1,1v1.86a15.16,15.16,0,0,0-4.74,2.75l-1.62-.94a1,1,0,0,0-1.36.37c-4.92,8.52-5.23,7.37-2,9.22a14.43,14.43,0,0,0,0,5.48c-1.64.95-1.94,1-2.08,1.54s-.18.28,4.1,7.68a1,1,0,0,0,1.36.37l1.62-.94A15.16,15.16,0,0,0,27,46.14V48a1,1,0,0,0,1,1h8a1,1,0,0,0,1-1V46.14a15.16,15.16,0,0,0,4.74-2.75l1.62.94A1,1,0,0,0,44.72,44l4-6.92A1,1,0,0,0,48.36,35.67ZM44.64,29a12.76,12.76,0,0,1,0,6c-.21.87.47,1.1,1.85,1.89l-3,5.2-1.38-.8c-1.36-.78-1.65,1.74-6.4,3.15-.86.26-.71,1-.71,2.55H29V45.41c0-1.57-2.28-.53-5.92-4-.65-.62-1.19-.14-2.57.66l-3-5.2c3-1.74,1.49-.67,1.49-4.9s1.53-3.16-1.49-4.9l3-5.2,1.38.8a1,1,0,0,0,1.19-.14c3.63-3.43,5.92-2.41,5.92-4V17h6c0,1.5-.17,2.28.71,2.55,4.7,1.4,5,3.93,6.4,3.15l1.38-.8,3,5.2C45.1,27.9,44.43,28.12,44.64,29Z"/></g></svg>