<svg xmlns="http://www.w3.org/2000/svg" viewBox="0 0 64 64"><title>Online Shoping</title><g id="Online_Shoping" data-name="Online Shoping"><path d="M61,28H60V4a4,4,0,0,0-4-4H8A4,4,0,0,0,4,4V40H3a3,3,0,0,0-3,3v2a5,5,0,0,0,5,5H42V61a3,3,0,0,0,3,3H61a3,3,0,0,0,3-3V31A3,3,0,0,0,61,28ZM42,31v5H10V6H54V28H45A3,3,0,0,0,42,31Zm14.38-1c-.19.93-.79,1-1,1H50.64a1,1,0,0,1-1-.81C49.6,29.91,48.89,30,56.38,30ZM6,4A2,2,0,0,1,8,2H56a2,2,0,0,1,2,2V28H56V5a1,1,0,0,0-1-1H9A1,1,0,0,0,8,5V37a1,1,0,0,0,1,1H42v2H6ZM40.13,42l-.67,1H24.54l-.67-1ZM5,48a3,3,0,0,1-3-3V43a1,1,0,0,1,1-1H21.46l1.71,2.55c.42.64-.45.45,16.83.45.71,0,.86-.48,2-2.2V48ZM62,61a1,1,0,0,1-1,1H45a1,1,0,0,1-1-1V31a1,1,0,0,1,1-1h2.58l.12.59A3,3,0,0,0,50.64,33h4.72a3,3,0,0,0,2.94-2.41l.12-.59H61a1,1,0,0,1,1,1Z"/><path d="M19.44,15,19,12.8a1,1,0,0,0-1-.8H15a1,1,0,0,0,0,2h2.19L19,22.66c-1.13,1.08-2,1.66-2,2.94a2.42,2.42,0,0,0,1.05,2A2,2,0,1,0,22,28h4a2,2,0,1,0,2-2c-8.88,0-9,.17-9-.4,0-.24,0-.18,1.48-1.6H29a1,1,0,0,0,1-.73c2.11-7.39,2.25-7.32,1.84-7.87S31.87,15,19.44,15Zm8.81,7H20.89l-1-5h9.82Z"/><path d="M37,11H49a1,1,0,0,0,0-2H37A1,1,0,0,0,37,11Z"/><path d="M37,16H49a1,1,0,0,0,0-2H37A1,1,0,0,0,37,16Z"/><path d="M37,21H49a1,1,0,0,0,0-2H37A1,1,0,0,0,37,21Z"/><path d="M49,24H37a1,1,0,0,0,0,2H49A1,1,0,0,0,49,24Z"/><path d="M56,42H54V41a1,1,0,0,0-2,0v1c-4.59,0-4.23,6-.36,6h2a1,1,0,0,1,0,2H50a1,1,0,0,0,0,2h2v1a1,1,0,0,0,2,0V52a3,3,0,0,0-.36-6h-2a1,1,0,0,1,0-2H56A1,1,0,0,0,56,42Z"/></g></svg>