<svg xmlns="http://www.w3.org/2000/svg" viewBox="0 0 64 64"><title>Presentation</title><g id="Presentation"><path d="M63,0H1A1,1,0,0,0,0,1V7A1,1,0,0,0,1,8H3V51H2a1,1,0,0,0,0,2H31v5.18a3,3,0,1,0,2,0V53H62a1,1,0,0,0,0-2H61V8h2a1,1,0,0,0,1-1V1A1,1,0,0,0,63,0ZM32,62a1,1,0,0,1,0-2A1,1,0,0,1,32,62ZM59,51H5V8H59ZM62,6H2V2H62Z"/><path d="M32,40A11,11,0,1,0,21,29,11,11,0,0,0,32,40Zm0-20a9,9,0,1,1-9,9A9,9,0,0,1,32,20Z"/><path d="M33,32H29a1,1,0,0,0,0,2h2v1a1,1,0,0,0,2,0V34a3,3,0,0,0,0-6H31a1,1,0,0,1,0-2h4a1,1,0,0,0,0-2H33V23a1,1,0,0,0-2,0v1a3,3,0,0,0,0,6h2A1,1,0,0,1,33,32Z"/><path d="M15.18,33.28c-.15.56-.18.28,4.1,7.68a1,1,0,0,0,1.36.37l1.62-.94A15.16,15.16,0,0,0,27,43.14V45a1,1,0,0,0,1,1h8a1,1,0,0,0,1-1V43.14a15.16,15.16,0,0,0,4.74-2.75l1.62.94A1,1,0,0,0,44.72,41l4-6.92a1,1,0,0,0-.36-1.37l-1.62-.93a14.43,14.43,0,0,0,0-5.48l1.62-.93A1,1,0,0,0,48.72,24l-4-6.92a1,1,0,0,0-1.36-.37l-1.62.94A15.16,15.16,0,0,0,37,14.86V13a1,1,0,0,0-1-1H28a1,1,0,0,0-1,1v1.86a15.16,15.16,0,0,0-4.74,2.75l-1.62-.94a1,1,0,0,0-1.36.37c-4.92,8.52-5.23,7.37-2,9.22a14.43,14.43,0,0,0,0,5.48C15.62,32.69,15.32,32.75,15.18,33.28ZM19.36,32a12.76,12.76,0,0,1,0-6c.21-.87-.47-1.1-1.85-1.89l3-5.2,1.38.8c1.36.78,1.65-1.74,6.4-3.15.86-.26.71-1,.71-2.55h6v1.59c0,1.57,2.28.53,5.92,4,.65.62,1.19.14,2.57-.66l3,5.2c-3,1.74-1.49.68-1.49,4.9s-1.53,3.16,1.49,4.9l-3,5.2-1.38-.8a1,1,0,0,0-1.19.14c-3.63,3.43-5.92,2.41-5.92,4V44H29c0-1.5.17-2.28-.71-2.55-4.69-1.39-5.05-3.93-6.4-3.15l-1.38.8-3-5.2C18.9,33.1,19.57,32.88,19.36,32Z"/></g></svg>