<svg xmlns="http://www.w3.org/2000/svg" viewBox="0 0 64 64"><title>Product Management</title><g id="Product_Management" data-name="Product Management"><path d="M43,17A11,11,0,1,0,32,28,11,11,0,0,0,43,17ZM23,17a9,9,0,1,1,9,9A9,9,0,0,1,23,17Z"/><path d="M33,23V22a3,3,0,0,0,0-6H31a1,1,0,0,1,0-2h4a1,1,0,0,0,0-2H33V11a1,1,0,0,0-2,0v1a3,3,0,0,0,0,6h2a1,1,0,0,1,0,2H29a1,1,0,0,0,0,2h2v1A1,1,0,0,0,33,23Z"/><path d="M63.86,42.49c-6.45-10.75-6-10.19-6.44-10.39S58.5,32,37,32v-.86a15.16,15.16,0,0,0,4.74-2.75c3.11,1.81,2,2.29,7-6.35a1,1,0,0,0-.36-1.37l-1.62-.93a14.43,14.43,0,0,0,0-5.48l1.62-.93A1,1,0,0,0,48.72,12c-4.92-8.52-3.78-8.21-7-6.35A15.16,15.16,0,0,0,37,2.86V1a1,1,0,0,0-1-1H28a1,1,0,0,0-1,1V2.86a15.16,15.16,0,0,0-4.74,2.75l-1.62-.94A1,1,0,0,0,19.28,5l-4,6.92a1,1,0,0,0,.36,1.37l1.62.93a14.43,14.43,0,0,0,0,5.48l-1.62.93A1,1,0,0,0,15.28,22l4,6.92a1,1,0,0,0,1.36.37l1.62-.94A15.16,15.16,0,0,0,27,31.14V32H7c-.81,0-.44-.2-6.86,10.49A1,1,0,0,0,1,44H6V63a1,1,0,0,0,1,1H57a1,1,0,0,0,1-1V44h5A1,1,0,0,0,63.86,42.49Zm-35.57-13c-4.78-1.42-5-3.94-6.4-3.15l-1.38.8-3-5.2c1.38-.8,2.06-1,1.85-1.89a12.76,12.76,0,0,1,0-6c.21-.87-.47-1.1-1.85-1.89l3-5.2,1.38.8c1.36.78,1.65-1.74,6.4-3.15.85-.26.71-1,.71-2.55h6V3.59c0,1.56,2.29.54,5.92,4,.65.62,1.21.13,2.57-.66l3,5.2c-3,1.74-1.49.67-1.49,4.9s-1.53,3.16,1.49,4.9l-3,5.2-1.38-.8a1,1,0,0,0-1.19.14c-3.63,3.43-5.92,2.41-5.92,4V32H29C29,30.5,29.17,29.72,28.29,29.45ZM7.57,34H39.23l-4.8,8H2.77ZM8,44c29.31,0,27.44.21,27.86-.49L40,36.61V62H8ZM56,62H42V36.61C46.52,44.15,46.23,44,47,44h9ZM47.57,42l-4.8-8H56.43l4.8,8Z"/><path d="M17,54H11a1,1,0,0,0-1,1v4a1,1,0,0,0,1,1h6a1,1,0,0,0,1-1V55A1,1,0,0,0,17,54Zm-1,4H12V56h4Z"/></g></svg>