<svg xmlns="http://www.w3.org/2000/svg" viewBox="0 0 64 64"><title>Registration</title><g id="Registration"><path d="M61,54H60V18a4,4,0,0,0-4-4H51V1a1,1,0,0,0-1-1H14a1,1,0,0,0-1,1V14H8a4,4,0,0,0-4,4V54H3a3,3,0,0,0-3,3v2a5,5,0,0,0,5,5H59a5,5,0,0,0,5-5V57A3,3,0,0,0,61,54ZM10,50V20h3V50ZM15,8H49V50H15ZM51,20h3V50H51ZM15,2H49V6H15ZM6,18a2,2,0,0,1,2-2h5v2H9a1,1,0,0,0-1,1V51a1,1,0,0,0,1,1H55a1,1,0,0,0,1-1V19a1,1,0,0,0-1-1H51V16h5a2,2,0,0,1,2,2V54H6ZM40.13,56l-.67,1H24.54l-.67-1ZM62,59a3,3,0,0,1-3,3H5a3,3,0,0,1-3-3V57a1,1,0,0,1,1-1H21.46l1.71,2.55c.42.64-.41.45,16.83.45.69,0,.74-.3,2.54-3H61a1,1,0,0,1,1,1Z"/><path d="M18,3a1,1,0,0,0,0,2A1,1,0,0,0,18,3Z"/><path d="M22,3a1,1,0,0,0,0,2A1,1,0,0,0,22,3Z"/><path d="M26,3a1,1,0,0,0,0,2A1,1,0,0,0,26,3Z"/><path d="M24.79,29.29a10.63,10.63,0,0,0,3.68,2.12,11.07,11.07,0,0,0,8.88-.8C47.26,25.1,43.26,10,32,10A11,11,0,0,0,24.79,29.29Zm4.57-10.11v-.91a2.64,2.64,0,0,1,5.28,0v.91a2.64,2.64,0,0,1-5.28,0Zm7.72,9.24a9,9,0,0,1-10.16,0c-.3-.21-.26-.05,0-1a5.31,5.31,0,0,1,10.06,0C37.34,28.37,37.38,28.21,37.08,28.42ZM32,12a9,9,0,0,1,6.91,14.76,7.31,7.31,0,0,0-3.74-4.21,5.07,5.07,0,0,0,1.47-4.28,4.64,4.64,0,0,0-9.28,0c0,1.46,0,2.87,1.47,4.28a7.31,7.31,0,0,0-3.74,4.21A9,9,0,0,1,32,12Z"/><path d="M43,34H21a1,1,0,0,0-1,1v4a1,1,0,0,0,1,1H43a1,1,0,0,0,1-1V35A1,1,0,0,0,43,34Zm-1,4H22V36H42Z"/><path d="M43,42H21a1,1,0,0,0-1,1v4a1,1,0,0,0,1,1H43a1,1,0,0,0,1-1V43A1,1,0,0,0,43,42Zm-1,4H22V44H42Z"/></g></svg>