<svg xmlns="http://www.w3.org/2000/svg" viewBox="0 0 64 64"><title>Speed</title><g id="Speed"><path d="M63,0H1A1,1,0,0,0,0,1V52a1,1,0,0,0,1,1H8.32c1.53,4.52,6.16,11,7.82,11,34,0,31.8,0,32.09-.07.58-.24,5.28-4.51,7.45-10.93H63a1,1,0,0,0,1-1V1A1,1,0,0,0,63,0ZM2,2H62V8H2ZM47.53,28.05l-2.84,2.84A18.83,18.83,0,0,0,33,26.05V22A22.91,22.91,0,0,1,47.53,28.05ZM55,44H51a18.83,18.83,0,0,0-4.84-11.69L49,29.47A22.91,22.91,0,0,1,55,44ZM49,60.53,46.11,57.7A18.88,18.88,0,0,0,51,46h4A23,23,0,0,1,49,60.53ZM31,26.05a18.77,18.77,0,0,0-11.69,4.84l-2.84-2.84A22.91,22.91,0,0,1,31,22ZM15.05,29.47l2.84,2.83A18.88,18.88,0,0,0,13.05,44H9A22.91,22.91,0,0,1,15.05,29.47Zm0,31.06A23,23,0,0,1,9,46h4a18.88,18.88,0,0,0,4.84,11.7ZM16.52,62c-.1-.09-.31.21,3.46-3.56h0c1.63-1.63-5-3.82-5-13.44a17,17,0,0,1,34,0c0,8.9-5.6,11.42-5.23,13,0,.16,0,.08.16.34,0,.05,0,.1.09.14h0c3.77,3.77,3.56,3.47,3.46,3.56ZM56.26,51A25,25,0,0,0,14.37,27.29C9,32.08,5.44,41.71,7.74,51H2V10H62V51Z"/><path d="M6,4A1,1,0,0,0,6,6,1,1,0,0,0,6,4Z"/><path d="M11,4a1,1,0,0,0,0,2A1,1,0,0,0,11,4Z"/><path d="M16,4a1,1,0,0,0,0,2A1,1,0,0,0,16,4Z"/><path d="M32,48a3,3,0,0,0,3-3c0-3.07-1.94-11.84-2-12.22a1,1,0,0,0-2,0c-.08.38-2,9.15-2,12.22A3,3,0,0,0,32,48Zm0-10a49.7,49.7,0,0,1,1,7,1,1,0,0,1-2,0A49.7,49.7,0,0,1,32,38Z"/><path d="M38,53H26a1,1,0,0,0,0,2H38A1,1,0,0,0,38,53Z"/></g></svg>