<svg xmlns="http://www.w3.org/2000/svg" viewBox="0 0 64 64"><title>Target Audience</title><g id="Target_Audience" data-name="Target Audience"><path d="M61,29H59.83A28.13,28.13,0,0,0,35,4.17V3a3,3,0,0,0-6,0V4.17A28.13,28.13,0,0,0,4.17,29H3a3,3,0,0,0,0,6H4.17A28.13,28.13,0,0,0,29,59.83V61a3,3,0,0,0,6,0V59.83A28.13,28.13,0,0,0,59.83,35H61a3,3,0,0,0,0-6Zm-3.21,0h-2A23.87,23.87,0,0,0,35,8.21v-2A26.06,26.06,0,0,1,57.79,29ZM53,35h.77A21.85,21.85,0,0,1,35,53.77V53a3,3,0,0,0-6,0v.77A21.85,21.85,0,0,1,10.23,35H11a3,3,0,0,0,0-6h-.77A21.85,21.85,0,0,1,29,10.23V11a3,3,0,0,0,6,0v-.77A21.85,21.85,0,0,1,53.77,29H53a3,3,0,0,0,0,6ZM31,3a1,1,0,0,1,2,0v8a1,1,0,0,1-2,0ZM29,6.21v2A23.87,23.87,0,0,0,8.21,29h-2A26.06,26.06,0,0,1,29,6.21ZM3,31h8a1,1,0,0,1,0,2H3A1,1,0,0,1,3,31Zm3.21,4h2A23.87,23.87,0,0,0,29,55.79v2A26.06,26.06,0,0,1,6.21,35ZM33,61a1,1,0,0,1-2,0V53a1,1,0,0,1,2,0Zm2-3.21v-2A23.87,23.87,0,0,0,55.79,35h2A26.06,26.06,0,0,1,35,57.79ZM61,33H53a1,1,0,0,1,0-2h8A1,1,0,0,1,61,33Z"/><path d="M32,17c-13.94,0-20.29,17.42-9.72,26.43a15,15,0,0,0,19.44,0h0C52.29,34.42,45.94,17,32,17ZM24.1,42.31l.47-1.42a7.84,7.84,0,0,1,14.86,0l.47,1.41A13,13,0,0,1,24.1,42.31Zm3.81-12.86V28.18a4.09,4.09,0,0,1,8.18,0v1.27a4.09,4.09,0,1,1-8.18,0Zm13.61,11.4a9.9,9.9,0,0,0-5.81-6.58c2.38-1.84,2.38-4.08,2.38-6.09a6.09,6.09,0,0,0-12.18,0c0,2.12,0,4.26,2.38,6.09a9.91,9.91,0,0,0-5.81,6.58,13,13,0,1,1,19,0Z"/></g></svg>