<svg xmlns="http://www.w3.org/2000/svg" viewBox="0 0 64 64"><title>Teamwork</title><g id="Teamwork"><path d="M51,36a13,13,0,0,0-8,2.74c-1.73-1-.76-.1-1.09-2.86,4-2.33,3.86-1-.17-8a1,1,0,0,0-1.37-.36L37.93,29C35.8,27.38,36,28.35,36,27.35,50.13,22.79,46.61,2,32,2,20,2,14.4,17.08,23.57,24.9A13,13,0,0,0,28,27.35c0,1,.21,0-1.93,1.61l-2.46-1.42a1,1,0,0,0-1.37.36l-3,5.2a1,1,0,0,0,.37,1.36l2.46,1.42c-.34,2.86.67,1.85-1.09,2.86A13,13,0,0,0,4.57,58.9h0C16,67.47,28.76,56.7,25.48,45.38c1.09-.63,0-.33,2.52.78V49a1,1,0,0,0,1,1h6a1,1,0,0,0,1-1V46.16c2.45-1.07,1.44-1.4,2.52-.78C35,57.52,49.07,67.19,59.43,58.9,68.62,51,63,36,51,36ZM29,24c-.22,0-1,.08-1,1.24a10.33,10.33,0,0,1-2.6-1.46l.37-1.11a6.57,6.57,0,0,1,12.46,0l.37,1.11A10.34,10.34,0,0,1,36,25.24c0-1.15-.76-1.24-1-1.24Zm-.36-11.18V11.73a3.36,3.36,0,1,1,6.72,0v1.09a3.36,3.36,0,1,1-6.72,0ZM32,4a11,11,0,0,1,8.22,18.3,8.56,8.56,0,0,0-4.8-5.38c2-1.65,1.94-3.5,1.94-5.19a5.36,5.36,0,1,0-10.72,0c0,1.8,0,3.55,1.94,5.19a8.56,8.56,0,0,0-4.8,5.38A11,11,0,0,1,32,4ZM9.64,46.82V45.73a3.36,3.36,0,1,1,6.72,0v1.09a3.36,3.36,0,0,1-6.72,0ZM19.46,57.9a11,11,0,0,1-12.92,0c-.19-.14-.2,0,.23-1.23a6.57,6.57,0,0,1,12.46,0C19.65,57.94,19.67,57.75,19.46,57.9Zm1.76-1.6a8.54,8.54,0,0,0-4.8-5.38c2-1.65,1.94-3.5,1.94-5.19a5.36,5.36,0,1,0-10.72,0c0,1.8,0,3.55,1.94,5.19a8.53,8.53,0,0,0-4.8,5.38A11,11,0,0,1,19.24,39.94c-.35.67-.27.49,3,6.16a1,1,0,0,0,1.45.32A11,11,0,0,1,21.22,56.3Zm16-13.22c-2,1.69-3.19,1.21-3.19,2.4V48H30c0-2.23.22-3.15-.67-3.47-2.45-.86-2.65-2.15-3.67-1.56l-2.19,1.26-2-3.46c1.94-1.12,2.84-1.39,2.67-2.31-.77-4.17,1.75-2.68-2.67-5.23l2-3.46L25.66,31c1.05.6,1.16-.67,3.67-1.56.82-.29.67-.8.67-3.47h4v2.52c0,1.19,1.22.71,3.19,2.4.66.57,1,.18,3.34-1.15l2,3.46C38.92,35.31,40,34.41,40,37s-1.07,1.69,2.53,3.77l-2,3.46C38.59,43.12,37.91,42.47,37.19,43.08Zm10.45,3.74V45.73a3.36,3.36,0,1,1,6.72,0v1.09a3.36,3.36,0,0,1-6.72,0ZM57.46,57.9a11,11,0,0,1-12.92,0c-.19-.14-.2,0,.23-1.23a6.57,6.57,0,0,1,12.46,0C57.65,57.94,57.67,57.75,57.46,57.9Zm1.76-1.6a8.54,8.54,0,0,0-4.8-5.38c2-1.65,1.94-3.5,1.94-5.19a5.36,5.36,0,1,0-10.72,0c0,1.8,0,3.55,1.94,5.19a8.53,8.53,0,0,0-4.8,5.38,11,11,0,0,1-2.47-9.88,1,1,0,0,0,1.45-.32c3.34-5.79,3.35-5.5,3-6.16A11,11,0,0,1,59.22,56.3Z"/><path d="M32,33a4,4,0,1,0,4,4A4,4,0,0,0,32,33Zm0,6a2,2,0,1,1,2-2A2,2,0,0,1,32,39Z"/></g></svg>