<svg xmlns="http://www.w3.org/2000/svg" viewBox="0 0 64 64"><title>Time Management</title><g id="Time_Management" data-name="Time Management"><path d="M32,12A20,20,0,1,0,52,32,20,20,0,0,0,32,12Zm0,38A18,18,0,1,1,50,32,18,18,0,0,1,32,50Z"/><path d="M33,18V16a1,1,0,0,0-2,0v2A1,1,0,0,0,33,18Z"/><path d="M31,46v2a1,1,0,0,0,2,0V46A1,1,0,0,0,31,46Z"/><path d="M46,33h2a1,1,0,0,0,0-2H46A1,1,0,0,0,46,33Z"/><path d="M18,31H16a1,1,0,0,0,0,2h2A1,1,0,0,0,18,31Z"/><path d="M23.5,17.28a1,1,0,0,0,1,1.73A1,1,0,0,0,23.5,17.28Z"/><path d="M39.5,45a1,1,0,0,0,1,1.73A1,1,0,0,0,39.5,45Z"/><path d="M39.5,19a1,1,0,0,0,1-1.73A1,1,0,0,0,39.5,19Z"/><path d="M24.5,45a1,1,0,0,0-1,1.73A1,1,0,0,0,24.5,45Z"/><path d="M46.36,24.87a1,1,0,0,0-1-1.74A1,1,0,0,0,46.36,24.87Z"/><path d="M17.64,39.13a1,1,0,0,0,1,1.74A1,1,0,0,0,17.64,39.13Z"/><path d="M45.36,40.87a1,1,0,0,0,1-1.74A1,1,0,0,0,45.36,40.87Z"/><path d="M18.64,23.13a1,1,0,0,0-1,1.74A1,1,0,0,0,18.64,23.13Z"/><path d="M40,31c-8.52,0-5.4.21-7-.72V22a1,1,0,0,0-2,0c0,11,.25,7.34-.72,9H29a1,1,0,0,0,0,2h1.28a1.91,1.91,0,0,0,.72.72V35a1,1,0,0,0,2,0V33.72c1.63-.95-1.55-.72,7-.72A1,1,0,0,0,40,31Z"/><path d="M62.85,40.57,58.34,38a27.33,27.33,0,0,0,0-11.94l4.51-2.6a1,1,0,0,0,.36-1.37l-7-12.12a1,1,0,0,0-1.36-.37l-4.52,2.61A27.16,27.16,0,0,0,40,6.21V1a1,1,0,0,0-1-1H25a1,1,0,0,0-1,1V6.21a27.16,27.16,0,0,0-10.33,6L9.15,9.57a1,1,0,0,0-1.36.37l-7,12.12a1,1,0,0,0,.36,1.37L5.66,26A27.33,27.33,0,0,0,5.66,38l-4.51,2.6a1,1,0,0,0-.36,1.37l7,12.12a1,1,0,0,0,1.36.37l4.52-2.61a27.16,27.16,0,0,0,10.33,6V63a1,1,0,0,0,1,1H39a1,1,0,0,0,1-1V57.79a27.16,27.16,0,0,0,10.33-6l4.52,2.61a1,1,0,0,0,1.36-.37l7-12.12A1,1,0,0,0,62.85,40.57ZM55,52.2l-4.3-2.49a1,1,0,0,0-1.2.15,25.08,25.08,0,0,1-10.75,6.22A1,1,0,0,0,38,57v5H26V57a1,1,0,0,0-.73-1,25.08,25.08,0,0,1-10.75-6.22,1,1,0,0,0-1.2-.15L9,52.2,3,41.8l4.29-2.47a1,1,0,0,0,.47-1.12,25.11,25.11,0,0,1,0-12.42,1,1,0,0,0-.47-1.12L3,22.2,9,11.8l4.3,2.49a1,1,0,0,0,1.2-.15A25.08,25.08,0,0,1,25.27,7.92,1,1,0,0,0,26,7V2H38V7a1,1,0,0,0,.73,1,25.08,25.08,0,0,1,10.75,6.22,1,1,0,0,0,1.2.15L55,11.8l6,10.4c-7.43,4.29-4,1.09-4,9.8s-3.45,5.51,4,9.8Z"/></g></svg>