<svg xmlns="http://www.w3.org/2000/svg" viewBox="0 0 64 64"><title>User Security</title><g id="User_Security" data-name="User Security"><path d="M28,5a1,1,0,0,0,0-2A1,1,0,0,0,28,5Z"/><path d="M36,5a1,1,0,0,0,0-2A1,1,0,0,0,36,5Z"/><path d="M29.23,46.13c-.3.18-.23.21-.23-.13a1,1,0,0,0-2,0c0,.35.06.3-.23.13a1,1,0,0,0-1,1.74c.3.17.29.09,0,.26a1,1,0,0,0,1,1.74c.3-.18.23-.21.23.13a1,1,0,0,0,2,0c0-.35-.06-.3.23-.13a1,1,0,0,0,1-1.74c-.3-.17-.29-.09,0-.26A1,1,0,0,0,29.23,46.13Z"/><path d="M37.23,46.13c-.3.18-.23.21-.23-.13a1,1,0,0,0-2,0c0,.35.06.3-.23.13a1,1,0,0,0-1,1.74c.3.17.29.09,0,.26a1,1,0,0,0,1,1.74c.3-.18.23-.21.23.13a1,1,0,0,0,2,0c0-.35-.06-.3.23-.13a1,1,0,0,0,1-1.74c-.3-.17-.29-.09,0-.26A1,1,0,0,0,37.23,46.13Z"/><path d="M45.23,46.13c-.3.18-.23.21-.23-.13a1,1,0,0,0-2,0c0,.35.06.3-.23.13a1,1,0,0,0-1,1.74c.3.17.29.09,0,.26a1,1,0,0,0,1,1.74c.3-.18.23-.21.23.13a1,1,0,0,0,2,0c0-.35-.06-.3.23-.13a1,1,0,0,0,1-1.74c-.3-.17-.29-.09,0-.26A1,1,0,0,0,45.23,46.13Z"/><path d="M53.23,46.13c-.3.18-.23.21-.23-.13a1,1,0,0,0-2,0c0,.35.06.3-.23.13a1,1,0,0,0-1,1.74c.3.17.29.09,0,.26a1,1,0,0,0,1,1.74c.3-.18.23-.21.23.13a1,1,0,0,0,2,0c0-.35-.06-.3.23-.13a1,1,0,0,0,1-1.74c-.3-.17-.29-.09,0-.26A1,1,0,0,0,53.23,46.13Z"/><path d="M21.23,46.13c-.3.18-.23.21-.23-.13a1,1,0,0,0-2,0c0,.35.06.3-.23.13a1,1,0,0,0-1,1.74c.3.17.29.09,0,.26a1,1,0,0,0,1,1.74c.3-.18.23-.21.23.13a1,1,0,0,0,2,0c0-.35-.06-.3.23-.13a1,1,0,0,0,1-1.74c-.3-.17-.29-.09,0-.26A1,1,0,0,0,21.23,46.13Z"/><path d="M13.23,46.13c-.3.18-.23.21-.23-.13a1,1,0,0,0-2,0c0,.35.06.3-.23.13a1,1,0,0,0-1,1.74c.3.17.29.09,0,.26a1,1,0,0,0,1,1.74c.3-.18.23-.21.23.13a1,1,0,0,0,2,0c0-.35-.06-.3.23-.13a1,1,0,0,0,1-1.74c-.3-.17-.29-.09,0-.26A1,1,0,0,0,13.23,46.13Z"/><path d="M57,41H52V5a5,5,0,0,0-5-5H17a5,5,0,0,0-5,5V41H7a3,3,0,0,0-3,3v8a3,3,0,0,0,3,3h5v4a5,5,0,0,0,5,5H47a5,5,0,0,0,5-5V55h5a3,3,0,0,0,3-3V44A3,3,0,0,0,57,41ZM14,5a3,3,0,0,1,3-3H47a3,3,0,0,1,3,3V41H48V5a1,1,0,0,0-1-1H40a1,1,0,0,0-1,1,1,1,0,0,1-1,1c-13,0-12.29.13-12.71-.31A.93.93,0,0,1,25,5a1,1,0,0,0-1-1H17a1,1,0,0,0-1,1V41H14ZM35.5,41l-2.7-3.6a1,1,0,0,0-1.6,0L28.5,41H18V6h5.17A3,3,0,0,0,26,8H38a3,3,0,0,0,2.83-2H46V41ZM50,59a3,3,0,0,1-3,3H17a3,3,0,0,1-3-3V55h2v4a1,1,0,0,0,1,1H47a1,1,0,0,0,1-1V55h2Zm-4-4v3H18V55Zm12-3a1,1,0,0,1-1,1H7a1,1,0,0,1-1-1V44a1,1,0,0,1,1-1H29c.68,0,.72-.29,3-3.33C34.32,42.75,34.33,43,35,43H57a1,1,0,0,1,1,1Z"/><path d="M40,20H38V18a6,6,0,0,0-12,0v2H24a1,1,0,0,0-1,1V33a1,1,0,0,0,1,1H40a1,1,0,0,0,1-1V21A1,1,0,0,0,40,20ZM28,18a4,4,0,0,1,8,0v2H28ZM39,32H25V22H39Z"/><path d="M32,24a2,2,0,0,0-1,3.72V29a1,1,0,0,0,2,0V27.72A2,2,0,0,0,32,24Z"/></g></svg>