<svg xmlns="http://www.w3.org/2000/svg" viewBox="0 0 64 64"><title>User Experience</title><g id="User_Experience" data-name="User Experience"><path d="M29,4a1,1,0,0,0-2,0A1,1,0,0,0,29,4Z"/><path d="M37,4a1,1,0,0,0-2,0A1,1,0,0,0,37,4Z"/><path d="M63,12H52V5a5,5,0,0,0-5-5H17a5,5,0,0,0-5,5v7H4a1,1,0,0,0-1,1V31a1,1,0,0,0,1,1h8v8H1a1,1,0,0,0-1,1V53a1,1,0,0,0,1,1H12v5a5,5,0,0,0,5,5H47a5,5,0,0,0,5-5V54.59c10.67-3.05,10.58-18.16,0-21.16V28H63a1,1,0,0,0,1-1V13A1,1,0,0,0,63,12ZM14,5a3,3,0,0,1,3-3H47a3,3,0,0,1,3,3v7H48V5a1,1,0,0,0-1-1H40a1,1,0,0,0-1,1,1,1,0,0,1-1,1H26a1,1,0,0,1-1-1,1,1,0,0,0-1-1H17a1,1,0,0,0-1,1v7H14Zm21,7a1,1,0,0,0-1,1V27a1,1,0,0,0,1,1H46v5.43c-10.54,3-10.65,17.89-.22,21.09.31.09.22-.37.22,3.48H18V54H31a1,1,0,0,0,1-1V41a1,1,0,0,0-1-1H18V32h8a1,1,0,0,0,1-1V13a1,1,0,0,0-1-1H18V6h5.17A3,3,0,0,0,26,8H38a3,3,0,0,0,2.83-2H46v6ZM51.64,42.18a2.64,2.64,0,1,1-5.28,0v-.91a2.64,2.64,0,0,1,5.28,0ZM54,50.45l.27.8a8.93,8.93,0,0,1-10.61,0l.28-.81A5.31,5.31,0,0,1,54,50.45ZM5,14H25V30H5Zm9,18h2v8H14ZM2,42H30V52H2ZM47,62H17a3,3,0,0,1-3-3V54h2v5a1,1,0,0,0,1,1H47a1,1,0,0,0,1-1V55a9.55,9.55,0,0,0,2,0v4A3,3,0,0,1,47,62Zm8.91-12.24a7.23,7.23,0,0,0-3.73-4.22,5.09,5.09,0,0,0,1.46-4.27,4.64,4.64,0,0,0-9.28,0c0,1.46,0,2.86,1.46,4.27a7.2,7.2,0,0,0-3.73,4.22,9,9,0,1,1,13.82,0ZM50,33.05a9.55,9.55,0,0,0-2,0V28h2Zm12-7H36V14H62Z"/><path d="M22,48H6a1,1,0,0,0,0,2H22A1,1,0,0,0,22,48Z"/><path d="M6,46H26a1,1,0,0,0,0-2H6A1,1,0,0,0,6,46Z"/><path d="M14,27V21a1,1,0,0,0-2,0v6A1,1,0,0,0,14,27Z"/><path d="M8,25v2a1,1,0,0,0,2,0V25A1,1,0,0,0,8,25Z"/><path d="M18,27V22a1,1,0,0,0-2,0v5A1,1,0,0,0,18,27Z"/><path d="M22,27V17a1,1,0,0,0-2,0V27A1,1,0,0,0,22,27Z"/><path d="M42.29,16.29l-3,3a1,1,0,0,0,0,1.42l3,3a1,1,0,0,0,1.42-1.42L41.41,20l2.3-2.29A1,1,0,0,0,42.29,16.29Z"/><path d="M55.71,23.71l3-3a1,1,0,0,0,0-1.42l-3-3a1,1,0,0,0-1.42,1.42L56.59,20l-2.3,2.29A1,1,0,0,0,55.71,23.71Z"/><path d="M46.17,22.45A1,1,0,0,0,47,24c.73,0,.46.12,4.83-6.45a1,1,0,0,0-1.66-1.1Z"/></g></svg>