<svg xmlns="http://www.w3.org/2000/svg" viewBox="0 0 64 64"><title>User Interface</title><g id="User_Interface" data-name="User Interface"><path d="M61,54H60V18a4,4,0,0,0-4-4H51V1a1,1,0,0,0-1-1H14a1,1,0,0,0-1,1V14H8a4,4,0,0,0-4,4V54H3a3,3,0,0,0-3,3v2a5,5,0,0,0,5,5H59a5,5,0,0,0,5-5V57A3,3,0,0,0,61,54ZM10,50V20h3V50ZM15,8H49V50H15ZM51,20h3V50H51ZM15,2H49V6H15ZM6,18a2,2,0,0,1,2-2h5v2H9a1,1,0,0,0-1,1V51a1,1,0,0,0,1,1H55a1,1,0,0,0,1-1V19a1,1,0,0,0-1-1H51V16h5a2,2,0,0,1,2,2V54H6ZM40.13,56l-.67,1H24.54l-.67-1ZM62,59a3,3,0,0,1-3,3H5a3,3,0,0,1-3-3V57a1,1,0,0,1,1-1H21.46l1.71,2.55c.42.64-.41.45,16.83.45.69,0,.74-.3,2.54-3H61a1,1,0,0,1,1,1Z"/><path d="M18,3a1,1,0,0,0,0,2A1,1,0,0,0,18,3Z"/><path d="M22,3a1,1,0,0,0,0,2A1,1,0,0,0,22,3Z"/><path d="M26,3a1,1,0,0,0,0,2A1,1,0,0,0,26,3Z"/><path d="M45,10H19a1,1,0,0,0-1,1V21a1,1,0,0,0,1,1H45a1,1,0,0,0,1-1V11A1,1,0,0,0,45,10ZM44,20H20V12H44Z"/><path d="M32,32a4,4,0,1,0-4-4A4,4,0,0,0,32,32Zm0-6a2,2,0,1,1-2,2A2,2,0,0,1,32,26Z"/><path d="M42,24a4,4,0,1,0,4,4A4,4,0,0,0,42,24Zm0,6a2,2,0,1,1,2-2A2,2,0,0,1,42,30Z"/><path d="M22,32a4,4,0,1,0-4-4A4,4,0,0,0,22,32Zm0-6a2,2,0,1,1-2,2A2,2,0,0,1,22,26Z"/><path d="M19,36h6a1,1,0,0,0,0-2H19A1,1,0,0,0,19,36Z"/><path d="M19,40h6a1,1,0,0,0,0-2H19A1,1,0,0,0,19,40Z"/><path d="M29,36h6a1,1,0,0,0,0-2H29A1,1,0,0,0,29,36Z"/><path d="M29,40h6a1,1,0,0,0,0-2H29A1,1,0,0,0,29,40Z"/><path d="M45,34H39a1,1,0,0,0,0,2h6A1,1,0,0,0,45,34Z"/><path d="M45,38H39a1,1,0,0,0,0,2h6A1,1,0,0,0,45,38Z"/><path d="M45,42H19a1,1,0,0,0-1,1v4a1,1,0,0,0,1,1H45a1,1,0,0,0,1-1V43A1,1,0,0,0,45,42Zm-1,4H20V44H44Z"/></g></svg>