<svg xmlns="http://www.w3.org/2000/svg" viewBox="0 0 64 64"><title>Valuations</title><g id="Valuations"><path d="M61,54H60V18a4,4,0,0,0-4-4H49V8h2a1,1,0,0,0,.71-1.71l-6-6a1,1,0,0,0-1.42,0c-6.46,6.47-6.56,6.25-6.21,7.09S39,8,41,8v6H34.41l-1.7-1.71a1,1,0,0,0-1.42,0L29.59,14H8a4,4,0,0,0-4,4V54H3a3,3,0,0,0-3,3v2a5,5,0,0,0,5,5H59a5,5,0,0,0,5-5V57A3,3,0,0,0,61,54ZM49,20h5V50H49ZM45,2.41,48.59,6H48a1,1,0,0,0-1,1V50H43V7a1,1,0,0,0-1-1h-.59ZM36,50V20h5V50Zm5-34v2H38.41l-2-2Zm-9-1.59L35.59,18H35a1,1,0,0,0-1,1V50H30V19a1,1,0,0,0-1-1h-.59ZM23,50V32h2a1,1,0,0,0,.71-1.71l-6-6a1,1,0,0,0-1.42,0c-6.46,6.47-6.56,6.25-6.21,7.09S13,32,15,32V50H10V20H28V50ZM16,30h-.59L19,26.41,22.59,30H22a1,1,0,0,0-1,1V50H17V31A1,1,0,0,0,16,30ZM6,18a2,2,0,0,1,2-2H27.59l-2,2H9a1,1,0,0,0-1,1V51a1,1,0,0,0,1,1H55a1,1,0,0,0,1-1V19a1,1,0,0,0-1-1H49V16h7a2,2,0,0,1,2,2V54H6ZM40.13,56l-.67,1H24.54l-.67-1ZM62,59a3,3,0,0,1-3,3H5a3,3,0,0,1-3-3V57a1,1,0,0,1,1-1H21.46l1.71,2.55c.42.64-.41.45,16.83.45.69,0,.74-.3,2.54-3H61a1,1,0,0,1,1,1Z"/></g></svg>