<svg xmlns="http://www.w3.org/2000/svg" viewBox="0 0 64 64"><title>Warning</title><g id="Warning"><path d="M61,54H60V18a4,4,0,0,0-4-4H51V1a1,1,0,0,0-1-1H14a1,1,0,0,0-1,1V14H8a4,4,0,0,0-4,4V54H3a3,3,0,0,0-3,3v2a5,5,0,0,0,5,5H59a5,5,0,0,0,5-5V57A3,3,0,0,0,61,54ZM10,50V20h3V50ZM15,8H49V50H15ZM51,20h3V50H51ZM15,2H49V6H15ZM6,18a2,2,0,0,1,2-2h5v2H9a1,1,0,0,0-1,1V51a1,1,0,0,0,1,1H55a1,1,0,0,0,1-1V19a1,1,0,0,0-1-1H51V16h5a2,2,0,0,1,2,2V54H6ZM40.13,56l-.67,1H24.54l-.67-1ZM62,59a3,3,0,0,1-3,3H5a3,3,0,0,1-3-3V57a1,1,0,0,1,1-1H21.46l1.71,2.55c.42.64-.45.45,16.83.45.69,0,.74-.31,2.54-3H61a1,1,0,0,1,1,1Z"/><path d="M18,3a1,1,0,0,0,0,2A1,1,0,0,0,18,3Z"/><path d="M22,3a1,1,0,0,0,0,2A1,1,0,0,0,22,3Z"/><path d="M26,3a1,1,0,0,0,0,2A1,1,0,0,0,26,3Z"/><path d="M34.37,18.33a2.78,2.78,0,0,0-4.74,0C17.48,38.27,18,37.09,18,38.2A2.8,2.8,0,0,0,20.8,41H43.2a2.8,2.8,0,0,0,2.39-4.25ZM43.2,39H20.8a.8.8,0,0,1-.8-.8c0-.33-.65.84,11.33-18.83a.79.79,0,0,1,1.34,0C44.65,39.05,44,37.87,44,38.2A.8.8,0,0,1,43.2,39Z"/><path d="M31,25v8a1,1,0,0,0,2,0V25A1,1,0,0,0,31,25Z"/><path d="M32,35a1,1,0,0,0,0,2A1,1,0,0,0,32,35Z"/></g></svg>