<svg xmlns="http://www.w3.org/2000/svg" viewBox="0 0 64 64"><title>Website</title><g id="Website"><path d="M60,0H4A1,1,0,0,0,3,1V63a1,1,0,0,0,1,1H60a1,1,0,0,0,1-1V1A1,1,0,0,0,60,0ZM5,2H59V8H5ZM5,62V10H59V62Z"/><path d="M8,5a1,1,0,0,0,2,0A1,1,0,0,0,8,5Z"/><path d="M13,5a1,1,0,0,0,2,0A1,1,0,0,0,13,5Z"/><path d="M18,5a1,1,0,0,0,2,0A1,1,0,0,0,18,5Z"/><path d="M55,13H9a1,1,0,0,0-1,1V29a1,1,0,0,0,1,1H55a1,1,0,0,0,1-1V14A1,1,0,0,0,55,13ZM54,28H10V15H54Z"/><path d="M9,46H21a1,1,0,0,0,0-2H9A1,1,0,0,0,9,46Z"/><path d="M9,50H21a1,1,0,0,0,0-2H9A1,1,0,0,0,9,50Z"/><path d="M26,46H38a1,1,0,0,0,0-2H26A1,1,0,0,0,26,46Z"/><path d="M26,50H38a1,1,0,0,0,0-2H26A1,1,0,0,0,26,50Z"/><path d="M55,44H43a1,1,0,0,0,0,2H55A1,1,0,0,0,55,44Z"/><path d="M55,48H43a1,1,0,0,0,0,2H55A1,1,0,0,0,55,48Z"/><path d="M55,57H9a1,1,0,0,0,0,2H55A1,1,0,0,0,55,57Z"/><path d="M55,53H9a1,1,0,0,0,0,2H55A1,1,0,0,0,55,53Z"/><path d="M9,41H21a1,1,0,0,0,1-1V34a1,1,0,0,0-1-1H9a1,1,0,0,0-1,1v6A1,1,0,0,0,9,41Zm1-6H20v4H10Z"/><path d="M26,41H38a1,1,0,0,0,1-1V34a1,1,0,0,0-1-1H26a1,1,0,0,0-1,1v6A1,1,0,0,0,26,41Zm1-6H37v4H27Z"/><path d="M55,33H43a1,1,0,0,0-1,1v6a1,1,0,0,0,1,1H55a1,1,0,0,0,1-1V34A1,1,0,0,0,55,33Zm-1,6H44V35H54Z"/></g></svg>