<svg xmlns="http://www.w3.org/2000/svg" xmlns:xlink="http://www.w3.org/1999/xlink" viewBox="0 0 64 64"><defs><style>.cls-1{fill:url(#linear-gradient);}.cls-2{fill:#f6b756;}.cls-3{opacity:0.9;fill:url(#linear-gradient-2);}.cls-4{fill:#f2a961;}.cls-5{fill:url(#linear-gradient-3);}.cls-6{fill:url(#linear-gradient-4);}.cls-7{fill:url(#linear-gradient-5);}.cls-8{fill:url(#linear-gradient-6);}.cls-9{fill:url(#linear-gradient-7);}.cls-10{fill:url(#linear-gradient-8);}.cls-11{fill:url(#linear-gradient-9);}.cls-12{fill:url(#linear-gradient-10);}.cls-13{fill:url(#linear-gradient-11);}.cls-14{fill:url(#linear-gradient-12);}.cls-15{fill:url(#linear-gradient-13);}.cls-16{fill:url(#linear-gradient-14);}.cls-17{fill:#5b8dc9;}</style><linearGradient id="linear-gradient" x1="32" y1="44" x2="32" y2="20" gradientUnits="userSpaceOnUse"><stop offset="0" stop-color="#fbcc88"/><stop offset="1" stop-color="#ffe5c3"/></linearGradient><linearGradient id="linear-gradient-2" x1="32" y1="41" x2="32" y2="23" gradientUnits="userSpaceOnUse"><stop offset="0" stop-color="#e9a254"/><stop offset="1" stop-color="#f4bb79"/></linearGradient><linearGradient id="linear-gradient-3" x1="11" y1="21" x2="11" y2="1" xlink:href="#linear-gradient"/><linearGradient id="linear-gradient-4" x1="11" y1="63" x2="11" y2="43" xlink:href="#linear-gradient"/><linearGradient id="linear-gradient-5" x1="53" y1="63" x2="53" y2="43" xlink:href="#linear-gradient"/><linearGradient id="linear-gradient-6" x1="11" y1="12.82" x2="11" y2="4.64" gradientUnits="userSpaceOnUse"><stop offset="0" stop-color="#7aa8d7"/><stop offset="1" stop-color="#c3d2e7"/></linearGradient><linearGradient id="linear-gradient-7" x1="11" y1="21" x2="11" y2="12.83" xlink:href="#linear-gradient-6"/><linearGradient id="linear-gradient-8" x1="53" y1="54.82" x2="53" y2="46.64" xlink:href="#linear-gradient-6"/><linearGradient id="linear-gradient-9" x1="53" y1="63" x2="53" y2="54.83" xlink:href="#linear-gradient-6"/><linearGradient id="linear-gradient-10" x1="53" y1="21" x2="53" y2="1" xlink:href="#linear-gradient"/><linearGradient id="linear-gradient-11" x1="53" y1="12.82" x2="53" y2="4.64" xlink:href="#linear-gradient-6"/><linearGradient id="linear-gradient-12" x1="53" y1="21" x2="53" y2="12.83" xlink:href="#linear-gradient-6"/><linearGradient id="linear-gradient-13" x1="11" y1="54.82" x2="11" y2="46.64" xlink:href="#linear-gradient-6"/><linearGradient id="linear-gradient-14" x1="11" y1="62.99" x2="11" y2="54.82" xlink:href="#linear-gradient-6"/></defs><title>Affiliate</title><g id="Affiliate"><circle class="cls-1" cx="32" cy="32" r="12"/><path class="cls-2" d="M32,44A12,12,0,0,1,20,31,12,12,0,0,0,44,31,12,12,0,0,1,32,44Z"/><circle class="cls-3" cx="32" cy="32" r="9"/><path class="cls-4" d="M40.94,33a9,9,0,0,0-17.88,0,9,9,0,1,1,17.88,0Z"/><circle class="cls-5" cx="11" cy="11" r="10"/><circle class="cls-6" cx="11" cy="53" r="10"/><circle class="cls-7" cx="53" cy="53" r="10"/><path class="cls-8" d="M11,12.82A3.64,3.64,0,0,1,7.36,9.18V8.27a3.64,3.64,0,0,1,7.28,0v.91A3.64,3.64,0,0,1,11,12.82Z"/><path class="cls-9" d="M17.48,18.62a10,10,0,0,1-13,0L5,17.13a6.31,6.31,0,0,1,12,0Z"/><path class="cls-10" d="M53,54.82a3.64,3.64,0,0,1-3.64-3.64v-.91a3.64,3.64,0,0,1,7.28,0v.91A3.64,3.64,0,0,1,53,54.82Z"/><path class="cls-11" d="M59.48,60.62a10,10,0,0,1-13,0l.5-1.49a6.31,6.31,0,0,1,12,0Z"/><circle class="cls-12" cx="53" cy="11" r="10"/><path class="cls-13" d="M53,12.82a3.64,3.64,0,0,1-3.64-3.64V8.27a3.64,3.64,0,0,1,7.28,0v.91A3.64,3.64,0,0,1,53,12.82Z"/><path class="cls-14" d="M59.48,18.62a10,10,0,0,1-13,0l.5-1.49a6.31,6.31,0,0,1,12,0Z"/><path class="cls-15" d="M11,54.82a3.64,3.64,0,0,1-3.64-3.64v-.91a3.64,3.64,0,0,1,7.28,0v.91A3.64,3.64,0,0,1,11,54.82Z"/><path class="cls-16" d="M17.48,60.61a10,10,0,0,1-13,0,17.8,17.8,0,0,1,.86-2.34,6.31,6.31,0,0,1,11.24,0A16.38,16.38,0,0,1,17.48,60.61Z"/><path class="cls-2" d="M5.38,58.27a16.38,16.38,0,0,0-.86,2.34,9.94,9.94,0,0,1-3.4-9.09A10,10,0,0,0,5.38,58.27Z"/><path class="cls-2" d="M17.48,60.61a17.8,17.8,0,0,0-.86-2.34,10,10,0,0,0,4.26-6.75A9.92,9.92,0,0,1,17.48,60.61Z"/><path class="cls-17" d="M17.48,60.61a10,10,0,0,1-13,0,17.8,17.8,0,0,1,.86-2.34,10,10,0,0,0,11.24,0A16.38,16.38,0,0,1,17.48,60.61Z"/><path class="cls-2" d="M47.38,58.27a16.38,16.38,0,0,0-.86,2.34,9.94,9.94,0,0,1-3.4-9.09A10,10,0,0,0,47.38,58.27Z"/><path class="cls-2" d="M59.48,60.61a17.8,17.8,0,0,0-.86-2.34,10,10,0,0,0,4.26-6.75A9.92,9.92,0,0,1,59.48,60.61Z"/><path class="cls-17" d="M59.48,60.61a10,10,0,0,1-13,0,17.8,17.8,0,0,1,.86-2.34,10,10,0,0,0,11.24,0A16.38,16.38,0,0,1,59.48,60.61Z"/><path class="cls-2" d="M5.38,16.27a16.38,16.38,0,0,0-.86,2.34,9.94,9.94,0,0,1-3.4-9.09A10,10,0,0,0,5.38,16.27Z"/><path class="cls-2" d="M17.48,18.61a17.8,17.8,0,0,0-.86-2.34,10,10,0,0,0,4.26-6.75A9.92,9.92,0,0,1,17.48,18.61Z"/><path class="cls-17" d="M17.48,18.61a10,10,0,0,1-13,0,17.8,17.8,0,0,1,.86-2.34,10,10,0,0,0,11.24,0A16.38,16.38,0,0,1,17.48,18.61Z"/><path class="cls-2" d="M47.38,16.27a16.38,16.38,0,0,0-.86,2.34,9.94,9.94,0,0,1-3.4-9.09A10,10,0,0,0,47.38,16.27Z"/><path class="cls-2" d="M59.48,18.61a17.8,17.8,0,0,0-.86-2.34,10,10,0,0,0,4.26-6.75A9.92,9.92,0,0,1,59.48,18.61Z"/><path class="cls-17" d="M59.48,18.61a10,10,0,0,1-13,0,17.8,17.8,0,0,1,.86-2.34,10,10,0,0,0,11.24,0A16.38,16.38,0,0,1,59.48,18.61Z"/><path d="M58.59,43.55a28.86,28.86,0,0,0,0-23.08C68.26,14.76,64.09,0,53,0a11,11,0,0,0-9.45,5.41,28.87,28.87,0,0,0-23.1,0A11,11,0,0,0,11,0C-.1,0-4.24,14.77,5.4,20.47a28.86,28.86,0,0,0,0,23.08,11,11,0,1,0,15,15,28.87,28.87,0,0,0,23.1,0C49.22,68.15,64,64.16,64,53A11,11,0,0,0,58.59,43.55ZM47.7,18.25l.27-.81a5.31,5.31,0,0,1,10.06,0l.27.8A8.92,8.92,0,0,1,47.7,18.25Zm2.66-9.07V8.27a2.64,2.64,0,0,1,5.28,0v.91a2.64,2.64,0,0,1-5.28,0ZM53,2a9,9,0,0,1,6.91,14.76,7.28,7.28,0,0,0-3.74-4.21,5.07,5.07,0,0,0,1.47-4.28,4.64,4.64,0,0,0-9.28,0c0,1.46,0,2.87,1.47,4.28a7.31,7.31,0,0,0-3.74,4.21A9,9,0,0,1,53,2ZM11,2a9,9,0,0,1,6.91,14.75,7.29,7.29,0,0,0-3.74-4.2,5.07,5.07,0,0,0,1.47-4.28,4.64,4.64,0,0,0-9.28,0c0,1.46,0,2.87,1.47,4.28a7.29,7.29,0,0,0-3.74,4.2A9,9,0,0,1,11,2ZM5.69,18.26,6,17.44a5.31,5.31,0,0,1,10.06,0l.28.81A9,9,0,0,1,5.69,18.26ZM8.36,9.18V8.27a2.64,2.64,0,0,1,5.28,0v.91a2.64,2.64,0,0,1-5.28,0Zm0,42v-.91a2.64,2.64,0,0,1,5.28,0v.91a2.64,2.64,0,0,1-5.28,0ZM5.7,60.25,6,59.44a5.31,5.31,0,0,1,10.06,0l.27.8A8.91,8.91,0,0,1,5.7,60.25Zm12.21-1.49a7.28,7.28,0,0,0-3.74-4.21,5.07,5.07,0,0,0,1.47-4.28,4.64,4.64,0,0,0-9.28,0c0,1.46,0,2.87,1.47,4.28a7.31,7.31,0,0,0-3.74,4.21,9,9,0,1,1,13.82,0Zm3.4-2a11,11,0,0,0-14.1-14.1,26.91,26.91,0,0,1,0-21.37A11,11,0,0,0,21.31,7.21a26.93,26.93,0,0,1,21.38,0,11,11,0,0,0,14.1,14.11,26.91,26.91,0,0,1,0,21.37,11,11,0,0,0-14.1,14.1A26.93,26.93,0,0,1,21.31,56.79Zm29.05-5.61v-.91a2.64,2.64,0,0,1,5.28,0v.91a2.64,2.64,0,1,1-5.28,0ZM47.7,60.25l.27-.81a5.31,5.31,0,0,1,10.06,0l.27.8A8.91,8.91,0,0,1,47.7,60.25Zm12.21-1.49a7.28,7.28,0,0,0-3.74-4.21,5.07,5.07,0,0,0,1.47-4.28,4.64,4.64,0,0,0-9.28,0c0,1.46,0,2.87,1.47,4.28a7.31,7.31,0,0,0-3.74,4.21,9,9,0,1,1,13.82,0Z"/><path d="M32,19A13,13,0,1,0,45,32,13,13,0,0,0,32,19Zm0,24A11,11,0,1,1,43,32,11,11,0,0,1,32,43Z"/><path d="M31,29h4a1,1,0,0,0,0-2H33V26a1,1,0,0,0-2,0v1a3,3,0,0,0,0,6h2a1,1,0,0,1,0,2H29a1,1,0,0,0,0,2h2v1a1,1,0,0,0,2,0V37a3,3,0,0,0,0-6H31A1,1,0,0,1,31,29Z"/></g></svg>