<svg xmlns="http://www.w3.org/2000/svg" xmlns:xlink="http://www.w3.org/1999/xlink" viewBox="0 0 64 64"><defs><style>.cls-1{fill:url(#linear-gradient);}.cls-2{fill:#575f7c;}.cls-3{fill:url(#linear-gradient-2);}.cls-4{fill:url(#linear-gradient-3);}.cls-5{fill:url(#linear-gradient-4);}.cls-6{fill:#8288a1;}.cls-7{fill:url(#linear-gradient-5);}.cls-8{fill:#77cacb;}.cls-9{fill:url(#linear-gradient-6);}.cls-10{fill:url(#linear-gradient-7);}.cls-11{fill:#42455e;}.cls-12{fill:url(#linear-gradient-8);}.cls-13{fill:url(#linear-gradient-9);}.cls-14{fill:#f2a961;}</style><linearGradient id="linear-gradient" x1="32" y1="51.32" x2="32" y2="39" gradientUnits="userSpaceOnUse"><stop offset="0" stop-color="#474f72"/><stop offset="1" stop-color="#878c9f"/></linearGradient><linearGradient id="linear-gradient-2" x1="13" y1="63" x2="13" y2="39" gradientUnits="userSpaceOnUse"><stop offset="0" stop-color="#a0a6ba"/><stop offset="1" stop-color="#c6ccda"/></linearGradient><linearGradient id="linear-gradient-3" x1="13" y1="59" x2="13" y2="43" gradientUnits="userSpaceOnUse"><stop offset="0" stop-color="#9dd5df"/><stop offset="1" stop-color="#c3e1f5"/></linearGradient><linearGradient id="linear-gradient-4" x1="51" x2="51" xlink:href="#linear-gradient-2"/><linearGradient id="linear-gradient-5" x1="51" x2="51" xlink:href="#linear-gradient-3"/><linearGradient id="linear-gradient-6" x1="32" y1="50" x2="32" y2="40" xlink:href="#linear-gradient-2"/><linearGradient id="linear-gradient-7" y1="33" y2="1" xlink:href="#linear-gradient"/><linearGradient id="linear-gradient-8" x1="18.2" y1="16" x2="18.2" y2="13.58" xlink:href="#linear-gradient"/><linearGradient id="linear-gradient-9" x1="32" y1="27" x2="32" y2="7" gradientUnits="userSpaceOnUse"><stop offset="0" stop-color="#e9a254"/><stop offset="1" stop-color="#f4bb79"/></linearGradient></defs><title>Binocular</title><g id="Binocular"><path class="cls-1" d="M51,39,39,51.32,36,48.07h-7.9L25,51.32,13,39H27a3,3,0,0,1,2.65,1.59h4.7A3,3,0,0,1,37,39Z"/><path class="cls-2" d="M26.89,49.3l-1.9,2L13,39h7.21A14,14,0,0,1,26.89,49.3Z"/><circle class="cls-3" cx="13" cy="51" r="12"/><circle class="cls-4" cx="13" cy="51" r="8"/><path class="cls-2" d="M51,39,39,51.32l-1.9-2A14,14,0,0,1,43.79,39Z"/><circle class="cls-5" cx="51" cy="51" r="12"/><path class="cls-6" d="M13,63A12,12,0,0,1,1,50,12,12,0,0,0,25,50,12,12,0,0,1,13,63Z"/><path class="cls-6" d="M51,63A12,12,0,0,1,39,50,12,12,0,0,0,63,50,12,12,0,0,1,51,63Z"/><circle class="cls-7" cx="51" cy="51" r="8"/><path class="cls-8" d="M20.94,52A8,8,0,0,0,5.06,52a8,8,0,1,1,15.88,0Z"/><path class="cls-8" d="M58.94,52a8,8,0,0,0-15.88,0,8,8,0,1,1,15.88,0Z"/><circle class="cls-9" cx="32" cy="45" r="5"/><path class="cls-6" d="M32,50a5,5,0,0,1-4.9-6,5,5,0,0,0,9.8,0A5,5,0,0,1,32,50Z"/><path class="cls-10" d="M45.61,13.76l2.25-1.3-4-6.92L41.61,6.83A14,14,0,0,0,36,3.59V1H28V3.59a14,14,0,0,0-5.61,3.24L20.14,5.54l-4,6.92,2.25,1.3a13.65,13.65,0,0,0,0,6.48l-2.25,1.3,4,6.92,2.25-1.29A14,14,0,0,0,28,30.41V33h8V30.41a14,14,0,0,0,5.61-3.24l2.25,1.29,4-6.92-2.25-1.3A13.65,13.65,0,0,0,45.61,13.76Z"/><path class="cls-11" d="M45.61,20.24l2.25,1.3-4,6.92-2.25-1.29A14,14,0,0,1,36,30.41V33H28V30.41a14,14,0,0,1-5.61-3.24l-2.25,1.29-4-6.92,2.25-1.3A13.73,13.73,0,0,1,18,16,14,14,0,0,0,46,16,13.41,13.41,0,0,1,45.61,20.24Z"/><path class="cls-12" d="M18.08,13.58c.63.37.13-.19,0,2.42A12.51,12.51,0,0,1,18.08,13.58Z"/><circle class="cls-13" cx="32" cy="17" r="10"/><circle class="cls-13" cx="32" cy="17" r="10"/><path class="cls-14" d="M42,18a10,10,0,0,0-19.9,0A10,10,0,1,1,42,18Z"/><path d="M13,42a9,9,0,1,0,9,9A9,9,0,0,0,13,42Zm0,16a7,7,0,1,1,7-7A7,7,0,0,1,13,58Z"/><path d="M51,38H37a4,4,0,0,0-3,1.35,6,6,0,0,0-4,0A4,4,0,0,0,27,38H13A13,13,0,1,0,26,51.75l2.1-2.23a6,6,0,0,0,7.88,0L38,51.75A13,13,0,1,0,51,38Zm-6.9,2a13,13,0,0,0-5.93,9l-1-1a6,6,0,0,0-1.39-7.57C36.63,39.82,36.74,40,44.1,40Zm-15.93.39A6,6,0,0,0,26.78,48l-1,1a13,13,0,0,0-5.93-9C27.69,40,27.44,39.87,28.17,40.39ZM13,62A11,11,0,1,1,24,51,11,11,0,0,1,13,62ZM32,49a4,4,0,1,1,4-4A4,4,0,0,1,32,49ZM51,62A11,11,0,1,1,62,51,11,11,0,0,1,51,62Z"/><path d="M51,42a9,9,0,1,0,9,9A9,9,0,0,0,51,42Zm0,16a7,7,0,1,1,7-7A7,7,0,0,1,51,58Z"/><circle cx="32" cy="45" r="2"/><path d="M32,28A11,11,0,1,0,21,17,11,11,0,0,0,32,28ZM32,8a9,9,0,1,1-9,9A9,9,0,0,1,32,8Z"/><path d="M33,20H29a1,1,0,0,0,0,2h2v1a1,1,0,0,0,2,0V22a3,3,0,0,0,0-6H31a1,1,0,0,1,0-2h4a1,1,0,0,0,0-2H33V11a1,1,0,0,0-2,0v1a3,3,0,0,0,0,6h2A1,1,0,0,1,33,20Z"/><path d="M19.28,29a1,1,0,0,0,1.36.37l1.62-.94A15.16,15.16,0,0,0,27,31.14V33a1,1,0,0,0,1,1h8a1,1,0,0,0,1-1V31.14a15.16,15.16,0,0,0,4.74-2.75l1.62.94A1,1,0,0,0,44.72,29l4-6.92a1,1,0,0,0-.36-1.37l-1.62-.93a14.43,14.43,0,0,0,0-5.48l1.62-.93A1,1,0,0,0,48.72,12L44.72,5a1,1,0,0,0-1.36-.37l-1.62.94A15.16,15.16,0,0,0,37,2.86V1a1,1,0,0,0-1-1H28a1,1,0,0,0-1,1V2.86a15.16,15.16,0,0,0-4.74,2.75l-1.62-.94A1,1,0,0,0,19.28,5c-4.92,8.52-5.23,7.37-2,9.22a14.43,14.43,0,0,0,0,5.48C14.15,21.53,14.28,20.31,19.28,29ZM19.36,20a12.76,12.76,0,0,1,0-6c.21-.87-.47-1.1-1.85-1.89l3-5.2,1.38.8c1.36.78,1.65-1.74,6.4-3.15.85-.26.71-1,.71-2.55h6V3.59c0,1.56,2.29.54,5.92,4,.65.62,1.19.14,2.57-.66l3,5.2c-3,1.74-1.49.66-1.49,4.9s-1.53,3.16,1.49,4.9l-3,5.2-1.38-.8a1,1,0,0,0-1.19.14c-3.62,3.42-5.92,2.41-5.92,4V32H29c0-1.5.17-2.28-.71-2.55-4.78-1.42-5-3.94-6.4-3.15l-1.38.8-3-5.2C18.89,21.1,19.57,20.88,19.36,20Z"/></g></svg>