<svg xmlns="http://www.w3.org/2000/svg" xmlns:xlink="http://www.w3.org/1999/xlink" viewBox="0 0 64 64"><defs><style>.cls-1{fill:url(#linear-gradient);}.cls-2{fill:url(#linear-gradient-2);}.cls-3{fill:#5b8dc9;}.cls-4{fill:url(#linear-gradient-3);}.cls-5{fill:url(#linear-gradient-4);}.cls-6{fill:url(#linear-gradient-5);}.cls-7{fill:url(#linear-gradient-6);}.cls-8{fill:#42455e;}.cls-9{fill:url(#linear-gradient-7);}.cls-10{fill:url(#linear-gradient-8);}.cls-11{fill:url(#linear-gradient-9);}.cls-12{fill:url(#linear-gradient-10);}</style><linearGradient id="linear-gradient" x1="1" y1="28.99" x2="11" y2="28.99" gradientUnits="userSpaceOnUse"><stop offset="0" stop-color="#7aa8d7"/><stop offset="1" stop-color="#c3d2e7"/></linearGradient><linearGradient id="linear-gradient-2" y1="38" x2="63" y2="38" xlink:href="#linear-gradient"/><linearGradient id="linear-gradient-3" x1="40" y1="7" x2="40" y2="1" gradientUnits="userSpaceOnUse"><stop offset="0" stop-color="#e9a254"/><stop offset="1" stop-color="#f4bb79"/></linearGradient><linearGradient id="linear-gradient-4" x1="54" y1="7" x2="54" y2="1" gradientUnits="userSpaceOnUse"><stop offset="0" stop-color="#a0a6ba"/><stop offset="1" stop-color="#c6ccda"/></linearGradient><linearGradient id="linear-gradient-5" x1="59.5" y1="7" x2="59.5" y2="1" gradientUnits="userSpaceOnUse"><stop offset="0" stop-color="#d96bb0"/><stop offset="1" stop-color="#e49fc6"/></linearGradient><linearGradient id="linear-gradient-6" x1="17" y1="4" x2="24" y2="4" gradientUnits="userSpaceOnUse"><stop offset="0" stop-color="#f2c4b0"/><stop offset="1" stop-color="#ffe3d7"/></linearGradient><linearGradient id="linear-gradient-7" x1="24" y1="28" x2="24" y2="20" gradientUnits="userSpaceOnUse"><stop offset="0" stop-color="#fbcc88"/><stop offset="1" stop-color="#ffe5c3"/></linearGradient><linearGradient id="linear-gradient-8" x1="50" x2="50" xlink:href="#linear-gradient-7"/><linearGradient id="linear-gradient-9" x1="50" y1="42" x2="50" y2="34" xlink:href="#linear-gradient-7"/><linearGradient id="linear-gradient-10" x1="50" y1="56" x2="50" y2="48" xlink:href="#linear-gradient-7"/></defs><title>Blue Print</title><g id="Blue_Print" data-name="Blue Print"><path class="cls-1" d="M11,1V51H7a6,6,0,0,0-6,6V7A5.94,5.94,0,0,1,2.76,2.76C4.88.62,7,1,11,1Z"/><path class="cls-2" d="M63,13V63H7A6,6,0,0,1,2.76,52.76C4.88,50.62,7,51,11,51V13Z"/><path class="cls-3" d="M63,61v2H7a6,6,0,0,1-5.91-7A6,6,0,0,0,7,61Z"/><path class="cls-3" d="M11,49v2H7a6,6,0,0,0-5.91,5,5.94,5.94,0,0,1,1.67-5.24C4.88,48.62,7,49,11,49Z"/><path class="cls-4" d="M63,3V5a2,2,0,0,1-2,2H23L17,4l6-3H61A2,2,0,0,1,63,3Z"/><rect class="cls-5" x="52" y="1" width="4" height="6"/><path class="cls-6" d="M63,3V5a2,2,0,0,1-2,2H56V1h5A2,2,0,0,1,63,3Z"/><path class="cls-7" d="M23.27,7c-.39,0,.39.33-6.27-3,6.65-3.33,5.88-3,6.27-3A6.55,6.55,0,0,1,23.27,7Z"/><path class="cls-8" d="M19.84,5.42,17,4l2.84-1.42A6.33,6.33,0,0,1,19.84,5.42Z"/><rect class="cls-9" x="17" y="20" width="14" height="8"/><rect class="cls-10" x="43" y="20" width="14" height="8"/><rect class="cls-11" x="43" y="34" width="14" height="8"/><rect class="cls-12" x="43" y="48" width="14" height="8"/><path d="M63,12H12V1a1,1,0,0,0-1-1H7A7,7,0,0,0,0,7V57a7,7,0,0,0,7,7H63a1,1,0,0,0,1-1V13A1,1,0,0,0,63,12ZM2,7A5,5,0,0,1,7,2h3V50c-3.27,0-5.59-.34-8,2.11ZM62,62H7a5,5,0,0,1-3.53-8.54C6.58,50.32,12,53.46,12,51V14H62Z"/><path d="M61,0H23c-.32,0-.12-.06-3.61,1.69C16.54,3.11,16,3.17,16,4s.53.88,3.39,2.31C22.9,8.07,22.68,8,23,8H61a3,3,0,0,0,3-3V3A3,3,0,0,0,61,0ZM51,2V6H24.72a7.34,7.34,0,0,0,0-4ZM21,4.86a7.07,7.07,0,0,0,0-1.72l1.77-.88a5.52,5.52,0,0,1,0,3.48ZM53,2h2V6H53Zm9,3a1,1,0,0,1-1,1H57V2h4a1,1,0,0,1,1,1Z"/><path d="M17,29h6v9a1,1,0,0,0,1,1H36V52a1,1,0,0,0,1,1h5v3a1,1,0,0,0,1,1H57a1,1,0,0,0,1-1V48a1,1,0,0,0-1-1H43a1,1,0,0,0-1,1v3H38V39h4v3a1,1,0,0,0,1,1H57a1,1,0,0,0,1-1V34a1,1,0,0,0-1-1H43a1,1,0,0,0-1,1v3H38V25h4v3a1,1,0,0,0,1,1H57a1,1,0,0,0,1-1V20a1,1,0,0,0-1-1H43a1,1,0,0,0-1,1v3H37a1,1,0,0,0-1,1V37H25V29h6a1,1,0,0,0,1-1V20a1,1,0,0,0-1-1H17a1,1,0,0,0-1,1v8A1,1,0,0,0,17,29ZM44,49H56v6H44Zm0-14H56v6H44Zm0-14H56v6H44ZM18,21H30v6H18Z"/><path d="M32,45H21a1,1,0,0,0,0,2H32A1,1,0,0,0,32,45Z"/><path d="M32,50H21a1,1,0,0,0,0,2H32A1,1,0,0,0,32,50Z"/><path d="M32,55H21a1,1,0,0,0,0,2H32A1,1,0,0,0,32,55Z"/><path d="M17,47a1,1,0,0,0,0-2A1,1,0,0,0,17,47Z"/><path d="M17,52a1,1,0,0,0,0-2A1,1,0,0,0,17,52Z"/><path d="M17,57a1,1,0,0,0,0-2A1,1,0,0,0,17,57Z"/></g></svg>