<svg xmlns="http://www.w3.org/2000/svg" xmlns:xlink="http://www.w3.org/1999/xlink" viewBox="0 0 64 64"><defs><style>.cls-1{fill:url(#linear-gradient);}.cls-2{fill:#c7cdd8;}.cls-3{fill:url(#linear-gradient-2);}.cls-4{fill:url(#linear-gradient-3);}.cls-5{fill:#4da67f;}.cls-6{fill:url(#linear-gradient-4);}.cls-7{fill:#8a6762;}.cls-8{fill:url(#linear-gradient-6);}</style><linearGradient id="linear-gradient" x1="32" y1="52" x2="32" y2="1" gradientUnits="userSpaceOnUse"><stop offset="0" stop-color="#d4d8e1"/><stop offset="1" stop-color="#f3f4f5"/></linearGradient><linearGradient id="linear-gradient-2" x1="32" y1="9" x2="32" y2="1" gradientUnits="userSpaceOnUse"><stop offset="0" stop-color="#a0a6ba"/><stop offset="1" stop-color="#c6ccda"/></linearGradient><linearGradient id="linear-gradient-3" x1="31.99" y1="63" x2="31.99" y2="29" gradientUnits="userSpaceOnUse"><stop offset="0" stop-color="#6ab891"/><stop offset="1" stop-color="#85cba9"/></linearGradient><linearGradient id="linear-gradient-4" x1="32" y1="25" x2="32" y2="15" xlink:href="#linear-gradient-3"/><linearGradient id="linear-gradient-6" x1="32" y1="58" x2="32" y2="36" gradientUnits="userSpaceOnUse"><stop offset="0" stop-color="#e9a254"/><stop offset="1" stop-color="#f4bb79"/></linearGradient></defs><title>Budget</title><g id="Budget"><path class="cls-1" d="M63,52V1H1V52Z"/><path class="cls-2" d="M63,52V50H1v2Z"/><rect class="cls-3" x="1" y="1" width="62" height="8"/><path class="cls-4" d="M37,29H27L12.72,42.48C4.86,49.91,10.24,63,20.88,63H43.12a11.9,11.9,0,0,0,8.16-20.52Z"/><path class="cls-5" d="M43.12,63H20.88A11.88,11.88,0,0,1,9.1,49.62,11.87,11.87,0,0,0,20.88,60H43.12A11.88,11.88,0,0,0,54.9,49.62,11.88,11.88,0,0,1,43.12,63Z"/><polygon class="cls-6" points="37 25 27 25 24 15 40 15 37 25"/><path class="cls-6" d="M40,15c-2.17,7.24-1.73,5.78-3,10H27c-1.28-4.26-.82-2.75-3-10Z"/><polygon class="cls-5" points="37.9 22 37 25 27 25 26.1 22 37.9 22"/><path class="cls-7" d="M37,29H27a2,2,0,0,1,0-4H37A2,2,0,0,1,37,29Z"/><path class="cls-8" d="M40.6,44.34l1.93-1.11-2-3.46-1.94,1.12A9,9,0,0,0,34,38.23V36H30v2.23a9,9,0,0,0-4.59,2.66l-1.94-1.12-2,3.46,1.93,1.11a9.1,9.1,0,0,0,0,5.32l-1.93,1.11,2,3.46,1.94-1.12A9,9,0,0,0,30,55.77V58h4V55.77a9,9,0,0,0,4.59-2.66l1.94,1.12,2-3.46L40.6,49.66A9.1,9.1,0,0,0,40.6,44.34Z"/><path d="M63,0H1A1,1,0,0,0,0,1V52a1,1,0,0,0,1,1H8.15A12.9,12.9,0,0,0,20.88,64H43.12A12.9,12.9,0,0,0,55.85,53H63a1,1,0,0,0,1-1V1A1,1,0,0,0,63,0ZM2,2H62V8H2ZM43.12,62H20.88a10.89,10.89,0,0,1-7.47-18.79L27.4,30h9.2l14,13.21A10.89,10.89,0,0,1,43.12,62ZM36.26,24H27.74l-2.4-8H38.66ZM27,26H37a1,1,0,0,1,0,2H27A1,1,0,0,1,27,26ZM56,51a12.87,12.87,0,0,0-4-9.24L38.83,29.36a3,3,0,0,0-.57-5.07c2.94-9.83,3-9.34,2.54-9.89S41.31,14,24,14a1,1,0,0,0-1,1.29l2.7,9a3,3,0,0,0-.57,5.07L12,41.76A12.87,12.87,0,0,0,8,51H2V10H62V51Z"/><path d="M6,4A1,1,0,0,0,6,6,1,1,0,0,0,6,4Z"/><path d="M11,4a1,1,0,0,0,0,2A1,1,0,0,0,11,4Z"/><path d="M16,4a1,1,0,0,0,0,2A1,1,0,0,0,16,4Z"/><path d="M31.5,45H34a1,1,0,0,0,0-2H33V42a1,1,0,0,0-2,0v1a2.5,2.5,0,0,0,.5,5h1a.5.5,0,0,1,0,1H30a1,1,0,0,0,0,2h1v1a1,1,0,0,0,2,0V51a2.5,2.5,0,0,0-.5-5h-1A.5.5,0,0,1,31.5,45Z"/><path d="M43.49,43.49c.15-.53.08-.46-2.1-4.22A1,1,0,0,0,40,38.9l-1.28.74A9.7,9.7,0,0,0,35,37.47V36a1,1,0,0,0-1-1H30a1,1,0,0,0-1,1v1.47a9.77,9.77,0,0,0-3.75,2.17L24,38.9a1,1,0,0,0-1.36.37c-2.69,4.65-2.88,4.11-.37,5.56a10.08,10.08,0,0,0,0,4.34c-2.49,1.44-2.32.9.37,5.56A1,1,0,0,0,24,55.1l1.28-.74A9.7,9.7,0,0,0,29,56.53V58a1,1,0,0,0,1,1h4a1,1,0,0,0,1-1V56.53a9.77,9.77,0,0,0,3.75-2.17c2.5,1.44,2,1.58,4.64-3.09A1,1,0,0,0,43,49.9c-1.94-1.12-1-.09-1-2.9s-.92-1.78,1-2.9A1,1,0,0,0,43.49,43.49Zm-3.84,1.15a8.08,8.08,0,0,1,0,4.72c-.29.91.53,1.21,1.51,1.77l-1,1.74-1.07-.62c-1.37-.79-1.48,1.67-5.31,2.54a1,1,0,0,0-.78,1V57H31V55.77c0-1.58-2.18-.45-4.86-3.34-.66-.71-1.37-.1-2.3.44l-1-1.74,1.06-.61c1-.6.1-1.3.1-3.52s.95-2.92-.1-3.52l-1.06-.61,1-1.74c1,.56,1.65,1.14,2.3.44C28.78,38.73,31,39.78,31,38.23V37h2c0,1.12-.16,2,.78,2.21,3.78.86,3.95,3.32,5.31,2.54l1.07-.62,1,1.74C40.2,43.42,39.36,43.72,39.65,44.64Z"/></g></svg>