<svg xmlns="http://www.w3.org/2000/svg" xmlns:xlink="http://www.w3.org/1999/xlink" viewBox="0 0 64 64"><defs><style>.cls-1{fill:url(#linear-gradient);}.cls-2{fill:url(#linear-gradient-2);}.cls-3{fill:#aae0e5;}.cls-4{fill:#77cacb;}.cls-5{fill:url(#linear-gradient-3);}.cls-6{fill:#8288a1;}.cls-7{fill:#d7dbe2;}.cls-8{fill:url(#linear-gradient-4);}.cls-9{fill:#c7cdd8;}.cls-10{fill:url(#linear-gradient-5);}.cls-11{fill:url(#linear-gradient-6);}.cls-12{fill:url(#linear-gradient-7);}</style><linearGradient id="linear-gradient" x1="32" y1="55" x2="32" y2="15" gradientUnits="userSpaceOnUse"><stop offset="0" stop-color="#a0a6ba"/><stop offset="1" stop-color="#c6ccda"/></linearGradient><linearGradient id="linear-gradient-2" x1="32" y1="51" x2="32" y2="19" gradientUnits="userSpaceOnUse"><stop offset="0" stop-color="#9dd5df"/><stop offset="1" stop-color="#c3e1f5"/></linearGradient><linearGradient id="linear-gradient-3" y1="63" y2="55" xlink:href="#linear-gradient"/><linearGradient id="linear-gradient-4" x1="32" y1="25" x2="32" y2="1" gradientUnits="userSpaceOnUse"><stop offset="0" stop-color="#d4d8e1"/><stop offset="1" stop-color="#f3f4f5"/></linearGradient><linearGradient id="linear-gradient-5" x1="16" y1="46" x2="16" y2="42" gradientUnits="userSpaceOnUse"><stop offset="0" stop-color="#fbcc88"/><stop offset="1" stop-color="#ffe5c3"/></linearGradient><linearGradient id="linear-gradient-6" x1="32" y1="46" x2="32" y2="42" xlink:href="#linear-gradient-5"/><linearGradient id="linear-gradient-7" x1="48" y1="46" x2="48" y2="42" xlink:href="#linear-gradient-5"/></defs><title>Cloud Data</title><g id="Cloud_Data" data-name="Cloud Data"><path class="cls-1" d="M59,18V55H5V18a3,3,0,0,1,3-3H56A3,3,0,0,1,59,18Z"/><rect class="cls-2" x="9" y="19" width="46" height="32"/><path class="cls-3" d="M55,19v2H9V19Z"/><path class="cls-3" d="M52.35,19.35A7.65,7.65,0,0,1,44.71,27h-24a9.07,9.07,0,0,1-9-8C55.86,19,52.35,18.83,52.35,19.35Z"/><path class="cls-4" d="M55,49v2H9V49Z"/><path class="cls-5" d="M3,55H61a2,2,0,0,1,2,2v2a4,4,0,0,1-4,4H5a4,4,0,0,1-4-4V57A2,2,0,0,1,3,55Z"/><path class="cls-6" d="M63,57v2a4,4,0,0,1-4,4H5a4,4,0,0,1-4-4V57a4,4,0,0,0,4,4H59A4,4,0,0,0,63,57Z"/><polygon class="cls-7" points="40 58 24 58 22 55 42 55 40 58"/><rect class="cls-6" x="5" y="53" width="54" height="2"/><path class="cls-8" d="M46.11,13.89a4.93,4.93,0,0,0-5.85-5,9.88,9.88,0,0,0-19.55,2,7.06,7.06,0,0,0,0,14.12h24a5.64,5.64,0,0,0,1.4-11.11Z"/><path class="cls-9" d="M44.71,25h-24a7.06,7.06,0,0,1-7-8.06,7,7,0,0,0,7,6.06h24a5.65,5.65,0,0,0,5.55-4.65A5.65,5.65,0,0,1,44.71,25Z"/><circle class="cls-10" cx="16" cy="44" r="2"/><circle class="cls-11" cx="32" cy="44" r="2"/><circle class="cls-12" cx="48" cy="44" r="2"/><path d="M61,54H60V18a4,4,0,0,0-4-4c-10.35,0-6.08.24-8.91-.85A6,6,0,0,0,41,7.77,10.88,10.88,0,0,0,19.75,9.94,8,8,0,0,0,13.69,14H8a4,4,0,0,0-4,4V54H3a3,3,0,0,0-3,3v2a5,5,0,0,0,5,5H59a5,5,0,0,0,5-5V57A3,3,0,0,0,61,54ZM54,20V50H10V20h2.92a8.08,8.08,0,0,0,7.79,6H26v9H16a1,1,0,0,0-1,1v5.18a3,3,0,1,0,2,0V37H27a1,1,0,0,0,1-1V26h3V41.18a3,3,0,1,0,2,0V26h3V36a1,1,0,0,0,1,1H47v4.18a3,3,0,1,0,2,0V36a1,1,0,0,0-1-1H38V26h6.71a6.66,6.66,0,0,0,6.61-6ZM16,43a1,1,0,0,1,0,2A1,1,0,0,1,16,43Zm16,0a1,1,0,0,1,0,2A1,1,0,0,1,32,43Zm16,0a1,1,0,0,1,0,2A1,1,0,0,1,48,43ZM20.71,11.88a1,1,0,0,0,1-1A8.88,8.88,0,0,1,39.28,9.06a1,1,0,0,0,1.17.78,3.93,3.93,0,0,1,4.66,3.91,1,1,0,0,0,.75,1.11C51.13,16.21,50.13,24,44.71,24h-24a6.06,6.06,0,0,1,0-12.12ZM6,18a2,2,0,0,1,2-2h4.89a8.21,8.21,0,0,0-.24,2H9a1,1,0,0,0-1,1V51a1,1,0,0,0,1,1H55a1,1,0,0,0,1-1V19a1,1,0,0,0-1-1H51.2a6.67,6.67,0,0,0-.78-2H56a2,2,0,0,1,2,2V54H6ZM40.13,56l-.67,1H24.54l-.67-1ZM62,59a3,3,0,0,1-3,3H5a3,3,0,0,1-3-3V57a1,1,0,0,1,1-1H21.46l1.71,2.55c.42.64-.41.45,16.83.45.69,0,.74-.3,2.54-3H61a1,1,0,0,1,1,1Z"/></g></svg>