<svg xmlns="http://www.w3.org/2000/svg" xmlns:xlink="http://www.w3.org/1999/xlink" viewBox="0 0 64 64"><defs><style>.cls-1{fill:url(#linear-gradient);}.cls-2{fill:#c7cdd8;}.cls-3{fill:url(#linear-gradient-2);}.cls-4{fill:#86b8e0;}.cls-5{fill:url(#linear-gradient-3);}.cls-6{fill:url(#linear-gradient-4);}.cls-7{fill:#5b8dc9;}</style><linearGradient id="linear-gradient" x1="32" y1="35" x2="32" y2="1" gradientUnits="userSpaceOnUse"><stop offset="0" stop-color="#d4d8e1"/><stop offset="1" stop-color="#f3f4f5"/></linearGradient><linearGradient id="linear-gradient-2" x1="32" y1="59" x2="32" y2="47" gradientUnits="userSpaceOnUse"><stop offset="0" stop-color="#7aa8d7"/><stop offset="1" stop-color="#c3d2e7"/></linearGradient><linearGradient id="linear-gradient-3" x1="55" y1="59" x2="55" y2="47" xlink:href="#linear-gradient-2"/><linearGradient id="linear-gradient-4" x1="9" y1="59" x2="9" y2="47" xlink:href="#linear-gradient-2"/></defs><title>Cloud Computing</title><g id="Cloud_Computing" data-name="Cloud Computing"><path class="cls-1" d="M52,19.26a7,7,0,0,0-8.29-7.13A14,14,0,0,0,16,15a10,10,0,0,0,0,20H50a8,8,0,0,0,2-15.74Z"/><path class="cls-2" d="M50,35H16A10,10,0,0,1,6.05,24a10,10,0,0,0,10,9H50a8,8,0,0,0,7.93-7A8,8,0,0,1,50,35Z"/><rect class="cls-3" x="24" y="47" width="16" height="12" rx="1"/><rect class="cls-4" x="30" y="59" width="4" height="4"/><rect class="cls-5" x="47" y="47" width="16" height="12" rx="1"/><rect class="cls-4" x="53" y="59" width="4" height="4"/><rect class="cls-6" x="1" y="47" width="16" height="12" rx="1"/><path class="cls-7" d="M24,56H40a0,0,0,0,1,0,0v2a1,1,0,0,1-1,1H25a1,1,0,0,1-1-1V56A0,0,0,0,1,24,56Z"/><path class="cls-7" d="M47,56H63a0,0,0,0,1,0,0v2a1,1,0,0,1-1,1H48a1,1,0,0,1-1-1V56A0,0,0,0,1,47,56Z"/><path class="cls-7" d="M1,56H17a0,0,0,0,1,0,0v2a1,1,0,0,1-1,1H2a1,1,0,0,1-1-1V56A0,0,0,0,1,1,56Z"/><rect class="cls-4" x="7" y="59" width="4" height="4"/><path d="M16,36H27v3H9a1,1,0,0,0-1,1v4a1,1,0,0,0,2,0V41H28a1,1,0,0,0,1-1V36h2v8a1,1,0,0,0,2,0V36h2v4a1,1,0,0,0,1,1H54v3a1,1,0,0,0,2,0V40a1,1,0,0,0-1-1H37V36H50a9,9,0,0,0,3-17.48A8,8,0,0,0,44.46,11,15,15,0,0,0,15,14a11,11,0,0,0,1,22Zm0-20a1,1,0,0,0,1-1,13,13,0,0,1,25.72-2.67,1,1,0,0,0,1.17.78,6,6,0,0,1,7.11,6,1,1,0,0,0,.74,1.14A7,7,0,0,1,50,34H16a9,9,0,0,1,0-18Z"/><path d="M40,46H24a1,1,0,0,0-1,1V59a1,1,0,0,0,1,1h5v2H28a1,1,0,0,0,0,2h8a1,1,0,0,0,0-2H35V60h5a1,1,0,0,0,1-1V47A1,1,0,0,0,40,46ZM33,62H31V60h2Zm6-4H25V48H39Z"/><path d="M63,46H47a1,1,0,0,0-1,1V59a1,1,0,0,0,1,1h5v2H51a1,1,0,0,0,0,2h8a1,1,0,0,0,0-2H58V60h5a1,1,0,0,0,1-1V47A1,1,0,0,0,63,46ZM56,62H54V60h2Zm6-4H48V48H62Z"/><path d="M17,46H1a1,1,0,0,0-1,1V59a1,1,0,0,0,1,1H6v2H5a1,1,0,0,0,0,2h8a1,1,0,0,0,0-2H12V60h5a1,1,0,0,0,1-1V47A1,1,0,0,0,17,46ZM10,62H8V60h2Zm6-4H2V48H16Z"/></g></svg>