<svg xmlns="http://www.w3.org/2000/svg" xmlns:xlink="http://www.w3.org/1999/xlink" viewBox="0 0 64 64"><defs><style>.cls-1{fill:url(#linear-gradient);}.cls-2{fill:#c7cdd8;}.cls-3{fill:url(#linear-gradient-2);}.cls-4{fill:url(#linear-gradient-3);}.cls-5{fill:url(#linear-gradient-4);}.cls-6{fill:#5b8dc9;}.cls-7{fill:#dd8b37;}.cls-8{fill:url(#linear-gradient-5);}.cls-9{fill:url(#linear-gradient-6);}</style><linearGradient id="linear-gradient" x1="32" y1="52" x2="32" y2="1" gradientUnits="userSpaceOnUse"><stop offset="0" stop-color="#d4d8e1"/><stop offset="1" stop-color="#f3f4f5"/></linearGradient><linearGradient id="linear-gradient-2" x1="32" y1="9" x2="32" y2="1" gradientUnits="userSpaceOnUse"><stop offset="0" stop-color="#a0a6ba"/><stop offset="1" stop-color="#c6ccda"/></linearGradient><linearGradient id="linear-gradient-3" x1="15" y1="63" x2="15" y2="21" gradientUnits="userSpaceOnUse"><stop offset="0" stop-color="#7aa8d7"/><stop offset="1" stop-color="#c3d2e7"/></linearGradient><linearGradient id="linear-gradient-4" x1="49" y1="63" x2="49" y2="21" gradientUnits="userSpaceOnUse"><stop offset="0" stop-color="#e9a254"/><stop offset="1" stop-color="#f4bb79"/></linearGradient><linearGradient id="linear-gradient-5" x1="15" y1="42" x2="15" y2="26" xlink:href="#linear-gradient"/><linearGradient id="linear-gradient-6" x1="49" y1="42" x2="49" y2="26" xlink:href="#linear-gradient"/></defs><title>Comparison</title><g id="Comparison"><path class="cls-1" d="M59,52V1H5V52Z"/><path class="cls-2" d="M59,52V50H5v2Z"/><rect class="cls-3" x="5" y="1" width="54" height="8"/><rect class="cls-4" x="1" y="21" width="28" height="42"/><rect class="cls-5" x="35" y="21" width="28" height="42"/><rect class="cls-6" x="1" y="60" width="28" height="3"/><rect class="cls-7" x="35" y="60" width="28" height="3"/><rect class="cls-8" x="6" y="26" width="18" height="16"/><rect class="cls-9" x="40" y="26" width="18" height="16"/><rect class="cls-2" x="6" y="39" width="18" height="3"/><rect class="cls-2" x="40" y="39" width="18" height="3"/><path d="M10,4a1,1,0,0,0,0,2A1,1,0,0,0,10,4Z"/><path d="M15,4a1,1,0,0,0,0,2A1,1,0,0,0,15,4Z"/><path d="M20,4a1,1,0,0,0,0,2A1,1,0,0,0,20,4Z"/><path d="M63,20H60V1a1,1,0,0,0-1-1H5A1,1,0,0,0,4,1V20H1a1,1,0,0,0-1,1V63a1,1,0,0,0,1,1H29a1,1,0,0,0,1-1V53h4V63a1,1,0,0,0,1,1H63a1,1,0,0,0,1-1V21A1,1,0,0,0,63,20ZM6,2H58V8H6ZM28,62H2V22H28Zm2-11V21a1,1,0,0,0-1-1H6V10H58V20H35a1,1,0,0,0-1,1V51ZM62,62H36V22H62Z"/><path d="M24,25H6a1,1,0,0,0-1,1V42a1,1,0,0,0,1,1H24a1,1,0,0,0,1-1V26A1,1,0,0,0,24,25ZM23,41H7V27H23Z"/><path d="M12.94,38.35l.5-1.35h3.12l.5,1.35a1,1,0,0,0,1.88-.7l-3-8a1,1,0,0,0-1.88,0l-3,8A1,1,0,0,0,12.94,38.35ZM15,32.85,15.81,35H14.19Z"/><path d="M58,43a1,1,0,0,0,1-1V26a1,1,0,0,0-1-1H40a1,1,0,0,0-1,1V42a1,1,0,0,0,1,1ZM41,27H57V41H41Z"/><path d="M51.6,33.47A3,3,0,0,0,49,29H46a1,1,0,0,0-1,1v8a1,1,0,0,0,1,1h4A3,3,0,0,0,51.6,33.47ZM47,31h2a1,1,0,0,1,0,2H47Zm3,6H47V35h3A1,1,0,0,1,50,37Z"/><path d="M6,46a1,1,0,0,0,0,2A1,1,0,0,0,6,46Z"/><path d="M24,46H10a1,1,0,0,0,0,2H24A1,1,0,0,0,24,46Z"/><path d="M6,51a1,1,0,0,0,0,2A1,1,0,0,0,6,51Z"/><path d="M24,51H10a1,1,0,0,0,0,2H24A1,1,0,0,0,24,51Z"/><path d="M6,56a1,1,0,0,0,0,2A1,1,0,0,0,6,56Z"/><path d="M24,56H10a1,1,0,0,0,0,2H24A1,1,0,0,0,24,56Z"/><path d="M40,46a1,1,0,0,0,0,2A1,1,0,0,0,40,46Z"/><path d="M44,46a1,1,0,0,0,0,2H58a1,1,0,0,0,0-2Z"/><path d="M40,51a1,1,0,0,0,0,2A1,1,0,0,0,40,51Z"/><path d="M58,51H44a1,1,0,0,0,0,2H58A1,1,0,0,0,58,51Z"/><path d="M40,56a1,1,0,0,0,0,2A1,1,0,0,0,40,56Z"/><path d="M58,56H44a1,1,0,0,0,0,2H58A1,1,0,0,0,58,56Z"/></g></svg>