<svg xmlns="http://www.w3.org/2000/svg" xmlns:xlink="http://www.w3.org/1999/xlink" viewBox="0 0 64 64"><defs><style>.cls-1{fill:url(#linear-gradient);}.cls-2{fill:#c7cdd8;}.cls-3{fill:url(#linear-gradient-2);}.cls-4{fill:url(#linear-gradient-3);}.cls-5{fill:#dd8b37;}.cls-6{fill:url(#linear-gradient-4);}.cls-7{fill:#42455e;}</style><linearGradient id="linear-gradient" x1="32" y1="52" x2="32" y2="1" gradientUnits="userSpaceOnUse"><stop offset="0" stop-color="#d4d8e1"/><stop offset="1" stop-color="#f3f4f5"/></linearGradient><linearGradient id="linear-gradient-2" x1="32" y1="9" x2="32" y2="1" gradientUnits="userSpaceOnUse"><stop offset="0" stop-color="#a0a6ba"/><stop offset="1" stop-color="#c6ccda"/></linearGradient><linearGradient id="linear-gradient-3" x1="32" y1="50" x2="32" y2="19" gradientUnits="userSpaceOnUse"><stop offset="0" stop-color="#e9a254"/><stop offset="1" stop-color="#f4bb79"/></linearGradient><linearGradient id="linear-gradient-4" x1="32" y1="60" x2="32" y2="50" gradientUnits="userSpaceOnUse"><stop offset="0" stop-color="#474f72"/><stop offset="1" stop-color="#878c9f"/></linearGradient></defs><title>Creative Idea</title><g id="Creative_Idea" data-name="Creative Idea"><path class="cls-1" d="M63,52V1H1V52Z"/><path class="cls-2" d="M63,52V50H1v2Z"/><rect class="cls-3" x="1" y="1" width="62" height="8"/><path class="cls-4" d="M41.5,43.26C39.34,45.26,38,47,38,50H26c0-3-1.32-4.73-3.47-6.7C13.37,34.88,19,19.59,31.32,19,44.46,18.4,51,34.52,41.5,43.26Z"/><path class="cls-5" d="M38.24,48A7.83,7.83,0,0,0,38,50H26a7.72,7.72,0,0,0-.24-2Z"/><path class="cls-6" d="M26,50H38a0,0,0,0,1,0,0v7a3,3,0,0,1-3,3H29a3,3,0,0,1-3-3V50A0,0,0,0,1,26,50Z"/><path class="cls-7" d="M32,63c-2.12,0-2.59-1.78-3-3h6l-.37,1.1A2.77,2.77,0,0,1,32,63Z"/><path d="M63,0H1A1,1,0,0,0,0,1V52a1,1,0,0,0,1,1H24a1,1,0,0,0,1,1v1a1,1,0,1,0,0,2,4,4,0,0,0,3.25,3.92c1.37,4.09,6.11,4.18,7.5,0A4,4,0,0,0,38.86,58a1,1,0,1,0,.21-2c-.1,0-.07.15-.07-1a1,1,0,0,0,0-2H63a1,1,0,0,0,1-1V1A1,1,0,0,0,63,0ZM2,2H62V8H2ZM27,51H37v1.85l-10-.71Zm10-2H27c-.26-2.72-1.65-4.52-3.74-6.44A13,13,0,0,1,31.37,20c12.14-.58,18.29,14.34,9.45,22.51C38.71,44.48,37.32,46.29,37.05,49ZM30.4,61h3.2A1.78,1.78,0,0,1,30.4,61ZM35,59H29a2,2,0,0,1-2-1.85l9.8.7A2,2,0,0,1,35,59Zm-8-3.86v-1l10,.71v1ZM39,51c0-2.81.12-4.18,3.18-7a15,15,0,1,0-20.32,0c3,2.77,3.14,4.14,3.14,7H2V10H62V51Z"/><path d="M6,4A1,1,0,0,0,6,6,1,1,0,0,0,6,4Z"/><path d="M11,4a1,1,0,0,0,0,2A1,1,0,0,0,11,4Z"/><path d="M16,4a1,1,0,0,0,0,2A1,1,0,0,0,16,4Z"/><path d="M31,31h4a1,1,0,0,0,0-2H33V28a1,1,0,0,0-2,0v1a3,3,0,0,0,0,6h2a1,1,0,0,1,0,2H29a1,1,0,0,0,0,2h2v1a1,1,0,0,0,2,0V39a3,3,0,0,0,0-6H31A1,1,0,0,1,31,31Z"/><path d="M53,32H50a1,1,0,0,0,0,2h3A1,1,0,0,0,53,32Z"/><path d="M14,32H11a1,1,0,0,0,0,2h3A1,1,0,0,0,14,32Z"/><path d="M31,12v3a1,1,0,0,0,2,0V12A1,1,0,0,0,31,12Z"/><path d="M45.43,45A1,1,0,0,0,44,46.44c2.31,2.3,2.29,2.41,2.83,2.41a1,1,0,0,0,.71-1.71Z"/><path d="M17.86,17.44a1,1,0,0,0-1.42,1.42c2.31,2.3,2.29,2.41,2.83,2.41A1,1,0,0,0,20,19.56Z"/><path d="M17.86,48.56,20,46.44A1,1,0,0,0,18.57,45l-2.13,2.12A1,1,0,0,0,17.86,48.56Z"/><path d="M46.14,17.44,44,19.56A1,1,0,0,0,45.43,21l2.13-2.12A1,1,0,0,0,46.14,17.44Z"/></g></svg>