<svg xmlns="http://www.w3.org/2000/svg" xmlns:xlink="http://www.w3.org/1999/xlink" viewBox="0 0 64 64"><defs><style>.cls-1{fill:url(#linear-gradient);}.cls-2{fill:url(#linear-gradient-2);}.cls-3{fill:#aae0e5;}.cls-4{fill:#77cacb;}.cls-5{fill:url(#linear-gradient-3);}.cls-6{fill:#c7cdd8;}.cls-7{fill:url(#linear-gradient-4);}.cls-8{fill:url(#linear-gradient-5);}.cls-9{fill:#8288a1;}.cls-10{fill:#d7dbe2;}</style><linearGradient id="linear-gradient" x1="32" y1="55" x2="32" y2="15" gradientUnits="userSpaceOnUse"><stop offset="0" stop-color="#a0a6ba"/><stop offset="1" stop-color="#c6ccda"/></linearGradient><linearGradient id="linear-gradient-2" x1="32" y1="51" x2="32" y2="19" gradientUnits="userSpaceOnUse"><stop offset="0" stop-color="#9dd5df"/><stop offset="1" stop-color="#c3e1f5"/></linearGradient><linearGradient id="linear-gradient-3" x1="32" y1="51" x2="32" y2="1" gradientUnits="userSpaceOnUse"><stop offset="0" stop-color="#d4d8e1"/><stop offset="1" stop-color="#f3f4f5"/></linearGradient><linearGradient id="linear-gradient-4" y1="7" y2="1" xlink:href="#linear-gradient"/><linearGradient id="linear-gradient-5" y1="63" y2="55" xlink:href="#linear-gradient"/></defs><title>Data Analytic</title><g id="Data_Analytic" data-name="Data Analytic"><path class="cls-1" d="M8,15a3,3,0,0,0-3,3V55H59V18a3,3,0,0,0-3-3Z"/><path class="cls-2" d="M55,19V51H9V19Z"/><path class="cls-3" d="M55,19v2H9V19Z"/><path class="cls-4" d="M55,49v2H9V49Z"/><rect class="cls-5" x="14" y="1" width="36" height="50"/><rect class="cls-6" x="14" y="49" width="36" height="2"/><rect class="cls-7" x="14" y="1" width="36" height="6"/><path class="cls-8" d="M3,55H61a2,2,0,0,1,2,2v2a4,4,0,0,1-4,4H5a4,4,0,0,1-4-4V57A2,2,0,0,1,3,55Z"/><path class="cls-9" d="M63,57v2a4,4,0,0,1-4,4H5a4,4,0,0,1-4-4V57a4,4,0,0,0,4,4H59A4,4,0,0,0,63,57Z"/><polygon class="cls-10" points="40 58 24 58 22 55 42 55 40 58"/><rect class="cls-9" x="5" y="53" width="54" height="2"/><path d="M61,54H60V18a4,4,0,0,0-4-4H51V1a1,1,0,0,0-1-1H14a1,1,0,0,0-1,1V14H8a4,4,0,0,0-4,4V54H3a3,3,0,0,0-3,3v2a5,5,0,0,0,5,5H59a5,5,0,0,0,5-5V57A3,3,0,0,0,61,54ZM10,50V20h3V50ZM15,8H49V50H15ZM51,20h3V50H51ZM15,2H49V6H15ZM6,18a2,2,0,0,1,2-2h5v2H9a1,1,0,0,0-1,1V51a1,1,0,0,0,1,1H55a1,1,0,0,0,1-1V19a1,1,0,0,0-1-1H51V16h5a2,2,0,0,1,2,2V54H6ZM40.13,56l-.67,1H24.54l-.67-1ZM62,59a3,3,0,0,1-3,3H5a3,3,0,0,1-3-3V57a1,1,0,0,1,1-1H21.46l1.71,2.55c.42.64-.41.45,16.83.45.69,0,.74-.3,2.54-3H61a1,1,0,0,1,1,1Z"/><path d="M18,3a1,1,0,0,0,0,2A1,1,0,0,0,18,3Z"/><path d="M22,3a1,1,0,0,0,0,2A1,1,0,0,0,22,3Z"/><path d="M26,3a1,1,0,0,0,0,2A1,1,0,0,0,26,3Z"/><path d="M44,31H41V21a1,1,0,0,0-2,0V31H36V26a1,1,0,0,0-2,0v5H31V23a1,1,0,0,0-2,0v8H26V28a1,1,0,0,0-2,0v3H21V27.41l9-9,3.29,3.3a1,1,0,0,0,1.42,0L42,14.41V16a1,1,0,0,0,2,0c0-5.94.87-5-5-5a1,1,0,0,0,0,2h1.59L34,19.59l-3.29-3.3a1,1,0,0,0-1.42,0L21,24.59V12a1,1,0,0,0-2,0V32a1,1,0,0,0,1,1H44A1,1,0,0,0,44,31Z"/><path d="M44,37H24a1,1,0,0,0,0,2H44A1,1,0,0,0,44,37Z"/><path d="M44,41H24a1,1,0,0,0,0,2H44A1,1,0,0,0,44,41Z"/><path d="M44,45H24a1,1,0,0,0,0,2H44A1,1,0,0,0,44,45Z"/><path d="M20,37a1,1,0,0,0,0,2A1,1,0,0,0,20,37Z"/><path d="M20,41a1,1,0,0,0,0,2A1,1,0,0,0,20,41Z"/><path d="M20,45a1,1,0,0,0,0,2A1,1,0,0,0,20,45Z"/></g></svg>