<svg xmlns="http://www.w3.org/2000/svg" xmlns:xlink="http://www.w3.org/1999/xlink" viewBox="0 0 64 64"><defs><style>.cls-1{fill:url(#linear-gradient);}.cls-2{fill:#c7cdd8;}.cls-3{fill:url(#linear-gradient-2);}.cls-4{fill:url(#linear-gradient-3);}.cls-5{fill:#8288a1;}.cls-6{fill:url(#linear-gradient-4);}.cls-7{fill:url(#linear-gradient-5);}.cls-8{fill:#5b8dc9;}.cls-9{fill:url(#linear-gradient-6);}.cls-10{fill:url(#linear-gradient-7);}.cls-11{fill:#86b8e0;}</style><linearGradient id="linear-gradient" x1="32" y1="63" x2="32" y2="1" gradientUnits="userSpaceOnUse"><stop offset="0" stop-color="#d4d8e1"/><stop offset="1" stop-color="#f3f4f5"/></linearGradient><linearGradient id="linear-gradient-2" x1="32" y1="9" x2="32" y2="1" gradientUnits="userSpaceOnUse"><stop offset="0" stop-color="#a0a6ba"/><stop offset="1" stop-color="#c6ccda"/></linearGradient><linearGradient id="linear-gradient-3" x1="16.02" y1="35.01" x2="16.02" y2="25" xlink:href="#linear-gradient-2"/><linearGradient id="linear-gradient-4" x1="35" y1="44" x2="35" y2="16" xlink:href="#linear-gradient-2"/><linearGradient id="linear-gradient-5" x1="23" y1="36" x2="23" y2="24" gradientTransform="translate(46 60) rotate(-180)" gradientUnits="userSpaceOnUse"><stop offset="0" stop-color="#7aa8d7"/><stop offset="1" stop-color="#c3d2e7"/></linearGradient><linearGradient id="linear-gradient-6" x1="42" y1="30" x2="46" y2="30" xlink:href="#linear-gradient-2"/><linearGradient id="linear-gradient-7" x1="25" y1="50" x2="25" y2="36" gradientTransform="matrix(1, 0, 0, 1, 0, 0)" xlink:href="#linear-gradient-5"/></defs><title>Digital Marketing</title><g id="Digital_Marketing" data-name="Digital Marketing"><path class="cls-1" d="M63,63V1H1V63Z"/><path class="cls-2" d="M63,63V61H1v2Z"/><rect class="cls-3" x="1" y="1" width="62" height="8"/><path class="cls-4" d="M18,35c.1,0,0,.6,0-10a4,4,0,0,0-4,4v2A4,4,0,0,0,18,35Z"/><path class="cls-5" d="M18,32v3a4,4,0,0,1-4-4c0-1.86,0-2.14,0-2.5A4,4,0,0,0,18,32Z"/><path class="cls-6" d="M42,16V44l-1.56-2.34A14.94,14.94,0,0,0,28,35V25a15,15,0,0,0,12.44-6.66Z"/><path class="cls-5" d="M42,42v2l-1.56-2.34A14.94,14.94,0,0,0,28,35V33a14.9,14.9,0,0,1,7.06,1.77C38.83,36.8,40.24,39.35,42,42Z"/><rect class="cls-7" x="18" y="24" width="10" height="12" transform="translate(46 60) rotate(180)"/><rect class="cls-8" x="18" y="34" width="10" height="2" transform="translate(46 70) rotate(180)"/><path class="cls-9" d="M42,44V16a2,2,0,0,1,4,0V44A2,2,0,0,1,42,44Z"/><path class="cls-10" d="M28.12,50h-3.6a1.88,1.88,0,0,1-1.84-1.48C20.24,37.12,20.81,39.77,20,36h6c2.17,10,1.88,9.82,3,10.47A1.88,1.88,0,0,1,28.12,50Z"/><polygon class="cls-2" points="46 26 50 28 50 32 46 34 46 26"/><polygon class="cls-11" points="26.65 39 20.64 39 20 36 26 36 26.65 39"/><path d="M44,47a3,3,0,0,0,3-3V34.62c3.56-1.78,4-1.8,4-2.62,0-4.11.18-4.53-.55-4.89L47,25.38V16a3,3,0,0,0-6-.36c-1.91,2.86-4.75,7.78-12,8.3A1,1,0,0,0,28,23H18a1,1,0,0,0-1,1.1A5,5,0,0,0,13,29v2a5,5,0,0,0,4,4.9A1,1,0,0,0,18,37h1.19L21.7,48.72A2.91,2.91,0,0,0,24.52,51h3.6a2.88,2.88,0,0,0,1.3-5.45c-.47-.25-.26.27-2.18-8.55H28a1,1,0,0,0,1-.94,13.79,13.79,0,0,1,10.62,6.15L41,44.36A3,3,0,0,0,44,47Zm5-18.38v2.76l-2,1V27.62ZM45,16V44a1,1,0,0,1-2,0V16A1,1,0,0,1,45,16ZM15,31V29a3,3,0,0,1,2-2.83v7.66A3,3,0,0,1,15,31Zm4-6h8V35H19Zm8,20.3c.37,2,2,1.77,2,2.82a.87.87,0,0,1-.88.88h-3.6a.89.89,0,0,1-.86-.69L21.24,37h4ZM29,34V26a15.92,15.92,0,0,0,12-6.68V40.71A15.93,15.93,0,0,0,29,34Z"/><path d="M63,0H1A1,1,0,0,0,0,1V63a1,1,0,0,0,1,1H63a1,1,0,0,0,1-1V1A1,1,0,0,0,63,0ZM2,2H62V8H2ZM2,62V10H62V62Z"/><path d="M6,4A1,1,0,0,0,6,6,1,1,0,0,0,6,4Z"/><path d="M11,4a1,1,0,0,0,0,2A1,1,0,0,0,11,4Z"/><path d="M16,4a1,1,0,0,0,0,2A1,1,0,0,0,16,4Z"/><path d="M10.55,56.17c-3.09-2.06-3.32-2.43-4-2.05S6,54.87,6,59a1,1,0,0,0,1,1c.41,0,.27,0,3.55-2.17A1,1,0,0,0,10.55,56.17ZM8,57.13c0-.33-.06-.3.2-.13Z"/><path d="M57,56H41a1,1,0,0,0,0,2H57A1,1,0,0,0,57,56Z"/><path d="M36,56H14a1,1,0,0,0,0,2H36a1,1,0,0,0,2,0V56A1,1,0,0,0,36,56Z"/></g></svg>