<svg xmlns="http://www.w3.org/2000/svg" xmlns:xlink="http://www.w3.org/1999/xlink" viewBox="0 0 64 64"><defs><style>.cls-1{fill:url(#linear-gradient);}.cls-2{fill:#c7cdd8;}.cls-3{fill:url(#linear-gradient-2);}.cls-4{fill:url(#linear-gradient-3);}.cls-5{fill:#42455e;}.cls-6{fill:url(#linear-gradient-4);}.cls-7{fill:#aae0e5;}.cls-8{fill:#77cacb;}.cls-9{fill:url(#linear-gradient-5);}.cls-10{fill:#dd8b37;}</style><linearGradient id="linear-gradient" x1="32" y1="52" x2="32" y2="1" gradientUnits="userSpaceOnUse"><stop offset="0" stop-color="#d4d8e1"/><stop offset="1" stop-color="#f3f4f5"/></linearGradient><linearGradient id="linear-gradient-2" x1="32" y1="9" x2="32" y2="1" gradientUnits="userSpaceOnUse"><stop offset="0" stop-color="#a0a6ba"/><stop offset="1" stop-color="#c6ccda"/></linearGradient><linearGradient id="linear-gradient-3" x1="32" y1="63" x2="32" y2="15" gradientUnits="userSpaceOnUse"><stop offset="0" stop-color="#474f72"/><stop offset="1" stop-color="#878c9f"/></linearGradient><linearGradient id="linear-gradient-4" x1="32" y1="59" x2="32" y2="19" gradientUnits="userSpaceOnUse"><stop offset="0" stop-color="#9dd5df"/><stop offset="1" stop-color="#c3e1f5"/></linearGradient><linearGradient id="linear-gradient-5" x1="33.85" y1="42" x2="33.85" y2="32.98" gradientUnits="userSpaceOnUse"><stop offset="0" stop-color="#e9a254"/><stop offset="1" stop-color="#f4bb79"/></linearGradient></defs><title>Ecommerce</title><g id="Ecommerce"><path class="cls-1" d="M63,52V1H1V52Z"/><path class="cls-2" d="M63,52V50H1v2Z"/><rect class="cls-3" x="1" y="1" width="62" height="8"/><rect class="cls-4" x="16" y="15" width="32" height="48" rx="4"/><path class="cls-5" d="M48,57v2a4,4,0,0,1-4,4H20a4,4,0,0,1-4-4V57a4,4,0,0,0,4,4H44A4,4,0,0,0,48,57Z"/><path class="cls-6" d="M44,19V59H20V19h5a3.62,3.62,0,0,0,3.24,2h7.52A3.62,3.62,0,0,0,39,19Z"/><path class="cls-7" d="M44,19v2H39a3.61,3.61,0,0,1-3.24,2H28.24A3.61,3.61,0,0,1,25,21H20V19h5a3.61,3.61,0,0,0,3.24,2h7.52A3.61,3.61,0,0,0,39,19Z"/><rect class="cls-8" x="20" y="57" width="24" height="2"/><path class="cls-9" d="M41,34.27c-1.62,5.68-1.19,4.17-2,7A1,1,0,0,1,38,42H29.08a1,1,0,0,1-1-.81c-1.48-7.53-1.61-7.3-1.18-7.82S26.73,33,40,33A1,1,0,0,1,41,34.27Z"/><path class="cls-10" d="M39.61,39c-.68,2.37-.69,3-1.61,3H29.08a1,1,0,0,1-1-.81L27.67,39Z"/><path d="M63,0H1A1,1,0,0,0,0,1V52a1,1,0,0,0,1,1H15v6a5,5,0,0,0,5,5H44a5,5,0,0,0,5-5V53H63a1,1,0,0,0,1-1V1A1,1,0,0,0,63,0ZM2,2H62V8H2ZM47,59a3,3,0,0,1-3,3H20a3,3,0,0,1-3-3V19a3,3,0,0,1,3-3H44a3,3,0,0,1,3,3Zm2-8V19a5,5,0,0,0-5-5H20a5,5,0,0,0-5,5V51H2V10H62V51Z"/><path d="M6,4A1,1,0,0,0,6,6,1,1,0,0,0,6,4Z"/><path d="M11,4a1,1,0,0,0,0,2A1,1,0,0,0,11,4Z"/><path d="M16,4a1,1,0,0,0,0,2A1,1,0,0,0,16,4Z"/><path d="M44,18c-5.41,0-5.53-.18-5.89.55A2.61,2.61,0,0,1,35.76,20H28.24a2.61,2.61,0,0,1-2.35-1.45c-.36-.73-.55-.55-5.89-.55a1,1,0,0,0-1,1V59a1,1,0,0,0,1,1H44a1,1,0,0,0,1-1V19A1,1,0,0,0,44,18ZM43,58H21V20h3.43a4.58,4.58,0,0,0,3.81,2h7.52a4.58,4.58,0,0,0,3.81-2H43Z"/><path d="M28,30.8a1,1,0,0,0-1-.8H24a1,1,0,0,0,0,2h2.19L28,40.66c-1.16,1.11-2,1.67-2,2.94a2.42,2.42,0,0,0,1.05,2A2,2,0,1,0,31,46h4a2,2,0,1,0,2-2c-8.88,0-9,.17-9-.4,0-.23,0-.19,1.48-1.6H38a1,1,0,0,0,1-.73c2.11-7.39,2.25-7.32,1.84-7.87s.07-.4-12.36-.4ZM38.67,35l-1.42,5H29.89l-1-5Z"/></g></svg>