<svg xmlns="http://www.w3.org/2000/svg" xmlns:xlink="http://www.w3.org/1999/xlink" viewBox="0 0 64 64"><defs><style>.cls-1{fill:url(#linear-gradient);}.cls-2{fill:url(#linear-gradient-2);}.cls-3{fill:#aae0e5;}.cls-4{fill:#77cacb;}.cls-5{fill:url(#linear-gradient-3);}.cls-6{fill:#8288a1;}.cls-7{fill:#d7dbe2;}.cls-8{fill:url(#linear-gradient-4);}.cls-9{fill:url(#linear-gradient-5);}.cls-10{fill:#7ece67;}.cls-11{fill:url(#linear-gradient-6);}.cls-12{fill:url(#linear-gradient-7);}.cls-13{fill:url(#linear-gradient-8);}.cls-14{fill:#f2a961;}.cls-15{fill:#42455e;}</style><linearGradient id="linear-gradient" x1="32" y1="55" x2="32" y2="15" gradientUnits="userSpaceOnUse"><stop offset="0" stop-color="#a0a6ba"/><stop offset="1" stop-color="#c6ccda"/></linearGradient><linearGradient id="linear-gradient-2" x1="32" y1="51" x2="32" y2="19" gradientUnits="userSpaceOnUse"><stop offset="0" stop-color="#9dd5df"/><stop offset="1" stop-color="#c3e1f5"/></linearGradient><linearGradient id="linear-gradient-3" y1="63" y2="55" xlink:href="#linear-gradient"/><linearGradient id="linear-gradient-4" x1="39" y1="46" x2="39" y2="38" gradientUnits="userSpaceOnUse"><stop offset="0" stop-color="#8cdd79"/><stop offset="1" stop-color="#d4e6b6"/></linearGradient><linearGradient id="linear-gradient-5" x1="25" y1="44" x2="25" y2="36" xlink:href="#linear-gradient-4"/><linearGradient id="linear-gradient-6" x1="32" y1="33" x2="32" y2="1" gradientUnits="userSpaceOnUse"><stop offset="0" stop-color="#474f72"/><stop offset="1" stop-color="#878c9f"/></linearGradient><linearGradient id="linear-gradient-7" x1="18.2" y1="16" x2="18.2" y2="13.58" xlink:href="#linear-gradient-6"/><linearGradient id="linear-gradient-8" x1="32" y1="27" x2="32" y2="7" gradientUnits="userSpaceOnUse"><stop offset="0" stop-color="#e9a254"/><stop offset="1" stop-color="#f4bb79"/></linearGradient></defs><title>Growth</title><g id="Growth"><path class="cls-1" d="M8,15a3,3,0,0,0-3,3V55H59V18a3,3,0,0,0-3-3Z"/><path class="cls-2" d="M55,19V51H9V19Z"/><path class="cls-3" d="M55,19v2H9V19Z"/><path class="cls-4" d="M55,49v2H9V49Z"/><path class="cls-5" d="M3,55H61a2,2,0,0,1,2,2v2a4,4,0,0,1-4,4H5a4,4,0,0,1-4-4V57A2,2,0,0,1,3,55Z"/><path class="cls-6" d="M63,57v2a4,4,0,0,1-4,4H5a4,4,0,0,1-4-4V57a4,4,0,0,0,4,4H59A4,4,0,0,0,63,57Z"/><polygon class="cls-7" points="40 58 24 58 22 55 42 55 40 58"/><rect class="cls-6" x="5" y="53" width="54" height="2"/><path class="cls-8" d="M40,38h6a8,8,0,0,1-8,8H32A8,8,0,0,1,40,38Z"/><path class="cls-9" d="M24,36H18a8,8,0,0,0,8,8h6A8,8,0,0,0,24,36Z"/><path class="cls-10" d="M46,38a8,8,0,0,1-8,8H32a8.24,8.24,0,0,1,.25-2c5.45,0,8.49.56,11.41-2.34A8.12,8.12,0,0,0,45.75,38Z"/><path class="cls-10" d="M32,44c-5.64,0-8.72.58-11.66-2.34A8,8,0,0,1,18,36h.25A8,8,0,0,0,26,42h5.75A8.24,8.24,0,0,1,32,44Z"/><path class="cls-11" d="M45.61,13.76l2.25-1.3-4-6.92L41.61,6.83A14,14,0,0,0,36,3.59V1H28V3.59a14,14,0,0,0-5.61,3.24L20.14,5.54l-4,6.92,2.25,1.3a13.65,13.65,0,0,0,0,6.48l-2.25,1.3,4,6.92,2.25-1.29A14,14,0,0,0,28,30.41V33h8V30.41a14,14,0,0,0,5.61-3.24l2.25,1.29,4-6.92-2.25-1.3A13.65,13.65,0,0,0,45.61,13.76Z"/><path class="cls-12" d="M18.08,13.58c.63.37.13-.19,0,2.42A12.51,12.51,0,0,1,18.08,13.58Z"/><circle class="cls-13" cx="32" cy="17" r="10"/><circle class="cls-13" cx="32" cy="17" r="10"/><path class="cls-14" d="M42,18a10,10,0,0,0-19.9,0A10,10,0,1,1,42,18Z"/><path class="cls-15" d="M45.61,20.24l2.25,1.3-4,6.92-2.25-1.29A14,14,0,0,1,36,30.41V33H28V30.41a14,14,0,0,1-5.61-3.24l-2.25,1.29-4-6.92,2.25-1.3A13.73,13.73,0,0,1,18,16,14,14,0,0,0,46,16,13.41,13.41,0,0,1,45.61,20.24Z"/><path d="M32,28A11,11,0,1,0,21,17,11,11,0,0,0,32,28ZM32,8a9,9,0,1,1-9,9A9,9,0,0,1,32,8Z"/><path d="M33,20H29a1,1,0,0,0,0,2h2v1a1,1,0,0,0,2,0V22a3,3,0,0,0,0-6H31a1,1,0,0,1,0-2h4a1,1,0,0,0,0-2H33V11a1,1,0,0,0-2,0v1a3,3,0,0,0,0,6h2A1,1,0,0,1,33,20Z"/><path d="M61,54H60V18a4,4,0,0,0-4-4H47.2c2.62-1.51,2.33-.64-2.48-9a1,1,0,0,0-1.36-.37l-1.62.94A15.16,15.16,0,0,0,37,2.86V1a1,1,0,0,0-1-1H28a1,1,0,0,0-1,1V2.86a15.16,15.16,0,0,0-4.74,2.75l-1.62-.94A1,1,0,0,0,19.28,5l-4,6.92a1,1,0,0,0,.36,1.37L16.8,14H8a4,4,0,0,0-4,4V54H3a3,3,0,0,0-3,3v2a5,5,0,0,0,5,5H59a5,5,0,0,0,5-5V57A3,3,0,0,0,61,54ZM10,50V20h6.8c-2.62,1.51-2.33.64,2.48,9a1,1,0,0,0,1.36.37l1.62-.94A15.16,15.16,0,0,0,27,31.14V33a1,1,0,0,0,1,1h3v4.36A9,9,0,0,0,24,35H18c-2.76,0-.12,10,8,10h5v5Zm20.93-7H26a7,7,0,0,1-6.93-6H24A7,7,0,0,1,30.93,43ZM33,47h5c8.06,0,10.78-10,8-10H40a9,9,0,0,0-7,3.36V34h3a1,1,0,0,0,1-1V31.14a15.16,15.16,0,0,0,4.74-2.75l1.62.94A1,1,0,0,0,44.72,29c4.28-7.41,4.25-7.12,4.1-7.68C48.39,19.67,43.21,20,54,20V50H33Zm.07-2A7,7,0,0,1,40,39h4.93A7,7,0,0,1,38,45ZM20.51,6.9l1.38.8a1,1,0,0,0,1.19-.14C26.71,4.13,29,5.15,29,3.59V2h6c0,1.67-.14,2.29.71,2.55,4.76,1.41,5,3.93,6.4,3.15l1.38-.8,3,5.2c-1.39.8-2.06,1-1.85,1.89a12.76,12.76,0,0,1,0,6c-.21.87.47,1.1,1.85,1.89l-3,5.2-1.38-.8c-1.36-.78-1.65,1.74-6.4,3.15-.86.26-.71,1-.71,2.55H29V30.41c0-1.57-2.28-.53-5.92-4-.65-.61-1.19-.14-2.57.66l-3-5.2c3-1.74,1.49-.68,1.49-4.9s1.53-3.16-1.49-4.9ZM6,18a2,2,0,0,1,2-2h9.05a9.55,9.55,0,0,0,0,2H9a1,1,0,0,0-1,1V51a1,1,0,0,0,1,1H55a1,1,0,0,0,1-1V19a1,1,0,0,0-1-1H47a9.55,9.55,0,0,0,0-2h9a2,2,0,0,1,2,2V54H6ZM40.13,56l-.67,1H24.54l-.67-1ZM62,59a3,3,0,0,1-3,3H5a3,3,0,0,1-3-3V57a1,1,0,0,1,1-1H21.46l1.71,2.55c.42.64-.41.45,16.83.45.69,0,.74-.3,2.54-3H61a1,1,0,0,1,1,1Z"/></g></svg>