<svg xmlns="http://www.w3.org/2000/svg" xmlns:xlink="http://www.w3.org/1999/xlink" viewBox="0 0 64 64"><defs><style>.cls-1{fill:url(#linear-gradient);}.cls-2{fill:url(#linear-gradient-2);}.cls-3{fill:#f6b756;}.cls-4{fill:url(#linear-gradient-3);}.cls-5{fill:#f2a961;}.cls-6{fill:url(#linear-gradient-4);}.cls-7{fill:url(#linear-gradient-5);}.cls-8{fill:#c7cdd8;}.cls-9{fill:url(#linear-gradient-6);}.cls-10{fill:#42455e;}.cls-11{fill:url(#linear-gradient-7);}.cls-12{fill:url(#linear-gradient-8);}.cls-13{fill:url(#linear-gradient-9);}.cls-14{fill:url(#linear-gradient-10);}.cls-15{fill:#8288a1;}</style><linearGradient id="linear-gradient" x1="32" y1="41" x2="32" y2="1" gradientUnits="userSpaceOnUse"><stop offset="0" stop-color="#474f72"/><stop offset="1" stop-color="#878c9f"/></linearGradient><linearGradient id="linear-gradient-2" x1="32" y1="37" x2="32" y2="9" gradientUnits="userSpaceOnUse"><stop offset="0" stop-color="#fbcc88"/><stop offset="1" stop-color="#ffe5c3"/></linearGradient><linearGradient id="linear-gradient-3" x1="32" y1="33" x2="32" y2="13" gradientUnits="userSpaceOnUse"><stop offset="0" stop-color="#e9a254"/><stop offset="1" stop-color="#f4bb79"/></linearGradient><linearGradient id="linear-gradient-4" y1="63" y2="41" xlink:href="#linear-gradient"/><linearGradient id="linear-gradient-5" x1="32" y1="63" x2="32" y2="41" gradientUnits="userSpaceOnUse"><stop offset="0" stop-color="#d4d8e1"/><stop offset="1" stop-color="#f3f4f5"/></linearGradient><linearGradient id="linear-gradient-6" y1="48.92" xlink:href="#linear-gradient-5"/><linearGradient id="linear-gradient-7" x1="19" y1="52" x2="28.79" y2="52" gradientUnits="userSpaceOnUse"><stop offset="0" stop-color="#a0a6ba"/><stop offset="1" stop-color="#c6ccda"/></linearGradient><linearGradient id="linear-gradient-8" x1="35.21" x2="45" xlink:href="#linear-gradient-7"/><linearGradient id="linear-gradient-9" x1="32" y1="50.99" x2="32" y2="45" gradientUnits="userSpaceOnUse"><stop offset="0" stop-color="#da5466"/><stop offset="1" stop-color="#f4929c"/></linearGradient><linearGradient id="linear-gradient-10" y1="63" y2="51.01" xlink:href="#linear-gradient-9"/></defs><title>Investor</title><g id="Investor"><path class="cls-1" d="M27,41v-.72A18,18,0,0,1,19.54,36l-4.09,2.36-5-8.66,4.09-2.36a17.47,17.47,0,0,1,0-8.62l-4.09-2.36,5-8.66L19.54,10A18,18,0,0,1,27,5.72V1H37V5.72A18,18,0,0,1,44.46,10l4.09-2.36,5,8.66-4.09,2.36a17.47,17.47,0,0,1,0,8.62l4.09,2.36-5,8.66L44.46,36A18,18,0,0,1,37,40.28V41Z"/><circle class="cls-2" cx="32" cy="23" r="14"/><path class="cls-3" d="M32,37A14,14,0,0,1,18,22,14,14,0,0,0,46,22,14,14,0,0,1,32,37Z"/><circle class="cls-4" cx="32" cy="23" r="10"/><path class="cls-5" d="M42,24a10,10,0,0,0-19.9,0A10,10,0,1,1,42,24Z"/><path class="cls-6" d="M57,63H7c.63-2.79.12-.55,2.88-12.66A12,12,0,0,1,21.58,41H42.42a12,12,0,0,1,11.7,9.34C56.92,62.64,56.41,60.36,57,63Z"/><rect class="cls-7" x="24" y="41" width="16" height="22"/><path class="cls-8" d="M40,41c0,10.9.13,8.8-.38,11.12L32,47.36l-7.62,4.76C23.87,49.8,24,51.91,24,41Z"/><path class="cls-9" d="M40,41l-1.73,7.92L32,45l-6.27,3.92L24,41Z"/><path class="cls-10" d="M49.52,27.34c-6.5,15.51-28.53,15.53-35,0l-4,2.33,5,8.66L19.54,36A18,18,0,0,0,27,40.28V41l5,4,5-4v-.72A18,18,0,0,0,44.46,36l4.09,2.36,5-8.66Z"/><path class="cls-11" d="M28.79,63H24.17L20,58l2-3-3-3,3-11h2C28.66,62.34,28.73,62.57,28.79,63Z"/><path class="cls-12" d="M42,55l2,3c-3,3.62-2.06,2.47-4.17,5H35.21c.06-.37-.33,1.43,4.79-22h2l3,11Z"/><path class="cls-13" d="M34.72,46.7,34.33,49a2.36,2.36,0,0,1-4.66,0l-.39-2.33L32,45Z"/><path class="cls-14" d="M35.16,63H28.84l.95-10a2.22,2.22,0,0,1,4.42,0Z"/><polygon class="cls-10" points="24.17 63 7 63 7.45 61 22.5 61 24.17 63"/><polygon class="cls-10" points="57 63 39.83 63 41.5 61 56.55 61 57 63"/><path class="cls-15" d="M28.76,62.8c0,.28.69.2-4.59.2L22.5,61h5.87A12.15,12.15,0,0,1,28.76,62.8Z"/><path class="cls-15" d="M41.5,61l-1.67,2H35.21c0-.32,0,.11.42-2Z"/><path d="M43,23A11,11,0,1,0,32,34,11,11,0,0,0,43,23ZM23,23a9,9,0,1,1,9,9A9,9,0,0,1,23,23Z"/><path d="M47,23A15,15,0,1,0,32,38,15,15,0,0,0,47,23ZM19,23A13,13,0,1,1,32,36,13,13,0,0,1,19,23Z"/><path d="M33,29V28a3,3,0,0,0,0-6H31a1,1,0,0,1,0-2h4a1,1,0,0,0,0-2H33V17a1,1,0,0,0-2,0v1a3,3,0,0,0,0,6h2a1,1,0,0,1,0,2H29a1,1,0,0,0,0,2h2v1A1,1,0,0,0,33,29Z"/><path d="M58,62.78,55.1,50.12A12.94,12.94,0,0,0,42.42,40c-3.88,0-1.61.56,2.18-2.8l3.45,2a1,1,0,0,0,1.37-.37l5-8.66a1,1,0,0,0-.37-1.37l-3.45-2a18.29,18.29,0,0,0,0-7.62l3.45-2a1,1,0,0,0,.37-1.37l-5-8.66a1,1,0,0,0-1.37-.37l-3.45,2A19.18,19.18,0,0,0,38,5V1a1,1,0,0,0-1-1H27a1,1,0,0,0-1,1V5A19.18,19.18,0,0,0,19.4,8.8L16,6.8a1,1,0,0,0-1.37.37C9.2,16.5,9.33,16,9.48,16.59s.26.49,3.92,2.6a18.29,18.29,0,0,0,0,7.62c-3.51,2-3.76,2-3.92,2.6s-.27.12,5.1,9.42A1,1,0,0,0,16,39.2l3.45-2C23.08,40.47,25.26,40,22,40A12.94,12.94,0,0,0,8.91,50.12L6,62.78A1,1,0,0,0,8,63.22l2.89-12.66A10.93,10.93,0,0,1,20.68,42c-2.8,10.28-3,10.09-2.39,10.67l2.42,2.42c-1.57,2.36-2.08,2.79-1.48,3.51l4.17,5a1,1,0,0,0,1.54-1.28l-3.69-4.43,1.58-2.38a1,1,0,0,0-.12-1.26L20.12,51.7,22.76,42h.44c3.36,15.39,4.55,20.84,4.6,21.15a1,1,0,1,0,2-.37l1-9.68a1.23,1.23,0,0,1,2.44,0l1,9.67a1,1,0,1,0,2,.2c5.08-23.28,4.38-21,5-21l2.64,9.7-2.59,2.59a1,1,0,0,0-.12,1.26l1.58,2.38-3.69,4.43a1,1,0,0,0,1.54,1.28l4.17-5c.61-.74,0-1.22-1.48-3.51,2.69-2.7,2.87-2.69,2.67-3.39L43.32,42a11,11,0,0,1,9.83,8.52L56,63.22A1,1,0,0,0,58,62.78ZM15.82,37l-4-6.92c3.25-1.88,3.92-2,3.69-3a16.49,16.49,0,0,1,0-8.14c.24-1-.5-1.12-3.69-3l4-6.92L19,10.9c1.48.85,2.05-2.43,8.24-4.22.95-.28.72-1,.72-4.68h8V5.72c0,1.72,3,.49,7.77,5,.72.69,1.22.13,4.41-1.71l4,6.92C46.52,19.23,49,17.05,49,23s-2.46,3.78,3.18,7l-4,6.92c-3.26-1.88-3.7-2.39-4.41-1.71-4.66,4.47-7.77,3.32-7.77,5,0,.34.58-.22-4,3.44-4.57-3.66-4-3.1-4-3.44,0-1.72-3-.49-7.77-5C19.52,34.56,19,35.12,15.82,37ZM37.14,49.4c-3,13.55-.48,4.11-2.79,1.63a3.34,3.34,0,0,0,1-1.83l.14-.86Zm-3.8-.53a1.36,1.36,0,0,1-2.68,0l-.28-1.68,1.62-1,1.62,1Zm-4.93,7.65-1.55-7.13,1.68-1A3.88,3.88,0,0,0,29.65,51C28.71,52,28.82,52.64,28.41,56.52ZM26.65,42l3.62,2.9L26.4,47.32,25.24,42Zm11,5.32L33.73,44.9,37.35,42h1.41Z"/></g></svg>