<svg xmlns="http://www.w3.org/2000/svg" xmlns:xlink="http://www.w3.org/1999/xlink" viewBox="0 0 64 64"><defs><style>.cls-1{fill:url(#linear-gradient);}.cls-2{fill:url(#linear-gradient-2);}.cls-3{fill:#86b8e0;}.cls-4{fill:url(#linear-gradient-3);}.cls-5{fill:#cba07a;}.cls-6{fill:url(#linear-gradient-4);}.cls-7{fill:#42455e;}.cls-8{fill:#c7cdd8;}</style><linearGradient id="linear-gradient" x1="32" y1="63" x2="32" y2="1" gradientUnits="userSpaceOnUse"><stop offset="0" stop-color="#474f72"/><stop offset="1" stop-color="#878c9f"/></linearGradient><linearGradient id="linear-gradient-2" x1="32" y1="51" x2="32" y2="13" gradientUnits="userSpaceOnUse"><stop offset="0" stop-color="#7aa8d7"/><stop offset="1" stop-color="#c3d2e7"/></linearGradient><linearGradient id="linear-gradient-3" x1="32" y1="35.45" x2="32" y2="19.91" gradientUnits="userSpaceOnUse"><stop offset="0" stop-color="#d1a788"/><stop offset="1" stop-color="#f2d3b8"/></linearGradient><linearGradient id="linear-gradient-4" x1="32" y1="50.99" x2="32" y2="35.48" gradientUnits="userSpaceOnUse"><stop offset="0" stop-color="#d4d8e1"/><stop offset="1" stop-color="#f3f4f5"/></linearGradient></defs><title>Manager</title><g id="Manager"><path class="cls-1" d="M57.19,25.54l5.16-3-7-12.12-5.17,3A26,26,0,0,0,39,7V1H25V7a26,26,0,0,0-11.18,6.46l-5.17-3-7,12.12,5.16,3a26,26,0,0,0,0,12.92l-5.16,3,7,12.12,5.17-3A26,26,0,0,0,25,57v6H39V57a26,26,0,0,0,11.18-6.46l5.17,3,7-12.12-5.16-3A26,26,0,0,0,57.19,25.54Z"/><circle class="cls-2" cx="32" cy="32" r="19"/><path class="cls-3" d="M50.94,33.5a19,19,0,0,0-37.88,0,19,19,0,1,1,37.88,0Z"/><rect class="cls-4" x="25.09" y="19.91" width="13.82" height="15.55" rx="6.59"/><path class="cls-5" d="M38.91,28.87a6.58,6.58,0,0,1-6.59,6.58h-.64a6.58,6.58,0,0,1-6.59-6.58c0-2.41,0-2.53,0-2.68a6.58,6.58,0,0,0,6.58,6.26h.64a6.58,6.58,0,0,0,6.58-6.26C38.92,26.36,38.91,26.48,38.91,28.87Z"/><path class="cls-6" d="M44.31,46.46a19,19,0,0,1-24.62,0c.91-2.71.73-2.19.95-2.81,3.63-10.9,19.09-10.9,22.72,0C43.57,44.24,43.39,43.73,44.31,46.46Z"/><path class="cls-7" d="M57.19,38.46l5.16,3-7,12.12-5.17-3A26,26,0,0,1,39,57v6H25V57a26,26,0,0,1-11.18-6.46l-5.17,3-7-12.12,5.16-3a26.45,26.45,0,0,1-.77-8A26,26,0,0,0,58,30.5,26.19,26.19,0,0,1,57.19,38.46Z"/><path class="cls-8" d="M30.27,47.92c-.31,3.36-.27,2.86-.27,3a16.22,16.22,0,0,1-1.67-.25,19,19,0,0,1-8.64-4.18l.79-2.35A18.9,18.9,0,0,0,30.27,47.92Z"/><path class="cls-8" d="M44.31,46.46C41,49.33,36.21,50.89,34,50.89c0-.11.06.59-.27-3a18.9,18.9,0,0,0,9.79-3.81Z"/><path d="M62.85,40.57,58.34,38a27.33,27.33,0,0,0,0-11.94l4.51-2.6a1,1,0,0,0,.36-1.37c-7.59-13.15-7-12.44-7.6-12.59s-.4-.11-5.28,2.71A27.16,27.16,0,0,0,40,6.21V1a1,1,0,0,0-1-1H25a1,1,0,0,0-1,1V6.21a27.16,27.16,0,0,0-10.33,6L9.15,9.57a1,1,0,0,0-1.36.37C.19,23.09.53,22.25.69,22.82s0,.36,5,3.21A27.33,27.33,0,0,0,5.66,38C.74,40.81.83,40.64.69,41.18s-.5-.27,7.1,12.88a1,1,0,0,0,1.36.37l4.52-2.61a27.16,27.16,0,0,0,10.33,6V63a1,1,0,0,0,1,1H39a1,1,0,0,0,1-1V57.79a27.16,27.16,0,0,0,10.33-6c4.92,2.84,4.73,2.85,5.28,2.71s0,.56,7.6-12.59A1,1,0,0,0,62.85,40.57ZM55,52.2l-4.3-2.49a1,1,0,0,0-1.2.15,25.08,25.08,0,0,1-10.75,6.22A1,1,0,0,0,38,57v5H26V57a1,1,0,0,0-.73-1,25.08,25.08,0,0,1-10.75-6.22,1,1,0,0,0-1.2-.15L9,52.2,3,41.8l4.29-2.47a1,1,0,0,0,.47-1.12,25.11,25.11,0,0,1,0-12.42,1,1,0,0,0-.47-1.12L3,22.2,9,11.8l4.3,2.49a1,1,0,0,0,1.2-.15A25.08,25.08,0,0,1,25.27,7.92,1,1,0,0,0,26,7V2H38V7a1,1,0,0,0,.73,1,25.08,25.08,0,0,1,10.75,6.22,1,1,0,0,0,1.2.15L55,11.8l6,10.4c-7.43,4.29-4,1.09-4,9.8s-3.45,5.52,4,9.8Z"/><path d="M32,12C13.34,12,5,35.29,19,47.23a20,20,0,0,0,25.94,0C59,35.29,50.66,12,32,12Zm1.91,37.9-.84-9.15c2.18-1,1.73-3.75-.3-3.75-1.68,0-2.44-.14-3,.84a2.07,2.07,0,0,0,1.2,2.91l-.84,9.15a18,18,0,0,1-9.24-3.78L21.58,44a11,11,0,0,1,15.94-6c3.84,2.21,4.69,5.37,5.63,8.17A17.91,17.91,0,0,1,33.91,49.9ZM32,34.45a5.91,5.91,0,0,1-5.94-5.9V26.82a5.91,5.91,0,1,1,11.82,0v1.73A5.91,5.91,0,0,1,32,34.45ZM44.77,44.67c-1.5-4.48-3.57-7.75-8.48-9.49a7.91,7.91,0,0,0,3.62-6.63V26.82a7.91,7.91,0,1,0-15.82,0v1.73a7.91,7.91,0,0,0,3.62,6.63c-4.91,1.74-7,5-8.48,9.49C8.05,33.41,16,14,32,14S56,33.41,44.77,44.67Z"/></g></svg>