<svg xmlns="http://www.w3.org/2000/svg" xmlns:xlink="http://www.w3.org/1999/xlink" viewBox="0 0 64 64"><defs><style>.cls-1{fill:url(#linear-gradient);}.cls-2{fill:#42455e;}.cls-3{fill:url(#linear-gradient-2);}.cls-4{fill:url(#linear-gradient-3);}.cls-5{fill:#4da67f;}.cls-6{fill:#77cacb;}.cls-7{fill:#9fe2bf;}.cls-8{fill:url(#linear-gradient-4);}</style><linearGradient id="linear-gradient" x1="20" y1="63" x2="20" y2="1" gradientUnits="userSpaceOnUse"><stop offset="0" stop-color="#474f72"/><stop offset="1" stop-color="#878c9f"/></linearGradient><linearGradient id="linear-gradient-2" x1="20" y1="59" x2="20" y2="5" gradientUnits="userSpaceOnUse"><stop offset="0" stop-color="#9dd5df"/><stop offset="1" stop-color="#c3e1f5"/></linearGradient><linearGradient id="linear-gradient-3" x1="39" y1="46" x2="39" y2="18" gradientUnits="userSpaceOnUse"><stop offset="0" stop-color="#6ab891"/><stop offset="1" stop-color="#85cba9"/></linearGradient><linearGradient id="linear-gradient-4" x1="33" y1="32" x2="45" y2="32" xlink:href="#linear-gradient-3"/></defs><title>Mobile Payment</title><g id="Mobile_Payment" data-name="Mobile Payment"><rect class="cls-1" x="1" y="1" width="38" height="62" rx="4"/><path class="cls-2" d="M39,57v2a4,4,0,0,1-4,4H5a4,4,0,0,1-4-4V57a4,4,0,0,0,4,4H35A4,4,0,0,0,39,57Z"/><path class="cls-3" d="M35,5V59H5V5h7a2,2,0,0,0,2,2H26a2,2,0,0,0,2-2Z"/><rect class="cls-4" x="15" y="18" width="48" height="28"/><rect class="cls-5" x="15" y="44" width="48" height="2"/><rect class="cls-2" x="35" y="46" width="4" height="2"/><rect class="cls-6" x="15" y="46" width="20" height="2"/><path class="cls-7" d="M54,42H24a5,5,0,0,0-5-5V27a5,5,0,0,0,5-5H54a5,5,0,0,0,5,5V37A5,5,0,0,0,54,42Z"/><circle class="cls-8" cx="39" cy="32" r="6"/><rect class="cls-6" x="5" y="57" width="30" height="2"/><path d="M16,5a1,1,0,0,0,0-2A1,1,0,0,0,16,5Z"/><path d="M24,5a1,1,0,0,0,0-2A1,1,0,0,0,24,5Z"/><path d="M63,17H40V5a5,5,0,0,0-5-5H5A5,5,0,0,0,0,5V59a5,5,0,0,0,5,5H35a5,5,0,0,0,5-5V47H63a1,1,0,0,0,1-1V18A1,1,0,0,0,63,17ZM38,59a3,3,0,0,1-3,3H5a3,3,0,0,1-3-3V5A3,3,0,0,1,5,2H35a3,3,0,0,1,3,3V17H36V5a1,1,0,0,0-1-1H28a1,1,0,0,0-1,1,1,1,0,0,1-1,1c-13,0-12.29.13-12.71-.31A.93.93,0,0,1,13,5a1,1,0,0,0-1-1H5A1,1,0,0,0,4,5V59a1,1,0,0,0,1,1H35a1,1,0,0,0,1-1V47h2ZM15,17a1,1,0,0,0-1,1V46a1,1,0,0,0,1,1H34V58H6V6h5.17A3,3,0,0,0,14,8H26a3,3,0,0,0,2.83-2H34V17ZM62,45H16V19H62Z"/><path d="M23,22a4,4,0,0,1-4,4,1,1,0,0,0-1,1V37a1,1,0,0,0,1,1,4,4,0,0,1,4,4,1,1,0,0,0,1,1H54a1,1,0,0,0,1-1,4,4,0,0,1,4-4,1,1,0,0,0,1-1V27a1,1,0,0,0-1-1,4,4,0,0,1-4-4,1,1,0,0,0-1-1H24A1,1,0,0,0,23,22Zm30.08,1A6,6,0,0,0,58,27.92v8.16A6,6,0,0,0,53.08,41H24.92A6,6,0,0,0,20,36.08V27.92A6,6,0,0,0,24.92,23Z"/><path d="M59,23a1,1,0,0,0,0-2A1,1,0,0,0,59,23Z"/><path d="M59,41a1,1,0,0,0,0,2A1,1,0,0,0,59,41Z"/><path d="M19,23a1,1,0,0,0,0-2A1,1,0,0,0,19,23Z"/><path d="M19,41a1,1,0,0,0,0,2A1,1,0,0,0,19,41Z"/><path d="M39,39a7,7,0,1,0-7-7A7,7,0,0,0,39,39Zm0-12a5,5,0,1,1-5,5A5,5,0,0,1,39,27Z"/><path d="M50,33h4a1,1,0,0,0,0-2H50A1,1,0,0,0,50,33Z"/><path d="M24,33h4a1,1,0,0,0,0-2H24A1,1,0,0,0,24,33Z"/></g></svg>