<svg xmlns="http://www.w3.org/2000/svg" xmlns:xlink="http://www.w3.org/1999/xlink" viewBox="0 0 64 64"><defs><style>.cls-1{fill:url(#linear-gradient);}.cls-2{fill:url(#linear-gradient-2);}.cls-3{fill:url(#linear-gradient-3);}.cls-4{fill:#f2a961;}.cls-5{fill:url(#linear-gradient-5);}.cls-6{fill:url(#linear-gradient-6);}.cls-7{fill:#cf4055;}.cls-8{fill:url(#linear-gradient-7);}.cls-9{fill:url(#linear-gradient-8);}.cls-10{fill:#42455e;}</style><linearGradient id="linear-gradient" x1="32" y1="48" x2="32" y2="16" gradientUnits="userSpaceOnUse"><stop offset="0" stop-color="#474f72"/><stop offset="1" stop-color="#878c9f"/></linearGradient><linearGradient id="linear-gradient-2" x1="18.2" y1="31" x2="18.2" y2="28.58" xlink:href="#linear-gradient"/><linearGradient id="linear-gradient-3" x1="32" y1="42" x2="32" y2="22" gradientUnits="userSpaceOnUse"><stop offset="0" stop-color="#e9a254"/><stop offset="1" stop-color="#f4bb79"/></linearGradient><linearGradient id="linear-gradient-5" x1="13.34" y1="54.93" x2="56.75" y2="54.93" gradientUnits="userSpaceOnUse"><stop offset="0" stop-color="#da5466"/><stop offset="1" stop-color="#f4929c"/></linearGradient><linearGradient id="linear-gradient-6" x1="54.93" y1="50.66" x2="54.93" y2="7.25" xlink:href="#linear-gradient-5"/><linearGradient id="linear-gradient-7" x1="9.07" y1="13.34" x2="9.07" y2="56.75" xlink:href="#linear-gradient-5"/><linearGradient id="linear-gradient-8" x1="50.66" y1="9.07" x2="7.25" y2="9.07" xlink:href="#linear-gradient-5"/></defs><title>MRR</title><g id="MRR"><path class="cls-1" d="M45.61,28.76l2.25-1.3-4-6.92-2.25,1.29A14,14,0,0,0,36,18.59V16H28v2.59a14,14,0,0,0-5.61,3.24l-2.25-1.29-4,6.92,2.25,1.3a13.65,13.65,0,0,0,0,6.48l-2.25,1.3,4,6.92,2.25-1.29A14,14,0,0,0,28,45.41V48h8V45.41a14,14,0,0,0,5.61-3.24l2.25,1.29,4-6.92-2.25-1.3A13.65,13.65,0,0,0,45.61,28.76Z"/><path class="cls-2" d="M18.08,28.58c.63.37.13-.19,0,2.42A12.51,12.51,0,0,1,18.08,28.58Z"/><circle class="cls-3" cx="32" cy="32" r="10"/><circle class="cls-3" cx="32" cy="32" r="10"/><path class="cls-4" d="M42,33a10,10,0,0,0-19.9,0A10,10,0,1,1,42,33Z"/><path class="cls-5" d="M56.75,46.85v9.9l-2.83-2.83a31,31,0,0,1-40.58,2.83h3.81V52.12a25,25,0,0,0,32.53-2.44l-2.83-2.83Z"/><path class="cls-6" d="M56.75,50.66V46.85H52.12a25,25,0,0,0-2.44-32.53l-2.83,2.83V7.25h9.9l-2.83,2.83A31,31,0,0,1,56.75,50.66Z"/><path class="cls-7" d="M59.75,43.85v2a31.32,31.32,0,0,1-3,4.84V46.85H52.12a24.83,24.83,0,0,0,1.9-3Z"/><path class="cls-7" d="M20.15,54v5.73h-2a31.32,31.32,0,0,1-4.84-3h3.81V52.12A24.83,24.83,0,0,0,20.15,54Z"/><path class="cls-8" d="M17.15,46.85v9.9H7.25l2.83-2.83A31,31,0,0,1,7.25,13.34v3.81h4.63a25,25,0,0,0,2.44,32.53Z"/><path class="cls-7" d="M11.88,17.15a23.57,23.57,0,0,0-1.89,3H4.25v-2a31.32,31.32,0,0,1,3-4.84v3.81Z"/><path class="cls-9" d="M50.66,7.25H46.85v4.63a25,25,0,0,0-32.53,2.44l2.83,2.83H7.25V7.25l2.83,2.83A31,31,0,0,1,50.66,7.25Z"/><path class="cls-7" d="M50.66,7.25H46.85v4.63a23.57,23.57,0,0,0-3-1.89V4.25h2A31.32,31.32,0,0,1,50.66,7.25Z"/><path class="cls-10" d="M45.61,35.24l2.25,1.3-4,6.92-2.25-1.29A14,14,0,0,1,36,45.41V48H28V45.41a14,14,0,0,1-5.61-3.24l-2.25,1.29-4-6.92,2.25-1.3A13.73,13.73,0,0,1,18,31,14,14,0,0,0,46,31,13.41,13.41,0,0,1,45.61,35.24Z"/><path d="M55.32,10.1C57.44,8,58,7.69,57.67,6.87s-.54-.62-6.69-.62A32.1,32.1,0,0,0,10.1,8.68L8,6.54a1,1,0,0,0-1.71.71V13A32.1,32.1,0,0,0,8.68,53.9C6.56,56,6,56.31,6.33,57.13s.55.62,6.7.62A32.07,32.07,0,0,0,53.9,55.32c2.28,2.28,2.3,2.43,2.85,2.43a1,1,0,0,0,1-1V51A32.1,32.1,0,0,0,55.32,10.1Zm-2.11-.73a1,1,0,0,0,0,1.42,30.12,30.12,0,0,1,4.54,36.59v-.53a1,1,0,0,0-1-1H54a26.17,26.17,0,0,0-3.6-32.24,1,1,0,0,0-1.42,0l-1.12,1.13V8.25h6.49ZM46.85,45.85a1,1,0,0,0-.71,1.71l2.09,2.09a24.15,24.15,0,0,1-30.08,1.94c0-5,.2-5.32-.62-5.66s-1,.08-3.18,2.3a24.15,24.15,0,0,1-1.94-30.08h4.74a1,1,0,0,0,.71-1.71l-2.09-2.09a24.14,24.14,0,0,1,30.08-1.94c0,4.95-.2,5.32.62,5.66s1-.08,3.18-2.3a24.15,24.15,0,0,1,1.94,30.08ZM8.25,9.66c1.21,1.22,1.3,1.42,1.83,1.42a1,1,0,0,0,.71-.29A30.12,30.12,0,0,1,47.38,6.25h-.53a1,1,0,0,0-1,1V10a26.17,26.17,0,0,0-32.24,3.6h0c-.9.9.36,1.77,1.13,2.54H8.25Zm2.54,45a1,1,0,0,0,0-1.42,30.11,30.11,0,0,1-4.54-36.6v.54a1,1,0,0,0,1,1H10a26.17,26.17,0,0,0,3.6,32.24,1.24,1.24,0,0,0,.71.29c.55,0,.73-.31,1.83-1.42v6.49H9.66Zm45-.29-1.12-1.13a1,1,0,0,0-1.42,0,30.12,30.12,0,0,1-36.59,4.54h.53a1,1,0,0,0,1-1V54a26.18,26.18,0,0,0,32.24-3.61h0c.9-.9-.36-1.77-1.13-2.54h6.49Z"/><path d="M32,21A11,11,0,1,0,43,32,11,11,0,0,0,32,21Zm0,20a9,9,0,1,1,9-9A9,9,0,0,1,32,41Z"/><path d="M31,29h4a1,1,0,0,0,0-2H33V26a1,1,0,0,0-2,0v1a3,3,0,0,0,0,6h2a1,1,0,0,1,0,2H29a1,1,0,0,0,0,2h2v1a1,1,0,0,0,2,0V37a3,3,0,0,0,0-6H31A1,1,0,0,1,31,29Z"/><path d="M48.36,35.67l-1.62-.93a14.43,14.43,0,0,0,0-5.48l1.62-.93A1,1,0,0,0,48.72,27l-4-6.92a1,1,0,0,0-1.36-.37l-1.62.94A15.16,15.16,0,0,0,37,17.86V16a1,1,0,0,0-1-1H28a1,1,0,0,0-1,1v1.86a15.16,15.16,0,0,0-4.74,2.75l-1.62-.94a1,1,0,0,0-1.36.37c-4.92,8.52-5.23,7.37-2,9.22a14.43,14.43,0,0,0,0,5.48c-1.64.95-1.94,1-2.08,1.54s-.18.28,4.1,7.68a1,1,0,0,0,1.36.37l1.62-.94A15.16,15.16,0,0,0,27,46.14V48a1,1,0,0,0,1,1h8a1,1,0,0,0,1-1V46.14a15.16,15.16,0,0,0,4.74-2.75l1.62.94A1,1,0,0,0,44.72,44l4-6.92A1,1,0,0,0,48.36,35.67ZM44.64,29a12.76,12.76,0,0,1,0,6c-.21.87.47,1.1,1.85,1.89l-3,5.2-1.38-.8c-1.36-.78-1.65,1.74-6.4,3.15-.86.26-.71,1-.71,2.55H29V45.41c0-1.57-2.28-.53-5.92-4-.65-.62-1.19-.14-2.57.66l-3-5.2c3-1.74,1.49-.67,1.49-4.9s1.53-3.16-1.49-4.9l3-5.2,1.38.8a1,1,0,0,0,1.19-.14c3.63-3.43,5.92-2.41,5.92-4V17h6c0,1.5-.17,2.28.71,2.55,4.7,1.4,5,3.93,6.4,3.15l1.38-.8,3,5.2C45.1,27.9,44.43,28.12,44.64,29Z"/></g></svg>