<svg xmlns="http://www.w3.org/2000/svg" xmlns:xlink="http://www.w3.org/1999/xlink" viewBox="0 0 64 64"><defs><style>.cls-1{fill:url(#linear-gradient);}.cls-2{fill:#5b8dc9;}.cls-3{fill:#d3e0ef;}.cls-4{fill:url(#linear-gradient-2);}.cls-5{fill:url(#linear-gradient-3);}.cls-6{fill:url(#linear-gradient-4);}.cls-7{fill:url(#linear-gradient-5);}.cls-8{fill:url(#linear-gradient-6);}.cls-9{fill:url(#linear-gradient-7);}.cls-10{fill:url(#linear-gradient-8);}.cls-11{fill:url(#linear-gradient-9);}</style><linearGradient id="linear-gradient" x1="31.99" y1="50" x2="31.99" y2="13.95" gradientUnits="userSpaceOnUse"><stop offset="0" stop-color="#7aa8d7"/><stop offset="1" stop-color="#c3d2e7"/></linearGradient><linearGradient id="linear-gradient-2" x1="32" y1="7" x2="32" y2="1" gradientUnits="userSpaceOnUse"><stop offset="0" stop-color="#e9a254"/><stop offset="1" stop-color="#f4bb79"/></linearGradient><linearGradient id="linear-gradient-3" y1="63" y2="57" xlink:href="#linear-gradient-2"/><linearGradient id="linear-gradient-4" x1="51.8" y1="15.2" x2="51.8" y2="9.2" xlink:href="#linear-gradient-2"/><linearGradient id="linear-gradient-5" x1="12.2" y1="54.8" x2="12.2" y2="48.8" xlink:href="#linear-gradient-2"/><linearGradient id="linear-gradient-6" x1="51.8" y1="54.8" x2="51.8" y2="48.8" xlink:href="#linear-gradient-2"/><linearGradient id="linear-gradient-7" x1="12.2" y1="15.2" x2="12.2" y2="9.2" xlink:href="#linear-gradient-2"/><linearGradient id="linear-gradient-8" x1="60" y1="35" x2="60" y2="29" xlink:href="#linear-gradient-2"/><linearGradient id="linear-gradient-9" x1="4" y1="35" x2="4" y2="29" xlink:href="#linear-gradient-2"/></defs><title>Networking</title><g id="Networking"><path class="cls-1" d="M32,50A18,18,0,0,1,14.06,33.3C12.78,19.21,28.66,8.79,41.42,16.66,56.94,26.64,49.92,50,32,50Z"/><path class="cls-2" d="M32,50A18,18,0,0,1,14,30.88,18,18,0,0,0,50,31.09,18,18,0,0,1,32,50Z"/><circle class="cls-3" cx="25.32" cy="24.74" r="2.03"/><circle class="cls-3" cx="42.16" cy="24.74" r="2.03"/><path class="cls-3" d="M32.87,42.45a2,2,0,0,1-1.28-3.6,2,2,0,0,1,2.93.39A2,2,0,0,1,32.87,42.45Z"/><circle class="cls-4" cx="32" cy="4" r="3"/><circle class="cls-5" cx="32" cy="60" r="3"/><circle class="cls-6" cx="51.8" cy="12.2" r="3"/><circle class="cls-7" cx="12.2" cy="51.8" r="3"/><circle class="cls-8" cx="51.8" cy="51.8" r="3"/><circle class="cls-9" cx="12.2" cy="12.2" r="3"/><circle class="cls-10" cx="60" cy="32" r="3"/><circle class="cls-11" cx="4" cy="32" r="3"/><path d="M56.14,31H51a18.66,18.66,0,0,0-4.85-11.7l3.67-3.66a4,4,0,0,0,4.73-.5,4,4,0,1,0-6.15-.92L44.7,17.89A18.38,18.38,0,0,0,33,13V7.86C37.62,6.66,36.56,0,32,0a4,4,0,0,0-1,7.86V13a18.67,18.67,0,0,0-11.7,4.84l-3.66-3.66a4,4,0,1,0-1.42,1.42l3.67,3.67A19,19,0,0,0,13,31H7.86C6.67,26.42,0,27.38,0,32s6.67,5.57,7.86,1H13a18.82,18.82,0,0,0,4.84,11.71l-3.66,3.65a3.91,3.91,0,0,0-4.52.34.69.69,0,0,0-.23.19c-3.79,3.57,1.48,9.6,5.67,5.62a4,4,0,0,0,.5-4.73l3.65-3.66A18.76,18.76,0,0,0,31,51v5.18A4,4,0,0,0,32,64c4.62,0,5.58-6.67,1-7.86V51a18.8,18.8,0,0,0,11.71-4.84l3.65,3.66a4,4,0,0,0,.5,4.73,4,4,0,1,0,.92-6.15l-3.66-3.65A18.78,18.78,0,0,0,51,33h5.17c1.2,4.62,7.86,3.56,7.86-1A4,4,0,0,0,56.14,31ZM23.31,46.6a26.87,26.87,0,0,0,8-3.6,2.94,2.94,0,0,0,3.22-.06,26.81,26.81,0,0,0,6.21,3.64A16.94,16.94,0,0,1,23.31,46.6ZM15,32.66a25.38,25.38,0,0,1,8-6,3,3,0,0,0,1.74,1,27,27,0,0,0,5.52,11.14A3,3,0,0,0,30,41.45a24.88,24.88,0,0,1-8.89,3.6A17,17,0,0,1,15,32.66Zm9.43-15.89A27,27,0,0,0,24,22a3,3,0,0,0-1.74,2.83,27.27,27.27,0,0,0-7.13,4.83A17.11,17.11,0,0,1,24.46,16.77Zm16.85,1a21,21,0,0,1,.08,4A3,3,0,0,0,39.71,23a27.33,27.33,0,0,0-11.94,0A3.05,3.05,0,0,0,26,21.8a24.58,24.58,0,0,1,.65-5.94A16.88,16.88,0,0,1,41.31,17.79Zm-17,7a1,1,0,0,1,2.06,0A1,1,0,0,1,24.29,24.74Zm9.38,15a1,1,0,0,1,0,1.27,1,1,0,1,1,0-1.27Zm.72-2a2.87,2.87,0,0,0-2.56-.24A24.88,24.88,0,0,1,26.75,27.4a3,3,0,0,0,1.59-2.51,25.22,25.22,0,0,1,10.8,0,3,3,0,0,0,1.33,2.37A24.91,24.91,0,0,1,34.39,37.82Zm7.77-12a1,1,0,0,1,0-2.06A1,1,0,0,1,42.16,25.77ZM43.38,22a15.84,15.84,0,0,0,0-2.53A17.22,17.22,0,0,1,48,26.37a25.89,25.89,0,0,0-2.84-1.53A3,3,0,0,0,43.38,22Zm9.83-11.18A2,2,0,1,1,49.8,12.2,2,2,0,0,1,53.21,10.79ZM30,4a2,2,0,1,1,2,2A2,2,0,0,1,30,4ZM10.79,13.62a2,2,0,1,1,2.83,0A2.06,2.06,0,0,1,10.79,13.62ZM4,34a2,2,0,1,1,2-2A2,2,0,0,1,4,34Zm6.79,19.21a2,2,0,1,1,2.83,0A2,2,0,0,1,10.79,53.21ZM34,60a2,2,0,1,1-2-2A2,2,0,0,1,34,60Zm19.21-9.62A2,2,0,1,1,49.8,51.8,2,2,0,0,1,53.21,50.38ZM42.71,45.2a24.58,24.58,0,0,1-7-3.84,3,3,0,0,0,0-2,26.92,26.92,0,0,0,6.71-11.59,3,3,0,0,0,2-1,24.44,24.44,0,0,1,4.33,2.59A16.89,16.89,0,0,1,42.71,45.2ZM60,34a2,2,0,1,1,2-2A2,2,0,0,1,60,34Z"/><path d="M5.83,25.32a1,1,0,0,0-1.93-.49A1,1,0,1,0,5.83,25.32Z"/><path d="M8.78,18.22a1,1,0,0,0-1.72-1A1,1,0,0,0,8.78,18.22Z"/><path d="M7.05,21.67A1,1,0,0,0,5.2,20.9,1,1,0,0,0,7.05,21.67Z"/><path d="M47.15,8.43a1,1,0,0,0-1.72-1A1,1,0,0,0,47.15,8.43Z"/><path d="M43.64,6.51a1,1,0,0,0-1.85-.77A1,1,0,0,0,43.64,6.51Z"/><path d="M39.89,5.11A1,1,0,0,0,38,4.62,1,1,0,0,0,39.89,5.11Z"/><path d="M58.25,41.79a1,1,0,0,0-.76,1.85A1,1,0,0,0,58.25,41.79Z"/><path d="M56.59,45.43a1,1,0,0,0-1,1.72A1,1,0,0,0,56.59,45.43Z"/><path d="M59.38,38a1,1,0,0,0-.49,1.94A1,1,0,0,0,59.38,38Z"/><path d="M21.66,57a1,1,0,1,0-.38,1.92A1,1,0,0,0,21.66,57Z"/><path d="M18.22,55.22a1,1,0,0,0-1,1.72A1,1,0,0,0,18.22,55.22Z"/><path d="M25.32,58.17A1,1,0,1,0,26,59.38,1,1,0,0,0,25.32,58.17Z"/><path d="M8.78,45.78a1,1,0,0,0-1.72,1A1,1,0,0,0,8.78,45.78Z"/><path d="M7.05,42.33a1,1,0,0,0-1.85.77A1,1,0,0,0,7.05,42.33Z"/><path d="M5.83,38.68a1,1,0,0,0-1.93.49A1,1,0,0,0,5.83,38.68Z"/><path d="M45.78,55.22a1,1,0,1,0,1.37.35A1,1,0,0,0,45.78,55.22Z"/><path d="M42.33,57a1,1,0,1,0,1.31.54A1,1,0,0,0,42.33,57Z"/><path d="M38.68,58.17a1,1,0,1,0,1.21.72A1,1,0,0,0,38.68,58.17Z"/><path d="M57,21.67a1,1,0,0,0,1.84-.77h0A1,1,0,0,0,57,21.67Z"/><path d="M56.59,18.57a1,1,0,0,0-1-1.72A1,1,0,0,0,56.59,18.57Z"/><path d="M58.17,25.32a1,1,0,0,0,1.93-.49C60.1,23.69,57.79,23.86,58.17,25.32Z"/><path d="M21.28,7.13a1,1,0,0,0,.92-1.39,1,1,0,0,0-1.3-.54A1,1,0,0,0,21.28,7.13Z"/><path d="M18.57,7.41a1,1,0,0,0-1.72,1A1,1,0,0,0,18.57,7.41Z"/><path d="M25.32,5.84h0a1,1,0,0,0-.49-1.93A1,1,0,0,0,25.32,5.83Z"/></g></svg>