<svg xmlns="http://www.w3.org/2000/svg" xmlns:xlink="http://www.w3.org/1999/xlink" viewBox="0 0 64 64"><defs><style>.cls-1{fill:url(#linear-gradient);}.cls-2{fill:url(#linear-gradient-2);}.cls-3{fill:#aae0e5;}.cls-4{fill:#77cacb;}.cls-5{fill:url(#linear-gradient-3);}.cls-6{fill:#8288a1;}.cls-7{fill:#d7dbe2;}.cls-8{fill:url(#linear-gradient-4);}.cls-9{fill:#dd8b37;}.cls-10{fill:url(#linear-gradient-5);}.cls-11{fill:url(#linear-gradient-6);}</style><linearGradient id="linear-gradient" x1="32" y1="41" x2="32" y2="1" gradientUnits="userSpaceOnUse"><stop offset="0" stop-color="#a0a6ba"/><stop offset="1" stop-color="#c6ccda"/></linearGradient><linearGradient id="linear-gradient-2" x1="32" y1="37" x2="32" y2="5" gradientUnits="userSpaceOnUse"><stop offset="0" stop-color="#9dd5df"/><stop offset="1" stop-color="#c3e1f5"/></linearGradient><linearGradient id="linear-gradient-3" y1="49" y2="41" xlink:href="#linear-gradient"/><linearGradient id="linear-gradient-4" x1="24.85" y1="24" x2="24.85" y2="14.98" gradientUnits="userSpaceOnUse"><stop offset="0" stop-color="#e9a254"/><stop offset="1" stop-color="#f4bb79"/></linearGradient><linearGradient id="linear-gradient-5" x1="53" y1="63" x2="53" y2="29" xlink:href="#linear-gradient-2"/><linearGradient id="linear-gradient-6" x1="48.4" y1="30.5" x2="57.6" y2="30.5" xlink:href="#linear-gradient"/></defs><title>Online Shoping</title><g id="Online_Shoping" data-name="Online Shoping"><path class="cls-1" d="M8,1A3,3,0,0,0,5,4V41H59V4a3,3,0,0,0-3-3Z"/><path class="cls-2" d="M55,5V37H9V5Z"/><path class="cls-3" d="M55,5V7H9V5Z"/><path class="cls-4" d="M55,35v2H9V35Z"/><path class="cls-5" d="M3,41H61a2,2,0,0,1,2,2v2a4,4,0,0,1-4,4H5a4,4,0,0,1-4-4V43A2,2,0,0,1,3,41Z"/><path class="cls-6" d="M63,43v2a4,4,0,0,1-4,4H5a4,4,0,0,1-4-4V43a4,4,0,0,0,4,4H59A4,4,0,0,0,63,43Z"/><polygon class="cls-7" points="40 44 24 44 22 41 42 41 40 44"/><rect class="cls-6" x="5" y="39" width="54" height="2"/><path class="cls-8" d="M32,16.27l-2,7A1,1,0,0,1,29,24H20.08a1,1,0,0,1-1-.81c-1.48-7.53-1.61-7.3-1.18-7.82S17.73,15,31,15A1,1,0,0,1,32,16.27Z"/><path class="cls-9" d="M30.61,21c-.68,2.37-.69,3-1.61,3H20.08a1,1,0,0,1-1-.81L18.67,21Z"/><rect class="cls-10" x="43" y="29" width="20" height="34" rx="2"/><path class="cls-11" d="M57.6,29l-.28,1.39a2,2,0,0,1-2,1.61H50.64a2,2,0,0,1-2-1.61L48.4,29Z"/><path class="cls-4" d="M63,58v3a2,2,0,0,1-2,2H45a2,2,0,0,1-2-2V58a2,2,0,0,0,2,2H61A2,2,0,0,0,63,58Z"/><path d="M61,28H60V4a4,4,0,0,0-4-4H8A4,4,0,0,0,4,4V40H3a3,3,0,0,0-3,3v2a5,5,0,0,0,5,5H42V61a3,3,0,0,0,3,3H61a3,3,0,0,0,3-3V31A3,3,0,0,0,61,28ZM42,31v5H10V6H54V28H45A3,3,0,0,0,42,31Zm14.38-1c-.19.93-.79,1-1,1H50.64a1,1,0,0,1-1-.81C49.6,29.91,48.89,30,56.38,30ZM6,4A2,2,0,0,1,8,2H56a2,2,0,0,1,2,2V28H56V5a1,1,0,0,0-1-1H9A1,1,0,0,0,8,5V37a1,1,0,0,0,1,1H42v2H6ZM40.13,42l-.67,1H24.54l-.67-1ZM5,48a3,3,0,0,1-3-3V43a1,1,0,0,1,1-1H21.46l1.71,2.55c.42.64-.45.45,16.83.45.71,0,.86-.48,2-2.2V48ZM62,61a1,1,0,0,1-1,1H45a1,1,0,0,1-1-1V31a1,1,0,0,1,1-1h2.58l.12.59A3,3,0,0,0,50.64,33h4.72a3,3,0,0,0,2.94-2.41l.12-.59H61a1,1,0,0,1,1,1Z"/><path d="M19.44,15,19,12.8a1,1,0,0,0-1-.8H15a1,1,0,0,0,0,2h2.19L19,22.66c-1.13,1.08-2,1.66-2,2.94a2.42,2.42,0,0,0,1.05,2A2,2,0,1,0,22,28h4a2,2,0,1,0,2-2c-8.88,0-9,.17-9-.4,0-.24,0-.18,1.48-1.6H29a1,1,0,0,0,1-.73c2.11-7.39,2.25-7.32,1.84-7.87S31.87,15,19.44,15Zm8.81,7H20.89l-1-5h9.82Z"/><path d="M37,11H49a1,1,0,0,0,0-2H37A1,1,0,0,0,37,11Z"/><path d="M37,16H49a1,1,0,0,0,0-2H37A1,1,0,0,0,37,16Z"/><path d="M37,21H49a1,1,0,0,0,0-2H37A1,1,0,0,0,37,21Z"/><path d="M49,24H37a1,1,0,0,0,0,2H49A1,1,0,0,0,49,24Z"/><path d="M56,42H54V41a1,1,0,0,0-2,0v1c-4.59,0-4.23,6-.36,6h2a1,1,0,0,1,0,2H50a1,1,0,0,0,0,2h2v1a1,1,0,0,0,2,0V52a3,3,0,0,0-.36-6h-2a1,1,0,0,1,0-2H56A1,1,0,0,0,56,42Z"/></g></svg>