<svg xmlns="http://www.w3.org/2000/svg" xmlns:xlink="http://www.w3.org/1999/xlink" viewBox="0 0 64 64"><defs><style>.cls-1{fill:url(#linear-gradient);}.cls-2{fill:url(#linear-gradient-2);}.cls-3{fill:url(#linear-gradient-3);}.cls-4{fill:url(#linear-gradient-4);}.cls-5{fill:url(#linear-gradient-5);}.cls-6{fill:url(#linear-gradient-6);}.cls-7{fill:url(#linear-gradient-7);}.cls-8{fill:url(#linear-gradient-8);}.cls-9{fill:url(#linear-gradient-9);}.cls-10{fill:#42455e;}.cls-11{fill:url(#linear-gradient-10);}.cls-12{fill:url(#linear-gradient-11);}.cls-13{fill:#f2a961;}</style><linearGradient id="linear-gradient" x1="32" y1="7" x2="32" y2="1" gradientUnits="userSpaceOnUse"><stop offset="0" stop-color="#e9a254"/><stop offset="1" stop-color="#f4bb79"/></linearGradient><linearGradient id="linear-gradient-2" y1="63" y2="57" xlink:href="#linear-gradient"/><linearGradient id="linear-gradient-3" x1="51.8" y1="15.2" x2="51.8" y2="9.2" xlink:href="#linear-gradient"/><linearGradient id="linear-gradient-4" x1="12.2" y1="54.8" x2="12.2" y2="48.8" xlink:href="#linear-gradient"/><linearGradient id="linear-gradient-5" x1="51.8" y1="54.8" x2="51.8" y2="48.8" xlink:href="#linear-gradient"/><linearGradient id="linear-gradient-6" x1="12.2" y1="15.2" x2="12.2" y2="9.2" xlink:href="#linear-gradient"/><linearGradient id="linear-gradient-7" x1="60" y1="35" x2="60" y2="29" xlink:href="#linear-gradient"/><linearGradient id="linear-gradient-8" x1="4" y1="35" x2="4" y2="29" xlink:href="#linear-gradient"/><linearGradient id="linear-gradient-9" x1="32" y1="48" x2="32" y2="16" gradientUnits="userSpaceOnUse"><stop offset="0" stop-color="#474f72"/><stop offset="1" stop-color="#878c9f"/></linearGradient><linearGradient id="linear-gradient-10" x1="18.2" y1="31" x2="18.2" y2="28.58" xlink:href="#linear-gradient-9"/><linearGradient id="linear-gradient-11" y1="42" y2="22" xlink:href="#linear-gradient"/></defs><title>Passive Income</title><g id="Passive_Income" data-name="Passive Income"><circle class="cls-1" cx="32" cy="4" r="3"/><circle class="cls-2" cx="32" cy="60" r="3"/><circle class="cls-3" cx="51.8" cy="12.2" r="3"/><circle class="cls-4" cx="12.2" cy="51.8" r="3"/><circle class="cls-5" cx="51.8" cy="51.8" r="3"/><circle class="cls-6" cx="12.2" cy="12.2" r="3"/><circle class="cls-7" cx="60" cy="32" r="3"/><circle class="cls-8" cx="4" cy="32" r="3"/><path class="cls-9" d="M45.61,28.76l2.25-1.3-4-6.92-2.25,1.29A14,14,0,0,0,36,18.59V16H28v2.59a14,14,0,0,0-5.61,3.24l-2.25-1.29-4,6.92,2.25,1.3a13.65,13.65,0,0,0,0,6.48l-2.25,1.3,4,6.92,2.25-1.29A14,14,0,0,0,28,45.41V48h8V45.41a14,14,0,0,0,5.61-3.24l2.25,1.29,4-6.92-2.25-1.3A13.65,13.65,0,0,0,45.61,28.76Z"/><path class="cls-10" d="M45.61,35.24l2.25,1.3-4,6.92-2.25-1.29A14,14,0,0,1,36,45.41V48H28V45.41a14,14,0,0,1-5.61-3.24l-2.25,1.29-4-6.92,2.25-1.3A13.73,13.73,0,0,1,18,31,14,14,0,0,0,46,31,13.41,13.41,0,0,1,45.61,35.24Z"/><path class="cls-11" d="M18.08,28.58c.63.37.13-.19,0,2.42A12.51,12.51,0,0,1,18.08,28.58Z"/><circle class="cls-12" cx="32" cy="32" r="10"/><circle class="cls-12" cx="32" cy="32" r="10"/><path class="cls-13" d="M42,33a10,10,0,0,0-19.9,0A10,10,0,1,1,42,33Z"/><path d="M32,21A11,11,0,1,0,43,32,11,11,0,0,0,32,21Zm0,20a9,9,0,1,1,9-9A9,9,0,0,1,32,41Z"/><path d="M31,29h4a1,1,0,0,0,0-2H33V26a1,1,0,0,0-2,0v1a3,3,0,0,0,0,6h2a1,1,0,0,1,0,2H29a1,1,0,0,0,0,2h2v1a1,1,0,0,0,2,0V37a3,3,0,0,0,0-6H31A1,1,0,0,1,31,29Z"/><path d="M56.14,31H47a15.27,15.27,0,0,0-.21-1.74l1.62-.93A1,1,0,0,0,48.72,27L45,20.45l4.82-4.81a4,4,0,1,0-.89-6.17,3.93,3.93,0,0,0-.53,4.75c-6.94,6.94-5.82,5.92-6.62,6.39A15.16,15.16,0,0,0,37,17.86V16a1,1,0,0,0-1-1H33V7.86C37.62,6.66,36.57,0,32,0s-5.58,6.67-1,7.86V15H28a1,1,0,0,0-1,1v1.86a15.16,15.16,0,0,0-4.74,2.75c-.81-.48.28.52-6.62-6.39,2.37-4-3-8.14-6.27-4.85s.78,8.67,4.85,6.27L19,20.45c-4,6.93-4,6.7-3.86,7.27s.44.6,2.08,1.54A15.27,15.27,0,0,0,17.05,31H7.86A4,4,0,0,0,0,32c0,4.6,6.66,5.59,7.86,1h9.19a15.27,15.27,0,0,0,.21,1.74l-1.62.93A1,1,0,0,0,15.28,37L19,43.55l-4.82,4.81a4,4,0,0,0-6,3.44c0,3.24,3.82,5.53,6.94,2.71a4,4,0,0,0,.5-4.73c6.94-6.94,5.82-5.92,6.62-6.39A15.16,15.16,0,0,0,27,46.14V48a1,1,0,0,0,1,1h3v7.14C26.51,57.31,27.32,64,32,64s5.59-6.66,1-7.86V49h3a1,1,0,0,0,1-1V46.14a15.16,15.16,0,0,0,4.74-2.75c.81.48-.28-.52,6.62,6.39a4,4,0,0,0,.53,4.75,4,4,0,1,0,.9-6.16L45,43.55c4-6.93,4-6.7,3.86-7.27s-.44-.6-2.08-1.54A15.27,15.27,0,0,0,47,33h9.19c1.2,4.62,7.86,3.57,7.86-1A4,4,0,0,0,56.14,31ZM30,4a2,2,0,1,1,2,2A2,2,0,0,1,30,4Zm4,56a2,2,0,1,1-2-2A2,2,0,0,1,34,60ZM53.21,10.79A2,2,0,1,1,49.8,12.2,2,2,0,0,1,53.21,10.79ZM10.79,13.62a2,2,0,1,1,2.83,0A2.06,2.06,0,0,1,10.79,13.62ZM4,34a2,2,0,1,1,2-2A2,2,0,0,1,4,34Zm6.79,19.21a2,2,0,1,1,2.83,0A2,2,0,0,1,10.79,53.21Zm42.42-2.83A2,2,0,1,1,49.8,51.8,2,2,0,0,1,53.21,50.38ZM43.49,42.1l-1.38-.8a1,1,0,0,0-1.19.14c-3.63,3.43-5.92,2.41-5.92,4V47H29c0-1.5.17-2.28-.71-2.55-4.78-1.42-5-3.94-6.4-3.15l-1.38.8-3-5.2c1.38-.8,2.06-1,1.85-1.89a12.76,12.76,0,0,1,0-6c.21-.87-.47-1.1-1.85-1.89l3-5.2,1.38.8c1.36.78,1.65-1.74,6.4-3.15.85-.26.71-1,.71-2.55h6v1.59c0,1.56,2.29.54,5.92,4,.65.62,1.19.14,2.57-.66l3,5.2c-3,1.74-1.49.67-1.49,4.9s-1.53,3.16,1.49,4.9ZM60,34a2,2,0,1,1,2-2A2,2,0,0,1,60,34Z"/><path d="M5.83,25.32a1,1,0,0,0-1.93-.49A1,1,0,0,0,5.83,25.32Z"/><path d="M8.78,18.22a1,1,0,0,0-1.72-1A1,1,0,0,0,8.78,18.22Z"/><path d="M7.05,21.67A1,1,0,0,0,5.2,20.9,1,1,0,0,0,7.05,21.67Z"/><path d="M39.89,5.11A1,1,0,0,0,38,4.62,1,1,0,0,0,39.89,5.11Z"/><path d="M43.64,6.51a1,1,0,0,0-1.85-.77A1,1,0,0,0,43.64,6.51Z"/><path d="M47.15,8.43a1,1,0,0,0-1.72-1A1,1,0,0,0,47.15,8.43Z"/><path d="M59.38,38a1,1,0,0,0-.49,1.94A1,1,0,0,0,59.38,38Z"/><path d="M56.59,45.43a1,1,0,0,0-1,1.72A1,1,0,0,0,56.59,45.43Z"/><path d="M58.25,41.79a1,1,0,0,0-.76,1.85A1,1,0,0,0,58.25,41.79Z"/><path d="M18.22,55.22a1,1,0,0,0-1,1.72A1,1,0,0,0,18.22,55.22Z"/><path d="M20.36,57.49a1,1,0,0,0,1.85.76A1,1,0,0,0,20.36,57.49Z"/><path d="M25.32,58.16a1,1,0,0,0-.49,1.94A1,1,0,0,0,25.32,58.16Z"/><path d="M7.05,42.33a1,1,0,0,0-1.85.77A1,1,0,0,0,7.05,42.33Z"/><path d="M5.84,38.68h0A1,1,0,0,0,4.62,38a1,1,0,1,0,1.22.72Z"/><path d="M8.78,45.78a1,1,0,0,0-1.72,1A1,1,0,0,0,8.78,45.78Z"/><path d="M45.77,55.22a1,1,0,1,0,1.38.35A1,1,0,0,0,45.77,55.22Z"/><path d="M42.33,57a1,1,0,1,0,1.31.54A1,1,0,0,0,42.33,57Z"/><path d="M38.68,58.17a1,1,0,1,0,1.21.72A1,1,0,0,0,38.68,58.17Z"/><path d="M56.59,18.57a1,1,0,0,0-1-1.72A1,1,0,0,0,56.59,18.57Z"/><path d="M57,21.66a1,1,0,0,0,.92.62,1,1,0,1,0-.92-.62Z"/><path d="M59.38,26a1,1,0,0,0-.49-1.94A1,1,0,0,0,59.38,26Z"/><path d="M18.57,7.41a1,1,0,0,0-1.72,1A1,1,0,0,0,18.57,7.41Z"/><path d="M21.28,7.13a1,1,0,0,0,.92-1.39,1,1,0,0,0-1.3-.54A1,1,0,0,0,21.28,7.13Z"/><path d="M26,4.62a1,1,0,0,0-1.94.49A1,1,0,0,0,26,4.62Z"/></g></svg>