<svg xmlns="http://www.w3.org/2000/svg" xmlns:xlink="http://www.w3.org/1999/xlink" viewBox="0 0 64 64"><defs><style>.cls-1{fill:#8288a1;}.cls-2{fill:url(#linear-gradient);}.cls-3{fill:#5b8dc9;}.cls-4{fill:url(#linear-gradient-2);}.cls-5{fill:#dfe3ea;}.cls-6{fill:#c7cdd8;}.cls-7{fill:url(#linear-gradient-3);}.cls-8{fill:#42455e;}.cls-9{fill:url(#linear-gradient-4);}.cls-10{fill:url(#linear-gradient-5);}.cls-11{fill:#f2a961;}</style><linearGradient id="linear-gradient" x1="32" y1="7" x2="32" y2="1" gradientUnits="userSpaceOnUse"><stop offset="0" stop-color="#7aa8d7"/><stop offset="1" stop-color="#c3d2e7"/></linearGradient><linearGradient id="linear-gradient-2" x1="32" y1="52" x2="32" y2="7" gradientUnits="userSpaceOnUse"><stop offset="0" stop-color="#d4d8e1"/><stop offset="1" stop-color="#f3f4f5"/></linearGradient><linearGradient id="linear-gradient-3" x1="32" y1="45" x2="32" y2="13" gradientUnits="userSpaceOnUse"><stop offset="0" stop-color="#474f72"/><stop offset="1" stop-color="#878c9f"/></linearGradient><linearGradient id="linear-gradient-4" x1="18.2" y1="28" x2="18.2" y2="25.58" xlink:href="#linear-gradient-3"/><linearGradient id="linear-gradient-5" x1="32" y1="39" x2="32" y2="19" gradientUnits="userSpaceOnUse"><stop offset="0" stop-color="#e9a254"/><stop offset="1" stop-color="#f4bb79"/></linearGradient></defs><title>Presentation</title><g id="Presentation"><path class="cls-1" d="M32,64a3,3,0,1,1,3-3A3,3,0,0,1,32,64Zm0-4a1,1,0,0,0,0,2A1,1,0,0,0,32,60Z"/><rect class="cls-2" x="1" y="1" width="62" height="6"/><rect class="cls-3" x="1" y="5" width="62" height="2"/><rect class="cls-4" x="4" y="7" width="56" height="45"/><rect class="cls-5" x="4" y="7" width="56" height="2"/><rect class="cls-6" x="4" y="49" width="56" height="3"/><path class="cls-7" d="M45.61,25.76l2.25-1.3-4-6.92-2.25,1.29A14,14,0,0,0,36,15.59V13H28v2.59a14,14,0,0,0-5.61,3.24l-2.25-1.29-4,6.92,2.25,1.3a13.65,13.65,0,0,0,0,6.48l-2.25,1.3,4,6.92,2.25-1.29A14,14,0,0,0,28,42.41V45h8V42.41a14,14,0,0,0,5.61-3.24l2.25,1.29,4-6.92-2.25-1.3A13.65,13.65,0,0,0,45.61,25.76Z"/><path class="cls-8" d="M45.61,32.24l2.25,1.3-4,6.92-2.25-1.29A14,14,0,0,1,36,42.41V45H28V42.41a14,14,0,0,1-5.61-3.24l-2.25,1.29-4-6.92,2.25-1.3A13.73,13.73,0,0,1,18,28,14,14,0,0,0,46,28,13.41,13.41,0,0,1,45.61,32.24Z"/><path class="cls-9" d="M18.08,25.58c.63.37.13-.19,0,2.42A12.51,12.51,0,0,1,18.08,25.58Z"/><circle class="cls-10" cx="32" cy="29" r="10"/><circle class="cls-10" cx="32" cy="29" r="10"/><path class="cls-11" d="M42,30a10,10,0,0,0-19.9,0A10,10,0,1,1,42,30Z"/><path d="M63,0H1A1,1,0,0,0,0,1V7A1,1,0,0,0,1,8H3V51H2a1,1,0,0,0,0,2H31v5.18a3,3,0,1,0,2,0V53H62a1,1,0,0,0,0-2H61V8h2a1,1,0,0,0,1-1V1A1,1,0,0,0,63,0ZM32,62a1,1,0,0,1,0-2A1,1,0,0,1,32,62ZM59,51H5V8H59ZM62,6H2V2H62Z"/><path d="M32,40A11,11,0,1,0,21,29,11,11,0,0,0,32,40Zm0-20a9,9,0,1,1-9,9A9,9,0,0,1,32,20Z"/><path d="M33,32H29a1,1,0,0,0,0,2h2v1a1,1,0,0,0,2,0V34a3,3,0,0,0,0-6H31a1,1,0,0,1,0-2h4a1,1,0,0,0,0-2H33V23a1,1,0,0,0-2,0v1a3,3,0,0,0,0,6h2A1,1,0,0,1,33,32Z"/><path d="M15.18,33.28c-.15.56-.18.28,4.1,7.68a1,1,0,0,0,1.36.37l1.62-.94A15.16,15.16,0,0,0,27,43.14V45a1,1,0,0,0,1,1h8a1,1,0,0,0,1-1V43.14a15.16,15.16,0,0,0,4.74-2.75l1.62.94A1,1,0,0,0,44.72,41l4-6.92a1,1,0,0,0-.36-1.37l-1.62-.93a14.43,14.43,0,0,0,0-5.48l1.62-.93A1,1,0,0,0,48.72,24l-4-6.92a1,1,0,0,0-1.36-.37l-1.62.94A15.16,15.16,0,0,0,37,14.86V13a1,1,0,0,0-1-1H28a1,1,0,0,0-1,1v1.86a15.16,15.16,0,0,0-4.74,2.75l-1.62-.94a1,1,0,0,0-1.36.37c-4.92,8.52-5.23,7.37-2,9.22a14.43,14.43,0,0,0,0,5.48C15.62,32.69,15.32,32.75,15.18,33.28ZM19.36,32a12.76,12.76,0,0,1,0-6c.21-.87-.47-1.1-1.85-1.89l3-5.2,1.38.8c1.36.78,1.65-1.74,6.4-3.15.86-.26.71-1,.71-2.55h6v1.59c0,1.57,2.28.53,5.92,4,.65.62,1.19.14,2.57-.66l3,5.2c-3,1.74-1.49.68-1.49,4.9s-1.53,3.16,1.49,4.9l-3,5.2-1.38-.8a1,1,0,0,0-1.19.14c-3.63,3.43-5.92,2.41-5.92,4V44H29c0-1.5.17-2.28-.71-2.55-4.69-1.39-5.05-3.93-6.4-3.15l-1.38.8-3-5.2C18.9,33.1,19.57,32.88,19.36,32Z"/></g></svg>