<svg xmlns="http://www.w3.org/2000/svg" xmlns:xlink="http://www.w3.org/1999/xlink" viewBox="0 0 64 64"><defs><style>.cls-1{fill:url(#linear-gradient);}.cls-2{fill:url(#linear-gradient-2);}.cls-3{fill:#cba07a;}.cls-4{fill:url(#linear-gradient-3);}.cls-5{fill:url(#linear-gradient-4);}.cls-6{fill:url(#linear-gradient-5);}.cls-7{fill:url(#linear-gradient-6);}.cls-8{fill:#42455e;}.cls-9{fill:url(#linear-gradient-7);}.cls-10{fill:url(#linear-gradient-8);}.cls-11{fill:#f2a961;}</style><linearGradient id="linear-gradient" x1="7" y1="48" x2="41" y2="48" gradientUnits="userSpaceOnUse"><stop offset="0" stop-color="#d1a788"/><stop offset="1" stop-color="#f2d3b8"/></linearGradient><linearGradient id="linear-gradient-2" x1="41" x2="57" xlink:href="#linear-gradient"/><linearGradient id="linear-gradient-3" x1="52" y1="43" x2="52" y2="33" xlink:href="#linear-gradient"/><linearGradient id="linear-gradient-4" x1="21" y1="43" x2="21" y2="33" xlink:href="#linear-gradient"/><linearGradient id="linear-gradient-5" x1="11" y1="57" x2="17" y2="57" gradientUnits="userSpaceOnUse"><stop offset="0" stop-color="#d4d8e1"/><stop offset="1" stop-color="#f3f4f5"/></linearGradient><linearGradient id="linear-gradient-6" x1="32" y1="33" x2="32" y2="1" gradientUnits="userSpaceOnUse"><stop offset="0" stop-color="#474f72"/><stop offset="1" stop-color="#878c9f"/></linearGradient><linearGradient id="linear-gradient-7" x1="18.2" y1="16" x2="18.2" y2="13.58" xlink:href="#linear-gradient-6"/><linearGradient id="linear-gradient-8" x1="32" y1="27" x2="32" y2="7" gradientUnits="userSpaceOnUse"><stop offset="0" stop-color="#e9a254"/><stop offset="1" stop-color="#f4bb79"/></linearGradient></defs><title>Product Management</title><g id="Product_Management" data-name="Product Management"><rect class="cls-1" x="7" y="33" width="34" height="30"/><rect class="cls-2" x="41" y="33" width="16" height="30"/><rect class="cls-3" x="7" y="61" width="34" height="2"/><rect class="cls-3" x="41" y="61" width="16" height="2"/><polygon class="cls-3" points="57 33 57 45 45.87 45 41 36.88 41 33 57 33"/><polygon class="cls-4" points="47 43 63 43 57 33 41 33 47 43"/><polygon class="cls-3" points="41 33 41 36.88 36.13 45 7 45 7 33 41 33"/><polygon class="cls-5" points="35 43 1 43 7 33 41 33 35 43"/><rect class="cls-6" x="11" y="55" width="6" height="4"/><path class="cls-7" d="M45.61,13.76l2.25-1.3-4-6.92L41.61,6.83A14,14,0,0,0,36,3.59V1H28V3.59a14,14,0,0,0-5.61,3.24L20.14,5.54l-4,6.92,2.25,1.3a13.65,13.65,0,0,0,0,6.48l-2.25,1.3,4,6.92,2.25-1.29A14,14,0,0,0,28,30.41V33h8V30.41a14,14,0,0,0,5.61-3.24l2.25,1.29,4-6.92-2.25-1.3A13.65,13.65,0,0,0,45.61,13.76Z"/><path class="cls-8" d="M45.61,20.24l2.25,1.3-4,6.92-2.25-1.29A14,14,0,0,1,36,30.41V33H28V30.41a14,14,0,0,1-5.61-3.24l-2.25,1.29-4-6.92,2.25-1.3A13.73,13.73,0,0,1,18,16,14,14,0,0,0,46,16,13.41,13.41,0,0,1,45.61,20.24Z"/><path class="cls-9" d="M18.08,13.58c.63.37.13-.19,0,2.42A12.51,12.51,0,0,1,18.08,13.58Z"/><circle class="cls-10" cx="32" cy="17" r="10"/><circle class="cls-10" cx="32" cy="17" r="10"/><path class="cls-11" d="M42,18a10,10,0,0,0-19.9,0A10,10,0,1,1,42,18Z"/><path d="M43,17A11,11,0,1,0,32,28,11,11,0,0,0,43,17ZM23,17a9,9,0,1,1,9,9A9,9,0,0,1,23,17Z"/><path d="M33,23V22a3,3,0,0,0,0-6H31a1,1,0,0,1,0-2h4a1,1,0,0,0,0-2H33V11a1,1,0,0,0-2,0v1a3,3,0,0,0,0,6h2a1,1,0,0,1,0,2H29a1,1,0,0,0,0,2h2v1A1,1,0,0,0,33,23Z"/><path d="M63.86,42.49c-6.45-10.75-6-10.19-6.44-10.39S58.5,32,37,32v-.86a15.16,15.16,0,0,0,4.74-2.75c3.11,1.81,2,2.29,7-6.35a1,1,0,0,0-.36-1.37l-1.62-.93a14.43,14.43,0,0,0,0-5.48l1.62-.93A1,1,0,0,0,48.72,12c-4.92-8.52-3.78-8.21-7-6.35A15.16,15.16,0,0,0,37,2.86V1a1,1,0,0,0-1-1H28a1,1,0,0,0-1,1V2.86a15.16,15.16,0,0,0-4.74,2.75l-1.62-.94A1,1,0,0,0,19.28,5l-4,6.92a1,1,0,0,0,.36,1.37l1.62.93a14.43,14.43,0,0,0,0,5.48l-1.62.93A1,1,0,0,0,15.28,22l4,6.92a1,1,0,0,0,1.36.37l1.62-.94A15.16,15.16,0,0,0,27,31.14V32H7c-.81,0-.44-.2-6.86,10.49A1,1,0,0,0,1,44H6V63a1,1,0,0,0,1,1H57a1,1,0,0,0,1-1V44h5A1,1,0,0,0,63.86,42.49Zm-35.57-13c-4.78-1.42-5-3.94-6.4-3.15l-1.38.8-3-5.2c1.38-.8,2.06-1,1.85-1.89a12.76,12.76,0,0,1,0-6c.21-.87-.47-1.1-1.85-1.89l3-5.2,1.38.8c1.36.78,1.65-1.74,6.4-3.15.85-.26.71-1,.71-2.55h6V3.59c0,1.56,2.29.54,5.92,4,.65.62,1.21.13,2.57-.66l3,5.2c-3,1.74-1.49.67-1.49,4.9s-1.53,3.16,1.49,4.9l-3,5.2-1.38-.8a1,1,0,0,0-1.19.14c-3.63,3.43-5.92,2.41-5.92,4V32H29C29,30.5,29.17,29.72,28.29,29.45ZM7.57,34H39.23l-4.8,8H2.77ZM8,44c29.31,0,27.44.21,27.86-.49L40,36.61V62H8ZM56,62H42V36.61C46.52,44.15,46.23,44,47,44h9ZM47.57,42l-4.8-8H56.43l4.8,8Z"/><path d="M17,54H11a1,1,0,0,0-1,1v4a1,1,0,0,0,1,1h6a1,1,0,0,0,1-1V55A1,1,0,0,0,17,54Zm-1,4H12V56h4Z"/></g></svg>