<svg xmlns="http://www.w3.org/2000/svg" xmlns:xlink="http://www.w3.org/1999/xlink" viewBox="0 0 64 64"><defs><style>.cls-1{fill:url(#linear-gradient);}.cls-2{fill:#cba07a;}.cls-3{fill:url(#linear-gradient-2);}.cls-4{fill:url(#linear-gradient-3);}.cls-5{fill:url(#linear-gradient-4);}.cls-6{fill:#42455e;}.cls-7{fill:url(#linear-gradient-5);}.cls-8{fill:#a88680;}</style><linearGradient id="linear-gradient" x1="29" y1="54" x2="29" y2="12" gradientUnits="userSpaceOnUse"><stop offset="0" stop-color="#d1a788"/><stop offset="1" stop-color="#f2d3b8"/></linearGradient><linearGradient id="linear-gradient-2" y1="31" x2="29" xlink:href="#linear-gradient"/><linearGradient id="linear-gradient-3" x1="29" y1="35" x2="29" y2="27" gradientUnits="userSpaceOnUse"><stop offset="0" stop-color="#a0a6ba"/><stop offset="1" stop-color="#c6ccda"/></linearGradient><linearGradient id="linear-gradient-4" x1="49" y1="63" x2="49" y2="35" gradientUnits="userSpaceOnUse"><stop offset="0" stop-color="#474f72"/><stop offset="1" stop-color="#878c9f"/></linearGradient><linearGradient id="linear-gradient-5" x1="29" y1="12" x2="29" y2="1" gradientUnits="userSpaceOnUse"><stop offset="0" stop-color="#9b756d"/><stop offset="1" stop-color="#bc9388"/></linearGradient></defs><title>Project Management</title><g id="Project_Management" data-name="Project Management"><path class="cls-1" d="M57,16V41.79L35.73,54H5a4,4,0,0,1-4-4V16a4,4,0,0,1,4-4H53A4,4,0,0,1,57,16Z"/><path class="cls-2" d="M57,42c0-.3,2.36-1.56-21.27,12H5a4,4,0,0,1-4-4V47a4,4,0,0,0,4,4H35.73Z"/><path class="cls-2" d="M57,16V31.46A5.93,5.93,0,0,1,53,33H5a5.93,5.93,0,0,1-4-1.54V16a4,4,0,0,1,4-4H53A4,4,0,0,1,57,16Z"/><rect class="cls-3" x="1" y="12" width="56" height="19" rx="4"/><path class="cls-4" d="M29,35a3,3,0,0,1-3-3V27h6v5A3,3,0,0,1,29,35Z"/><path class="cls-5" d="M59.66,46.31l3-1.71-3-5.2-3,1.71A11.06,11.06,0,0,0,52,38.42V35H46v3.42a11.06,11.06,0,0,0-4.66,2.69l-3-1.71-3,5.2,3,1.71a10.89,10.89,0,0,0,0,5.38l-3,1.71,3,5.2,3-1.71A11.06,11.06,0,0,0,46,59.58V63h6V59.58a11.06,11.06,0,0,0,4.66-2.69l3,1.71,3-5.2-3-1.71A10.89,10.89,0,0,0,59.66,46.31Z"/><path class="cls-6" d="M62.62,53.4l-3,5.2-3-1.71A11.06,11.06,0,0,1,52,59.58V63H46V59.58a11.06,11.06,0,0,1-4.66-2.69l-3,1.71-3-5.2c3.49-2,2.94-1.57,2.9-2a12,12,0,0,0,21.44,0C59.68,51.83,59.13,51.38,62.62,53.4Z"/><path class="cls-7" d="M42,12H38.27l-1-5.36a2,2,0,0,0-2-1.64H22.67a2,2,0,0,0-2,1.64l-1,5.36H16l1.25-6.89A5,5,0,0,1,22.17,1H35.83a5,5,0,0,1,4.92,4.11Z"/><circle class="cls-8" cx="49" cy="49" r="4.67"/><path d="M49,43.33A5.67,5.67,0,1,0,54.67,49,5.68,5.68,0,0,0,49,43.33Zm0,9.34A3.67,3.67,0,1,1,52.67,49,3.68,3.68,0,0,1,49,52.67Z"/><path d="M63.12,52.54l-2.33-1.35a11.52,11.52,0,0,0,0-4.38l2.33-1.35a1,1,0,0,0,.37-1.36l-3-5.2a1,1,0,0,0-1.37-.36L58,39.18V16a5,5,0,0,0-5-5H42.84L41.73,4.93A6,6,0,0,0,35.83,0H22.17a6,6,0,0,0-5.9,4.93L15.16,11H5a5,5,0,0,0-5,5V50a5,5,0,0,0,5,5H35.14c3.25,5.63,2.24,5.33,6.07,3.12A12.19,12.19,0,0,0,45,60.31V63a1,1,0,0,0,1,1h6a1,1,0,0,0,1-1V60.31a12.19,12.19,0,0,0,3.79-2.19l2.33,1.34a1,1,0,0,0,1.37-.36l3-5.2A1,1,0,0,0,63.12,52.54ZM18.23,5.29A4,4,0,0,1,22.17,2H35.83a4,4,0,0,1,3.94,3.29l1,5.71H39.1l-.82-4.54a3,3,0,0,0-3-2.46H22.67a3,3,0,0,0-3,2.46L18.9,11H17.2ZM37.07,11H20.93l.75-4.18a1,1,0,0,1,1-.82H35.33a1,1,0,0,1,1,.82ZM2,16a3,3,0,0,1,3-3H53a3,3,0,0,1,3,3V27a3,3,0,0,1-3,3H33V27a1,1,0,0,0-1-1H26a1,1,0,0,0-1,1v3H5a3,3,0,0,1-3-3ZM27,28h4v4a2,2,0,0,1-4,0ZM2,50V31c1.83,1.39,1,1,23,1a4,4,0,0,0,8,0c21.64,0,21.18.36,23-1v8.3a12.12,12.12,0,0,0-3-1.58V35a1,1,0,0,0-1-1H46a1,1,0,0,0-1,1v2.69a12.19,12.19,0,0,0-3.79,2.19l-2.33-1.34a1,1,0,0,0-1.37.36c-4,6.91-4.22,5.65-.3,7.91a11.52,11.52,0,0,0,0,4.38c-2.55,1.47-2.54,1.38-2.73,1.81H5A3,3,0,0,1,2,50Zm57.26,7.23c-2.1-1.21-2.61-1.72-3.3-1.06C53,59,51,58.08,51,59.58V62H47c0-2.42.19-3.13-.73-3.39-3.94-1.11-4.13-3.34-5.43-2.59l-2.1,1.21-2-3.46c2.1-1.21,2.81-1.4,2.57-2.33a9.83,9.83,0,0,1,0-4.88c.25-1-.66-1.23-2.57-2.33l2-3.46L40.84,42c1.28.74,1.54-1.49,5.43-2.59.92-.26.73-1,.73-3.39h4v2.42c0,1.48,2.08.61,5,3.41.69.66,1.22.14,3.3-1.06l2,3.46C57.35,46.49,59,45.21,59,49s-1.67,2.5,2.26,4.77Z"/></g></svg>