<svg xmlns="http://www.w3.org/2000/svg" xmlns:xlink="http://www.w3.org/1999/xlink" viewBox="0 0 64 64"><defs><style>.cls-1{fill:url(#linear-gradient);}.cls-2{fill:#42455e;}.cls-3{fill:url(#linear-gradient-2);}.cls-4{fill:#cf4055;}.cls-5{fill:url(#linear-gradient-3);}.cls-6{fill:#aae0e5;}.cls-7{fill:url(#linear-gradient-4);}.cls-8{fill:url(#linear-gradient-5);}.cls-9{fill:#dd8b37;}</style><linearGradient id="linear-gradient" x1="32" y1="63" x2="32" y2="1" gradientUnits="userSpaceOnUse"><stop offset="0" stop-color="#474f72"/><stop offset="1" stop-color="#878c9f"/></linearGradient><linearGradient id="linear-gradient-2" x1="37.5" y1="63" x2="37.5" y2="12" gradientUnits="userSpaceOnUse"><stop offset="0" stop-color="#da5466"/><stop offset="1" stop-color="#f4929c"/></linearGradient><linearGradient id="linear-gradient-3" x1="32" y1="47" x2="32" y2="17" gradientUnits="userSpaceOnUse"><stop offset="0" stop-color="#9dd5df"/><stop offset="1" stop-color="#c3e1f5"/></linearGradient><linearGradient id="linear-gradient-4" x1="32" y1="43" x2="32" y2="21" gradientUnits="userSpaceOnUse"><stop offset="0" stop-color="#fbcc88"/><stop offset="1" stop-color="#ffe5c3"/></linearGradient><linearGradient id="linear-gradient-5" x1="32" y1="41" x2="32" y2="23" gradientUnits="userSpaceOnUse"><stop offset="0" stop-color="#e9a254"/><stop offset="1" stop-color="#f4bb79"/></linearGradient></defs><title>SEO</title><g id="SEO"><path class="cls-1" d="M57.19,25.54l5.16-3-7-12.12-5.17,3A26,26,0,0,0,39,7V1H25V7a26,26,0,0,0-11.18,6.46l-5.17-3-7,12.12,5.16,3a26,26,0,0,0,0,12.92l-5.16,3,7,12.12,5.17-3A26,26,0,0,0,25,57v6H39V57a26,26,0,0,0,11.18-6.46l5.17,3,7-12.12-5.16-3A26,26,0,0,0,57.19,25.54Z"/><path class="cls-2" d="M57.19,38.46l5.16,3-7,12.12-5.17-3A26,26,0,0,1,39,57v6H25V57a26,26,0,0,1-11.18-6.46l-5.17,3-7-12.12,5.16-3a26.45,26.45,0,0,1-.77-8A26,26,0,0,0,58,30.5,26.19,26.19,0,0,1,57.19,38.46Z"/><path class="cls-3" d="M63,60.17A2.83,2.83,0,0,1,60.17,63c-1.61,0-1,.18-16.17-15-12.93,9.71-32,.71-32-16A20,20,0,0,1,32,12c16.68,0,25.73,19.06,16,32C63.13,59.13,63,58.55,63,60.17Z"/><path class="cls-4" d="M60.17,63c-1.61,0-1,.18-16.17-15-13.53,10.17-33-.28-32-17,.81,16.1,19.34,24.46,32,15L58.17,60.17a2.83,2.83,0,0,0,4.64-1A2.83,2.83,0,0,1,60.17,63Z"/><circle class="cls-5" cx="32" cy="32" r="15"/><path class="cls-6" d="M47,33A15,15,0,0,0,17,33,15,15,0,1,1,47,33Z"/><circle class="cls-7" cx="32" cy="32" r="11"/><circle class="cls-8" cx="32" cy="32" r="9"/><path class="cls-9" d="M40.94,33a9,9,0,0,0-17.88,0,9,9,0,1,1,17.88,0Z"/><path d="M32,16A16,16,0,1,0,48,32,16,16,0,0,0,32,16Zm0,30A14,14,0,1,1,46,32,14,14,0,0,1,32,46Z"/><path d="M32,20A12,12,0,1,0,44,32,12,12,0,0,0,32,20Zm0,22A10,10,0,1,1,42,32,10,10,0,0,1,32,42Z"/><path d="M31,29h4a1,1,0,0,0,0-2H33V26a1,1,0,0,0-2,0v1a3,3,0,0,0,0,6h2a1,1,0,0,1,0,2H29a1,1,0,0,0,0,2h2v1a1,1,0,0,0,2,0V37a3,3,0,0,0,0-6H31A1,1,0,0,1,31,29Z"/><path d="M62.88,57.46,57.41,52l5.81-10.06a1,1,0,0,0-.37-1.37L58.34,38a27.33,27.33,0,0,0,0-11.94l4.51-2.6a1,1,0,0,0,.37-1.37l-7-12.12a1,1,0,0,0-1.37-.37l-4.52,2.61A27.1,27.1,0,0,0,40,6.21V1a1,1,0,0,0-1-1H25a1,1,0,0,0-1,1V6.21a27.1,27.1,0,0,0-10.33,6L9.15,9.57a1,1,0,0,0-1.37.37l-7,12.12a1,1,0,0,0,.37,1.37L5.66,26A27.33,27.33,0,0,0,5.66,38l-4.51,2.6a1,1,0,0,0-.37,1.37l7,12.12a1,1,0,0,0,1.37.37l4.52-2.61a27.1,27.1,0,0,0,10.33,6V63a1,1,0,0,0,1,1H39a1,1,0,0,0,1-1V57.79a26.88,26.88,0,0,0,8.17-4.21l9.29,9.3a3.83,3.83,0,0,0,5.42-5.42ZM38,57v5H26V57a1,1,0,0,0-.73-1,25,25,0,0,1-10.75-6.22,1,1,0,0,0-1.2-.15L9,52.19,3,41.81c7.43-4.3,4-1.1,4-9.81s3.45-5.51-4-9.81L9,11.81l4.3,2.48a1,1,0,0,0,1.2-.15A25,25,0,0,1,25.27,7.92,1,1,0,0,0,26,7V2H38V7a1,1,0,0,0,.73,1,25,25,0,0,1,10.75,6.22,1,1,0,0,0,1.2.15L55,11.81l6,10.38-4.29,2.48a1,1,0,0,0-.47,1.12,25.11,25.11,0,0,1,0,12.42,1,1,0,0,0,.47,1.12L61,41.81l-5,8.72-6.64-6.64C58.79,30.15,49,11,32,11A21,21,0,0,0,11,32c0,17,19.13,26.8,32.89,17.31l2.86,2.86C40.86,56.49,38,55.36,38,57Zm20.88,4.42L44.71,47.29a1,1,0,0,0-1.31-.09C31,56.5,13,47.72,13,32A19,19,0,0,1,32,13c15.72,0,24.5,18,15.2,30.4a1,1,0,0,0,.09,1.31C62.61,60,62,59.11,62,60.17A1.84,1.84,0,0,1,58.88,61.46Z"/></g></svg>