<svg xmlns="http://www.w3.org/2000/svg" xmlns:xlink="http://www.w3.org/1999/xlink" viewBox="0 0 64 64"><defs><style>.cls-1{fill:url(#linear-gradient);}.cls-2{fill:#c7cdd8;}.cls-3{fill:url(#linear-gradient-2);}.cls-4{fill:url(#linear-gradient-3);}.cls-5{fill:#9ca0ad;}.cls-6{fill:url(#linear-gradient-4);}.cls-7{fill:url(#linear-gradient-5);}.cls-8{fill:#42455e;}.cls-9{fill:url(#linear-gradient-6);}.cls-10{fill:#5b8dc9;}</style><linearGradient id="linear-gradient" x1="32" y1="52" x2="32" y2="1" gradientUnits="userSpaceOnUse"><stop offset="0" stop-color="#d4d8e1"/><stop offset="1" stop-color="#f3f4f5"/></linearGradient><linearGradient id="linear-gradient-2" x1="48.5" y1="63" x2="48.5" y2="33" gradientUnits="userSpaceOnUse"><stop offset="0" stop-color="#474f72"/><stop offset="1" stop-color="#878c9f"/></linearGradient><linearGradient id="linear-gradient-3" x1="32" y1="9" x2="32" y2="1" gradientUnits="userSpaceOnUse"><stop offset="0" stop-color="#a0a6ba"/><stop offset="1" stop-color="#c6ccda"/></linearGradient><linearGradient id="linear-gradient-4" x1="32" y1="50" x2="32" y2="23" xlink:href="#linear-gradient-2"/><linearGradient id="linear-gradient-5" x1="15.5" x2="15.5" xlink:href="#linear-gradient-2"/><linearGradient id="linear-gradient-6" x1="32" y1="63" x2="32" y2="42" gradientUnits="userSpaceOnUse"><stop offset="0" stop-color="#7aa8d7"/><stop offset="1" stop-color="#c3d2e7"/></linearGradient></defs><title>Software Compenies</title><g id="Software_Compenies" data-name="Software Compenies"><path class="cls-1" d="M63,52V1H1V52Z"/><path class="cls-2" d="M63,52V50H1v2Z"/><rect class="cls-3" x="42" y="33" width="13" height="30"/><rect class="cls-4" x="1" y="1" width="62" height="8"/><rect class="cls-5" x="24" y="19" width="16" height="4"/><rect class="cls-6" x="22" y="23" width="20" height="27"/><rect class="cls-7" x="9" y="33" width="13" height="30"/><rect class="cls-8" x="9" y="61" width="13" height="2"/><rect class="cls-8" x="42" y="61" width="13" height="2"/><path class="cls-9" d="M50,63V57H45.67a13.92,13.92,0,0,0-1.89-4.54l3.07-3.07-4.24-4.24-3.07,3.07A13.92,13.92,0,0,0,35,46.33V42H29v4.33a13.92,13.92,0,0,0-4.54,1.89l-3.07-3.07-4.24,4.24,3.07,3.07A13.92,13.92,0,0,0,18.33,57H14v6Z"/><rect class="cls-10" x="14" y="61" width="36" height="2"/><path d="M33,30V28a1,1,0,0,0-2,0v2A1,1,0,0,0,33,30Z"/><path d="M38,30V28a1,1,0,0,0-2,0v2A1,1,0,0,0,38,30Z"/><path d="M28,30V28a1,1,0,0,0-2,0v2A1,1,0,0,0,28,30Z"/><path d="M33,37V35a1,1,0,0,0-2,0v2A1,1,0,0,0,33,37Z"/><path d="M38,37V35a1,1,0,0,0-2,0v2A1,1,0,0,0,38,37Z"/><path d="M28,37V35a1,1,0,0,0-2,0v2A1,1,0,0,0,28,37Z"/><path d="M26.29,52.29l-3,3a1,1,0,0,0,0,1.42l3,3a1,1,0,0,0,1.42-1.42L25.41,56l2.3-2.29A1,1,0,0,0,26.29,52.29Z"/><path d="M37.71,52.29a1,1,0,0,0-1.42,1.42L38.59,56l-2.3,2.29A1,1,0,0,0,37,60c.55,0,.43,0,3.71-3.29a1,1,0,0,0,0-1.42Z"/><path d="M32.05,52.68l-2,6A1,1,0,0,0,31,60c1,0,.83-.32,3-6.68A1,1,0,0,0,32.05,52.68Z"/><path d="M13,39h5a1,1,0,0,0,0-2H13A1,1,0,0,0,13,39Z"/><path d="M13,44h5a1,1,0,0,0,0-2H13A1,1,0,0,0,13,44Z"/><path d="M51,37H46a1,1,0,0,0,0,2h5A1,1,0,0,0,51,37Z"/><path d="M51,42H46a1,1,0,0,0,0,2h5A1,1,0,0,0,51,42Z"/><path d="M63,0H1A1,1,0,0,0,0,1V52a1,1,0,0,0,1,1H8v9H1a1,1,0,0,0,0,2H63a1,1,0,0,0,0-2H56V53h7a1,1,0,0,0,1-1V1A1,1,0,0,0,63,0ZM2,2H62V8H2Zm8,32H21V44.23c-.26.11-.14,0-2.9,2.79-.27,0,1,0-5.1,0a1,1,0,0,0,0,2h3.23c-.36.86.35,1.24,2.27,3.15-.36-.21-.06-.15-5.5-.15a1,1,0,0,0,0,2c5.54,0,5,0,5.31-.06A13.75,13.75,0,0,0,17.55,56H14a1,1,0,0,0-1,1v5H10ZM39,22H25V20H39Zm2,2V45.35L39.39,47A15.19,15.19,0,0,0,36,45.55V42a1,1,0,0,0-1-1H29a1,1,0,0,0-1,1v3.55A15.19,15.19,0,0,0,24.61,47L23,45.35V24ZM18.93,52.67c-.05-.15-.17-.26,0-.06ZM15,62V58c6.59,0,2.55.46,6.06-5a1,1,0,0,0-.13-1.25l-2.37-2.36,2.83-2.83c4.7,4.71,1.55,2.13,7.82.75a1,1,0,0,0,.79-1V43h4c0,6.59-.46,2.55,5,6.06a1,1,0,0,0,1.25-.13l2.36-2.37,2.83,2.83-2.37,2.36c-1,1,.77,1.57,1.62,5.46a1,1,0,0,0,1,.79H49v4Zm30-9.39c.2-.2.08-.09,0,.06ZM51,62V57a1,1,0,0,0-1-1H46.45a13.75,13.75,0,0,0-.76-2.06C46,54,45.46,54,51,54a1,1,0,0,0,0-2c-5.41,0-5.14-.06-5.5.15,2-2,2.62-2.33,2.27-3.15H51a1,1,0,0,0,0-2c-6.38,0-4.84,0-5.1,0-2.77-2.77-2.63-2.68-2.9-2.78V34H54V62Zm5-11V33a1,1,0,0,0-1-1H43V23a1,1,0,0,0-1-1H41V19a1,1,0,0,0-1-1H24a1,1,0,0,0-1,1v3H22a1,1,0,0,0-1,1v9H9a1,1,0,0,0-1,1V51H2V10H62V51Z"/><path d="M6,4A1,1,0,0,0,6,6,1,1,0,0,0,6,4Z"/><path d="M11,4a1,1,0,0,0,0,2A1,1,0,0,0,11,4Z"/><path d="M16,4a1,1,0,0,0,0,2A1,1,0,0,0,16,4Z"/></g></svg>