<svg xmlns="http://www.w3.org/2000/svg" xmlns:xlink="http://www.w3.org/1999/xlink" viewBox="0 0 64 64"><defs><style>.cls-1{fill:url(#linear-gradient);}.cls-2{fill:#c7cdd8;}.cls-3{fill:url(#linear-gradient-2);}.cls-4{fill:url(#linear-gradient-3);}.cls-5{fill:#77cacb;}.cls-6{fill:url(#linear-gradient-4);}.cls-7{fill:url(#linear-gradient-5);}.cls-8{fill:url(#linear-gradient-6);}.cls-9{fill:url(#linear-gradient-7);}.cls-10{fill:#aae0e5;}</style><linearGradient id="linear-gradient" x1="32" y1="52" x2="32" y2="1" gradientUnits="userSpaceOnUse"><stop offset="0" stop-color="#d4d8e1"/><stop offset="1" stop-color="#f3f4f5"/></linearGradient><linearGradient id="linear-gradient-2" x1="32" y1="9" x2="32" y2="1" gradientUnits="userSpaceOnUse"><stop offset="0" stop-color="#a0a6ba"/><stop offset="1" stop-color="#c6ccda"/></linearGradient><linearGradient id="linear-gradient-3" x1="32" y1="63" x2="32" y2="21" gradientUnits="userSpaceOnUse"><stop offset="0" stop-color="#9dd5df"/><stop offset="1" stop-color="#c3e1f5"/></linearGradient><linearGradient id="linear-gradient-4" x1="13.63" y1="61.96" x2="13.63" y2="28.03" gradientUnits="userSpaceOnUse"><stop offset="0" stop-color="#8cdd79"/><stop offset="1" stop-color="#d4e6b6"/></linearGradient><linearGradient id="linear-gradient-5" x1="15.03" y1="26.63" x2="48.97" y2="26.63" gradientUnits="userSpaceOnUse"><stop offset="0" stop-color="#fbcc88"/><stop offset="1" stop-color="#ffe5c3"/></linearGradient><linearGradient id="linear-gradient-6" x1="50.37" y1="28.03" x2="50.37" y2="61.96" gradientUnits="userSpaceOnUse"><stop offset="0" stop-color="#da5466"/><stop offset="1" stop-color="#f4929c"/></linearGradient><linearGradient id="linear-gradient-7" y1="47" y2="33" xlink:href="#linear-gradient"/></defs><title>Speed</title><g id="Speed"><path class="cls-1" d="M63,52V1H1V52Z"/><path class="cls-2" d="M63,52V50H1v2Z"/><rect class="cls-3" x="1" y="1" width="62" height="8"/><path class="cls-4" d="M47.86,63H16.14C-.46,48.32,10,21,32,21S64.44,48.34,47.86,63Z"/><path class="cls-5" d="M50.72,60a23.84,23.84,0,0,1-2.86,3H16.14a23.84,23.84,0,0,1-2.86-3Z"/><path class="cls-6" d="M19.27,57.73,15,62A24,24,0,0,1,15,28l4.24,4.24A18,18,0,0,0,19.27,57.73Z"/><path class="cls-7" d="M49,28l-4.24,4.24a18,18,0,0,0-25.46,0L15,28A24,24,0,0,1,49,28Z"/><path class="cls-8" d="M49,62l-4.23-4.23a18,18,0,0,0,0-25.46L49,28A24,24,0,0,1,49,62Z"/><path class="cls-9" d="M32,33s2,9,2,12a2,2,0,0,1-4,0C30,42,32,33,32,33Z"/><path class="cls-10" d="M49.94,46.5a18,18,0,0,0-35.88,0,18,18,0,1,1,35.88,0Z"/><path d="M63,0H1A1,1,0,0,0,0,1V52a1,1,0,0,0,1,1H8.32c1.53,4.52,6.16,11,7.82,11,34,0,31.8,0,32.09-.07.58-.24,5.28-4.51,7.45-10.93H63a1,1,0,0,0,1-1V1A1,1,0,0,0,63,0ZM2,2H62V8H2ZM47.53,28.05l-2.84,2.84A18.83,18.83,0,0,0,33,26.05V22A22.91,22.91,0,0,1,47.53,28.05ZM55,44H51a18.83,18.83,0,0,0-4.84-11.69L49,29.47A22.91,22.91,0,0,1,55,44ZM49,60.53,46.11,57.7A18.88,18.88,0,0,0,51,46h4A23,23,0,0,1,49,60.53ZM31,26.05a18.77,18.77,0,0,0-11.69,4.84l-2.84-2.84A22.91,22.91,0,0,1,31,22ZM15.05,29.47l2.84,2.83A18.88,18.88,0,0,0,13.05,44H9A22.91,22.91,0,0,1,15.05,29.47Zm0,31.06A23,23,0,0,1,9,46h4a18.88,18.88,0,0,0,4.84,11.7ZM16.52,62c-.1-.09-.31.21,3.46-3.56h0c1.63-1.63-5-3.82-5-13.44a17,17,0,0,1,34,0c0,8.9-5.6,11.42-5.23,13,0,.16,0,.08.16.34,0,.05,0,.1.09.14h0c3.77,3.77,3.56,3.47,3.46,3.56ZM56.26,51A25,25,0,0,0,14.37,27.29C9,32.08,5.44,41.71,7.74,51H2V10H62V51Z"/><path d="M6,4A1,1,0,0,0,6,6,1,1,0,0,0,6,4Z"/><path d="M11,4a1,1,0,0,0,0,2A1,1,0,0,0,11,4Z"/><path d="M16,4a1,1,0,0,0,0,2A1,1,0,0,0,16,4Z"/><path d="M32,48a3,3,0,0,0,3-3c0-3.07-1.94-11.84-2-12.22a1,1,0,0,0-2,0c-.08.38-2,9.15-2,12.22A3,3,0,0,0,32,48Zm0-10a49.7,49.7,0,0,1,1,7,1,1,0,0,1-2,0A49.7,49.7,0,0,1,32,38Z"/><path d="M38,53H26a1,1,0,0,0,0,2H38A1,1,0,0,0,38,53Z"/></g></svg>