<svg xmlns="http://www.w3.org/2000/svg" xmlns:xlink="http://www.w3.org/1999/xlink" viewBox="0 0 64 64"><defs><style>.cls-1{fill:url(#linear-gradient);}.cls-2{fill:#c7cdd8;}.cls-3{fill:url(#linear-gradient-2);}.cls-4{fill:#5b8dc9;}.cls-5{fill:url(#linear-gradient-3);}.cls-6{fill:url(#linear-gradient-4);}.cls-7{fill:url(#linear-gradient-5);}.cls-8{fill:url(#linear-gradient-6);}.cls-9{fill:#77cacb;}</style><linearGradient id="linear-gradient" x1="32" y1="41" x2="32" y2="1" gradientUnits="userSpaceOnUse"><stop offset="0" stop-color="#d4d8e1"/><stop offset="1" stop-color="#f3f4f5"/></linearGradient><linearGradient id="linear-gradient-2" x1="31" y1="63" x2="31" y2="51" gradientUnits="userSpaceOnUse"><stop offset="0" stop-color="#7aa8d7"/><stop offset="1" stop-color="#c3d2e7"/></linearGradient><linearGradient id="linear-gradient-3" y1="55" y2="43" xlink:href="#linear-gradient-2"/><linearGradient id="linear-gradient-4" y1="47" y2="35" xlink:href="#linear-gradient-2"/><linearGradient id="linear-gradient-5" y1="39" y2="31.54" xlink:href="#linear-gradient-2"/><linearGradient id="linear-gradient-6" x1="31" y1="35" x2="31" y2="13" gradientUnits="userSpaceOnUse"><stop offset="0" stop-color="#9dd5df"/><stop offset="1" stop-color="#c3e1f5"/></linearGradient></defs><title>Sync Data</title><g id="Sync_Data" data-name="Sync Data"><path class="cls-1" d="M55.51,22.48a8.21,8.21,0,0,0-9.74-8.39,16.47,16.47,0,0,0-32.59,3.38,11.77,11.77,0,1,0,0,23.53h40a9.41,9.41,0,0,0,2.33-18.52Z"/><path class="cls-2" d="M53.18,41h-40A11.76,11.76,0,0,1,1.47,28.08,11.77,11.77,0,0,0,13.18,38.65h40a9.42,9.42,0,0,0,9.33-8.2A9.4,9.4,0,0,1,53.18,41Z"/><path class="cls-3" d="M47,51v8c0,2.21-7.16,4-16,4s-16-1.79-16-4V51c0,2.21,7.16,4,16,4S47,53.21,47,51Z"/><path class="cls-4" d="M47,57v2c0,2.21-7.16,4-16,4s-16-1.79-16-4V57c0,2.21,7.16,4,16,4S47,59.21,47,57Z"/><path class="cls-5" d="M47,43v8c0,2.21-7.16,4-16,4s-16-1.79-16-4V43c0,2.21,7.16,4,16,4S47,45.21,47,43Z"/><path class="cls-6" d="M47,35v8c0,2.21-7.16,4-16,4s-16-1.79-16-4V35c0,2.21,7.16,4,16,4S47,37.21,47,35Z"/><path class="cls-7" d="M31,39c-16,0-22.34-5.39-8-7.46H39C53.37,33.61,47,39,31,39Z"/><circle class="cls-8" cx="31" cy="24" r="11"/><path class="cls-9" d="M31,35A11,11,0,0,1,20.05,23,11,11,0,0,0,42,23,11,11,0,0,1,31,35Z"/><path d="M56.52,21.74a9.24,9.24,0,0,0-10-8.76,17.47,17.47,0,0,0-34.32,3.53A12.79,12.79,0,0,0,.41,29.24C.41,35.68,5.28,42,14,42V59c0,6.65,34,6.66,34,0V42h5.18a10.4,10.4,0,0,0,3.34-20.26ZM31,34A10,10,0,1,1,41,24,10,10,0,0,1,31,34Zm-8.35-1.4a12,12,0,0,0,16.7,0C44.82,33.46,46,34.77,46,35c0,.87-5.26,3-15,3s-15-2.13-15-3C16,34.77,17.18,33.46,22.65,32.6ZM46,51c0,.87-5.26,3-15,3s-15-2.13-15-3V45.54c6,3.25,24,3.26,30,0Zm0-8c0,.87-5.26,3-15,3s-15-2.13-15-3V37.54c6,3.25,24,3.26,30,0ZM31,62c-9.74,0-15-2.13-15-3V53.54c6,3.25,24,3.26,30,0V59C46,59.87,40.74,62,31,62ZM53.18,40H48V35c0-2.26-3.58-3.5-7.15-4.17a12,12,0,1,0-19.7,0C17.58,31.5,14,32.74,14,35v5h-.82a10.77,10.77,0,1,1,0-21.53,1,1,0,0,0,1-1,15.47,15.47,0,0,1,30.61-3.18,1,1,0,0,0,1.16.78c5-.92,8.94,3.42,8.57,7.31a1,1,0,0,0,.74,1.07A8.41,8.41,0,0,1,53.18,40Z"/><path d="M31,17c-.1,0,0,.18-.06-1.08a1,1,0,0,0-1.71-.69l-2,2a1,1,0,0,0,0,1.42C29.42,20.83,29.45,21,30,21a1,1,0,0,0,1-1V19a5,5,0,0,1,4.17,7.77A1,1,0,0,0,36,28.33c1.32,0,2-3,2-4.33A7,7,0,0,0,31,17Z"/><path d="M31,42a1,1,0,0,0,0,2A1,1,0,0,0,31,42Z"/><path d="M35,42a1,1,0,0,0,0,2A1,1,0,0,0,35,42Z"/><path d="M27,42a1,1,0,0,0,0,2A1,1,0,0,0,27,42Z"/><path d="M30,51a1,1,0,0,0,2,0A1,1,0,0,0,30,51Z"/><path d="M35,52a1,1,0,0,0,0-2A1,1,0,0,0,35,52Z"/><path d="M27,50a1,1,0,0,0,0,2A1,1,0,0,0,27,50Z"/><path d="M31,58a1,1,0,0,0,0,2A1,1,0,0,0,31,58Z"/><path d="M35,58a1,1,0,0,0,0,2A1,1,0,0,0,35,58Z"/><path d="M27,58a1,1,0,0,0,0,2A1,1,0,0,0,27,58Z"/><path d="M32.71,27.23A1,1,0,0,0,31,28L31,29a5,5,0,0,1-4.18-7.77,1,1,0,0,0-1.66-1.12A7,7,0,0,0,31,31c.1,0,0-.18.06,1a1,1,0,0,0,1,1c.54,0,.57-.15,2.71-2.29a1,1,0,0,0,0-1.42Z"/></g></svg>