<svg xmlns="http://www.w3.org/2000/svg" xmlns:xlink="http://www.w3.org/1999/xlink" viewBox="0 0 64 64"><defs><style>.cls-1{fill:url(#linear-gradient);}.cls-2{fill:#cf4055;}.cls-3{fill:url(#linear-gradient-2);}.cls-4{fill:#42455e;}.cls-5{fill:url(#linear-gradient-3);}.cls-6{fill:url(#linear-gradient-4);}.cls-7{fill:#f2a961;}</style><linearGradient id="linear-gradient" x1="32" y1="58.92" x2="32" y2="5.08" gradientUnits="userSpaceOnUse"><stop offset="0" stop-color="#da5466"/><stop offset="1" stop-color="#f4929c"/></linearGradient><linearGradient id="linear-gradient-2" x1="32" y1="48" x2="32" y2="16" gradientUnits="userSpaceOnUse"><stop offset="0" stop-color="#474f72"/><stop offset="1" stop-color="#878c9f"/></linearGradient><linearGradient id="linear-gradient-3" x1="18.2" y1="31" x2="18.2" y2="28.58" xlink:href="#linear-gradient-2"/><linearGradient id="linear-gradient-4" x1="32" y1="42" x2="32" y2="22" gradientUnits="userSpaceOnUse"><stop offset="0" stop-color="#e9a254"/><stop offset="1" stop-color="#f4bb79"/></linearGradient></defs><title>Target</title><g id="Target"><path class="cls-1" d="M34,5.08H30A27,27,0,0,0,5.08,30v4A27,27,0,0,0,30,58.92h4A27,27,0,0,0,58.92,34V30A27,27,0,0,0,34,5.08ZM54.91,34A23,23,0,0,1,34,54.91H30A23,23,0,0,1,9.09,34V30A23,23,0,0,1,30,9.09h4A23,23,0,0,1,54.91,30Z"/><path class="cls-2" d="M30,11V3a2,2,0,0,1,4,0v8A2,2,0,0,1,30,11Z"/><path class="cls-2" d="M30,61V53a2,2,0,0,1,4,0v8A2,2,0,0,1,30,61Z"/><path class="cls-2" d="M53,30h8a2,2,0,0,1,0,4H53A2,2,0,0,1,53,30Z"/><path class="cls-2" d="M3,30h8a2,2,0,0,1,0,4H3A2,2,0,0,1,3,30Z"/><path class="cls-3" d="M45.61,28.76l2.25-1.3-4-6.92-2.25,1.29A14,14,0,0,0,36,18.59V16H28v2.59a14,14,0,0,0-5.61,3.24l-2.25-1.29-4,6.92,2.25,1.3a13.65,13.65,0,0,0,0,6.48l-2.25,1.3,4,6.92,2.25-1.29A14,14,0,0,0,28,45.41V48h8V45.41a14,14,0,0,0,5.61-3.24l2.25,1.29,4-6.92-2.25-1.3A13.65,13.65,0,0,0,45.61,28.76Z"/><path class="cls-4" d="M45.61,35.24l2.25,1.3-4,6.92-2.25-1.29A14,14,0,0,1,36,45.41V48H28V45.41a14,14,0,0,1-5.61-3.24l-2.25,1.29-4-6.92,2.25-1.3A13.73,13.73,0,0,1,18,31,14,14,0,0,0,46,31,13.41,13.41,0,0,1,45.61,35.24Z"/><path class="cls-5" d="M18.08,28.58c.63.37.13-.19,0,2.42A12.51,12.51,0,0,1,18.08,28.58Z"/><circle class="cls-6" cx="32" cy="32" r="10"/><circle class="cls-6" cx="32" cy="32" r="10"/><path class="cls-7" d="M42,33a10,10,0,0,0-19.9,0A10,10,0,1,1,42,33Z"/><path d="M61,29H59.83A28.13,28.13,0,0,0,35,4.17V3a3,3,0,0,0-6,0V4.17A28.13,28.13,0,0,0,4.17,29H3a3,3,0,0,0,0,6H4.17A28.13,28.13,0,0,0,29,59.83V61a3,3,0,0,0,6,0V59.83A28.13,28.13,0,0,0,59.83,35H61a3,3,0,0,0,0-6Zm-3.21,0h-2A23.87,23.87,0,0,0,35,8.21v-2A26.06,26.06,0,0,1,57.79,29ZM53,35h.77A21.85,21.85,0,0,1,35,53.77V53a3,3,0,0,0-6,0v.77A21.85,21.85,0,0,1,10.23,35H11a3,3,0,0,0,0-6h-.77A21.85,21.85,0,0,1,29,10.23V11a3,3,0,0,0,6,0v-.77A21.85,21.85,0,0,1,53.77,29H53a3,3,0,0,0,0,6ZM31,3a1,1,0,0,1,2,0v8a1,1,0,0,1-2,0ZM29,6.21v2A23.87,23.87,0,0,0,8.21,29h-2A26.06,26.06,0,0,1,29,6.21ZM3,31h8a1,1,0,0,1,0,2H3A1,1,0,0,1,3,31Zm3.21,4h2A23.87,23.87,0,0,0,29,55.79v2A26.06,26.06,0,0,1,6.21,35ZM33,61a1,1,0,0,1-2,0V53a1,1,0,0,1,2,0Zm2-3.21v-2A23.87,23.87,0,0,0,55.79,35h2A26.06,26.06,0,0,1,35,57.79ZM61,33H53a1,1,0,0,1,0-2h8A1,1,0,0,1,61,33Z"/><path d="M32,21A11,11,0,1,0,43,32,11,11,0,0,0,32,21Zm0,20a9,9,0,1,1,9-9A9,9,0,0,1,32,41Z"/><path d="M31,29h4a1,1,0,0,0,0-2H33V26a1,1,0,0,0-2,0v1a3,3,0,0,0,0,6h2a1,1,0,0,1,0,2H29a1,1,0,0,0,0,2h2v1a1,1,0,0,0,2,0V37a3,3,0,0,0,0-6H31A1,1,0,0,1,31,29Z"/><path d="M44.72,20a1,1,0,0,0-1.36-.37l-1.62.94A15.16,15.16,0,0,0,37,17.86V16a1,1,0,0,0-1-1H28a1,1,0,0,0-1,1v1.86a15.16,15.16,0,0,0-4.74,2.75l-1.62-.94a1,1,0,0,0-1.36.37l-4,6.92a1,1,0,0,0,.36,1.37l1.62.93a14.43,14.43,0,0,0,0,5.48l-1.62.93A1,1,0,0,0,15.28,37l4,6.92a1,1,0,0,0,1.36.37l1.62-.94A15.16,15.16,0,0,0,27,46.14V48a1,1,0,0,0,1,1h8a1,1,0,0,0,1-1V46.14a15.16,15.16,0,0,0,4.74-2.75l1.62.94A1,1,0,0,0,44.72,44c4.92-8.52,5.23-7.37,2-9.22a14.43,14.43,0,0,0,0-5.48C49.85,27.47,49.72,28.69,44.72,20Zm-.08,9a12.76,12.76,0,0,1,0,6c-.21.87.47,1.1,1.85,1.89l-3,5.2-1.38-.8c-1.36-.78-1.65,1.74-6.4,3.15-.85.26-.71,1-.71,2.55H29V45.41c0-1.56-2.29-.54-5.92-4-.65-.62-1.19-.14-2.57.66l-3-5.2c3-1.74,1.49-.66,1.49-4.9s1.53-3.16-1.49-4.9l3-5.2,1.38.8a1,1,0,0,0,1.19-.14c3.62-3.42,5.92-2.41,5.92-4V17h6c0,1.5-.17,2.28.71,2.55,4.74,1.41,5,3.94,6.4,3.15l1.38-.8,3,5.2C45.11,27.9,44.43,28.12,44.64,29Z"/></g></svg>