<svg xmlns="http://www.w3.org/2000/svg" xmlns:xlink="http://www.w3.org/1999/xlink" viewBox="0 0 64 64"><defs><style>.cls-1{fill:url(#linear-gradient);}.cls-2{fill:url(#linear-gradient-2);}.cls-3{fill:#dd8b37;}.cls-4{fill:#5b8dc9;}.cls-5{fill:url(#linear-gradient-3);}.cls-6{fill:#c7cdd8;}</style><linearGradient id="linear-gradient" x1="35.74" y1="10.24" x2="52" y2="10.24" gradientUnits="userSpaceOnUse"><stop offset="0" stop-color="#e9a254"/><stop offset="1" stop-color="#f4bb79"/></linearGradient><linearGradient id="linear-gradient-2" x1="16.5" y1="57.65" x2="16.5" y2="9" gradientUnits="userSpaceOnUse"><stop offset="0" stop-color="#7aa8d7"/><stop offset="1" stop-color="#c3d2e7"/></linearGradient><linearGradient id="linear-gradient-3" x1="34.5" y1="63" x2="34.5" y2="8" gradientUnits="userSpaceOnUse"><stop offset="0" stop-color="#d4d8e1"/><stop offset="1" stop-color="#f3f4f5"/></linearGradient></defs><title>Unicorn</title><g id="Unicorn"><polygon class="cls-1" points="52 1 44.36 17.57 43.48 19.48 35.74 15.32 37.58 13.7 52 1"/><path class="cls-2" d="M32,9v6L6.78,57.65,4.85,57.1,1,56C3.68,42.57,9,23.63,19,14.43a20.51,20.51,0,0,1,7.85-4.67A17.63,17.63,0,0,1,32,9Z"/><path class="cls-3" d="M44.36,17.57l-.88,1.91-7.74-4.16,1.84-1.62A15.77,15.77,0,0,1,44.36,17.57Z"/><path class="cls-4" d="M32,13v2L6.78,57.65,4.85,57.1C7,45,12.31,28.06,19.63,19.52l9.91-6.29A13.4,13.4,0,0,1,32,13Z"/><path class="cls-5" d="M62.22,38.94l-2.69,7.22a3.38,3.38,0,0,1-3.77,1C41,41.61,42.09,42,42,42c-1.82,1.29-1.36.88-1.51,1-2.73,4.36-1.21,14.79.52,20H6c1.28-12,7.3-33.86,15.85-43A17.7,17.7,0,0,1,21,15a13.83,13.83,0,0,1,2-7l5.75,7.48A11,11,0,0,1,32,15c5.29,0,8.6,1.6,11.48,4.48,5.88,5.8.13,2.3,18.06,14.52A3.38,3.38,0,0,1,62.22,38.94Z"/><path class="cls-6" d="M41,63H6s.13-1.22.39-3H40.18C40.61,61.83,41,63,41,63Z"/><path d="M62.1,33.17C46,22.17,50.21,25,44.67,19.28L52.91,1.42A1,1,0,0,0,51.34.25l-15.92,14A22.35,22.35,0,0,0,33,14V9a1,1,0,0,0-1-1,18.53,18.53,0,0,0-6.75,1.29l-1.46-1.9a1,1,0,0,0-1.62.06A14.32,14.32,0,0,0,20.33,12C8.76,20.66,2.83,41.7,0,55.8A1,1,0,0,0,.73,57l4.92,1.41C5.22,60.88,5,62.79,5,62.9A1,1,0,0,0,6,64c1.41,0,.7-1.12,2.09-7.8C10,47.06,14.18,30.87,21.48,22c.33.85.6,1.39.63,1.45a1,1,0,0,0,1.78-.9A19.86,19.86,0,0,1,22,15a12.7,12.7,0,0,1,1.16-5.16l9.05,11.77a1,1,0,0,0,1.58-1.22L30.5,16.11A10.59,10.59,0,0,1,32,16c5.09,0,8.12,1.53,10.78,4.19,6,5.94.07,2.28,18.19,14.64a2.33,2.33,0,0,1,1,2,3.3,3.3,0,0,1-.72,1.81l-2.62,7a2.37,2.37,0,0,1-2.55.58C39.41,40,42.72,40.57,40,42.13a12.43,12.43,0,0,1-15.3-1.84,1,1,0,0,0-1.42,1.42A14.48,14.48,0,0,0,38.64,45c-1.38,5.38-.34,13.06,1.41,18.3a1,1,0,0,0,1.9-.64c-1.57-4.72-3.11-14.6-.71-19,.4-.24.47-.3.9-.6,14.24,5.34,13.69,5.25,14.79,5.25a4.21,4.21,0,0,0,3.54-1.86l2.63-7.07A4.38,4.38,0,0,0,62.1,33.17ZM6,56.39l-3.85-1.1C4.82,42.34,10.17,23.6,20,14.87a17.69,17.69,0,0,0,.74,4.93C13,28.39,8.25,45.11,6,56.39ZM43.15,17.81a14.54,14.54,0,0,0-5.33-3L49.11,4.88ZM26.53,10.94A16.58,16.58,0,0,1,31,10.05v4a12.87,12.87,0,0,0-1.86.3Z"/></g></svg>