<svg xmlns="http://www.w3.org/2000/svg" xmlns:xlink="http://www.w3.org/1999/xlink" viewBox="0 0 64 64"><defs><style>.cls-1{fill:url(#linear-gradient);}.cls-2{fill:url(#linear-gradient-2);}.cls-3{fill:#77cacb;}.cls-4{fill:url(#linear-gradient-3);}.cls-5{fill:url(#linear-gradient-4);}.cls-6{fill:url(#linear-gradient-5);}.cls-7{fill:url(#linear-gradient-6);}.cls-8{fill:#c7cdd8;}.cls-9{fill:#42455e;}.cls-10{fill:url(#linear-gradient-7);}.cls-11{fill:url(#linear-gradient-8);}.cls-12{fill:#f6b756;}.cls-13{fill:#5b8dc9;}</style><linearGradient id="linear-gradient" x1="32" y1="63" x2="32" y2="1" gradientUnits="userSpaceOnUse"><stop offset="0" stop-color="#474f72"/><stop offset="1" stop-color="#878c9f"/></linearGradient><linearGradient id="linear-gradient-2" x1="32" y1="59" x2="32" y2="5" gradientUnits="userSpaceOnUse"><stop offset="0" stop-color="#9dd5df"/><stop offset="1" stop-color="#c3e1f5"/></linearGradient><linearGradient id="linear-gradient-3" x1="49" y1="54" x2="49" y2="34" gradientUnits="userSpaceOnUse"><stop offset="0" stop-color="#fbcc88"/><stop offset="1" stop-color="#ffe5c3"/></linearGradient><linearGradient id="linear-gradient-4" x1="49" y1="45.82" x2="49" y2="37.64" gradientUnits="userSpaceOnUse"><stop offset="0" stop-color="#7aa8d7"/><stop offset="1" stop-color="#c3d2e7"/></linearGradient><linearGradient id="linear-gradient-5" y1="53.99" y2="45.83" xlink:href="#linear-gradient-4"/><linearGradient id="linear-gradient-6" x1="16" y1="53" x2="16" y2="41" gradientUnits="userSpaceOnUse"><stop offset="0" stop-color="#d4d8e1"/><stop offset="1" stop-color="#f3f4f5"/></linearGradient><linearGradient id="linear-gradient-7" x1="49" y1="27" x2="49" y2="13" xlink:href="#linear-gradient-6"/><linearGradient id="linear-gradient-8" x1="15" y1="31" x2="15" y2="13" xlink:href="#linear-gradient-3"/></defs><title>User Experience</title><g id="User_Experience" data-name="User Experience"><rect class="cls-1" x="13" y="1" width="38" height="62" rx="4"/><path class="cls-2" d="M47,5V59H17V5h7a2,2,0,0,0,2,2H38a2,2,0,0,0,2-2Z"/><rect class="cls-3" x="17" y="57" width="30" height="2"/><circle class="cls-4" cx="49" cy="44" r="10"/><path class="cls-5" d="M49,45.82a3.64,3.64,0,0,1-3.64-3.64v-.91a3.64,3.64,0,0,1,7.28,0v.91A3.64,3.64,0,0,1,49,45.82Z"/><path class="cls-6" d="M55.48,51.61a10,10,0,0,1-13,0l.5-1.48A6.31,6.31,0,0,1,55,50.05S55.47,51.58,55.48,51.61Z"/><rect class="cls-7" x="1" y="41" width="30" height="12"/><rect class="cls-8" x="1" y="51" width="30" height="2"/><rect class="cls-9" x="13" y="53" width="4" height="2"/><rect class="cls-3" x="17" y="53" width="14" height="2"/><rect class="cls-10" x="35" y="13" width="28" height="14"/><rect class="cls-8" x="35" y="25" width="28" height="2"/><rect class="cls-9" x="47" y="27" width="4" height="2"/><rect class="cls-3" x="35" y="27" width="12" height="2"/><rect class="cls-11" x="4" y="13" width="22" height="18"/><rect class="cls-12" x="4" y="29" width="22" height="2"/><rect class="cls-9" x="13" y="31" width="4" height="2"/><rect class="cls-3" x="17" y="31" width="9" height="2"/><path class="cls-12" d="M43.05,50.05s-.52,1.53-.53,1.56A10,10,0,0,1,39.05,43,10,10,0,0,0,43.05,50.05Z"/><path class="cls-12" d="M55.48,51.61,55,50.13c-.1-.3,3.47-2.12,4-7.11A10,10,0,0,1,55.48,51.61Z"/><path class="cls-13" d="M55.48,51.61a10,10,0,0,1-13,0s.51-1.53.53-1.56a10,10,0,0,0,6,2c4,0,5.89-2.13,6-1.87Z"/><path d="M29,4a1,1,0,0,0-2,0A1,1,0,0,0,29,4Z"/><path d="M37,4a1,1,0,0,0-2,0A1,1,0,0,0,37,4Z"/><path d="M63,12H52V5a5,5,0,0,0-5-5H17a5,5,0,0,0-5,5v7H4a1,1,0,0,0-1,1V31a1,1,0,0,0,1,1h8v8H1a1,1,0,0,0-1,1V53a1,1,0,0,0,1,1H12v5a5,5,0,0,0,5,5H47a5,5,0,0,0,5-5V54.59c10.67-3.05,10.58-18.16,0-21.16V28H63a1,1,0,0,0,1-1V13A1,1,0,0,0,63,12ZM14,5a3,3,0,0,1,3-3H47a3,3,0,0,1,3,3v7H48V5a1,1,0,0,0-1-1H40a1,1,0,0,0-1,1,1,1,0,0,1-1,1H26a1,1,0,0,1-1-1,1,1,0,0,0-1-1H17a1,1,0,0,0-1,1v7H14Zm21,7a1,1,0,0,0-1,1V27a1,1,0,0,0,1,1H46v5.43c-10.54,3-10.65,17.89-.22,21.09.31.09.22-.37.22,3.48H18V54H31a1,1,0,0,0,1-1V41a1,1,0,0,0-1-1H18V32h8a1,1,0,0,0,1-1V13a1,1,0,0,0-1-1H18V6h5.17A3,3,0,0,0,26,8H38a3,3,0,0,0,2.83-2H46v6ZM51.64,42.18a2.64,2.64,0,1,1-5.28,0v-.91a2.64,2.64,0,0,1,5.28,0ZM54,50.45l.27.8a8.93,8.93,0,0,1-10.61,0l.28-.81A5.31,5.31,0,0,1,54,50.45ZM5,14H25V30H5Zm9,18h2v8H14ZM2,42H30V52H2ZM47,62H17a3,3,0,0,1-3-3V54h2v5a1,1,0,0,0,1,1H47a1,1,0,0,0,1-1V55a9.55,9.55,0,0,0,2,0v4A3,3,0,0,1,47,62Zm8.91-12.24a7.23,7.23,0,0,0-3.73-4.22,5.09,5.09,0,0,0,1.46-4.27,4.64,4.64,0,0,0-9.28,0c0,1.46,0,2.86,1.46,4.27a7.2,7.2,0,0,0-3.73,4.22,9,9,0,1,1,13.82,0ZM50,33.05a9.55,9.55,0,0,0-2,0V28h2Zm12-7H36V14H62Z"/><path d="M22,48H6a1,1,0,0,0,0,2H22A1,1,0,0,0,22,48Z"/><path d="M6,46H26a1,1,0,0,0,0-2H6A1,1,0,0,0,6,46Z"/><path d="M14,27V21a1,1,0,0,0-2,0v6A1,1,0,0,0,14,27Z"/><path d="M8,25v2a1,1,0,0,0,2,0V25A1,1,0,0,0,8,25Z"/><path d="M18,27V22a1,1,0,0,0-2,0v5A1,1,0,0,0,18,27Z"/><path d="M22,27V17a1,1,0,0,0-2,0V27A1,1,0,0,0,22,27Z"/><path d="M42.29,16.29l-3,3a1,1,0,0,0,0,1.42l3,3a1,1,0,0,0,1.42-1.42L41.41,20l2.3-2.29A1,1,0,0,0,42.29,16.29Z"/><path d="M55.71,23.71l3-3a1,1,0,0,0,0-1.42l-3-3a1,1,0,0,0-1.42,1.42L56.59,20l-2.3,2.29A1,1,0,0,0,55.71,23.71Z"/><path d="M46.17,22.45A1,1,0,0,0,47,24c.73,0,.46.12,4.83-6.45a1,1,0,0,0-1.66-1.1Z"/></g></svg>