<svg xmlns="http://www.w3.org/2000/svg" xmlns:xlink="http://www.w3.org/1999/xlink" viewBox="0 0 64 64"><defs><style>.cls-1{fill:url(#linear-gradient);}.cls-2{fill:#c7cdd8;}.cls-3{fill:url(#linear-gradient-2);}.cls-4{fill:url(#linear-gradient-3);}.cls-5{fill:url(#linear-gradient-4);}.cls-6{fill:#f6b756;}.cls-7{fill:#5b8dc9;}.cls-8{fill:url(#linear-gradient-5);}.cls-9{fill:url(#linear-gradient-6);}.cls-10{fill:url(#linear-gradient-7);}.cls-11{fill:url(#linear-gradient-8);}.cls-12{fill:url(#linear-gradient-9);}.cls-13{fill:url(#linear-gradient-10);}.cls-14{fill:url(#linear-gradient-11);}</style><linearGradient id="linear-gradient" x1="32" y1="52" x2="32" y2="1" gradientUnits="userSpaceOnUse"><stop offset="0" stop-color="#d4d8e1"/><stop offset="1" stop-color="#f3f4f5"/></linearGradient><linearGradient id="linear-gradient-2" x1="47" y1="63" x2="47" y2="41" gradientUnits="userSpaceOnUse"><stop offset="0" stop-color="#fbcc88"/><stop offset="1" stop-color="#ffe5c3"/></linearGradient><linearGradient id="linear-gradient-3" x1="47" y1="53.99" x2="47" y2="45.01" gradientUnits="userSpaceOnUse"><stop offset="0" stop-color="#7aa8d7"/><stop offset="1" stop-color="#c3d2e7"/></linearGradient><linearGradient id="linear-gradient-4" x1="47" y1="62.99" x2="47" y2="54.01" xlink:href="#linear-gradient-3"/><linearGradient id="linear-gradient-5" x1="17" y1="63" x2="17" y2="41" xlink:href="#linear-gradient-2"/><linearGradient id="linear-gradient-6" x1="17" y1="53.99" x2="17" y2="45.01" xlink:href="#linear-gradient-3"/><linearGradient id="linear-gradient-7" x1="17" y1="62.99" x2="17" y2="54.01" xlink:href="#linear-gradient-3"/><linearGradient id="linear-gradient-8" x1="32" y1="37" x2="32" y2="15" xlink:href="#linear-gradient-2"/><linearGradient id="linear-gradient-9" x1="32" y1="27.99" x2="32" y2="19.01" xlink:href="#linear-gradient-3"/><linearGradient id="linear-gradient-10" x1="32" y1="36.99" x2="32" y2="28.01" xlink:href="#linear-gradient-3"/><linearGradient id="linear-gradient-11" x1="32" y1="9" x2="32" y2="1" gradientUnits="userSpaceOnUse"><stop offset="0" stop-color="#a0a6ba"/><stop offset="1" stop-color="#c6ccda"/></linearGradient></defs><title>User Acquisitions</title><g id="User_Acquisitions" data-name="User Acquisitions"><path class="cls-1" d="M63,52V1H1V52Z"/><path class="cls-2" d="M63,52V50H1v2Z"/><circle class="cls-3" cx="47" cy="52" r="11"/><path class="cls-4" d="M43,50.19V48.81c0-5.14,8-5,8,0v1.38C51,55.33,43,55.18,43,50.19Z"/><path class="cls-5" d="M54.13,60.37a11,11,0,0,1-14.26,0,19.58,19.58,0,0,1,1-2.57,6.93,6.93,0,0,1,12.36,0A18.16,18.16,0,0,1,54.13,60.37Z"/><path class="cls-6" d="M40.82,57.8a18.16,18.16,0,0,0-1,2.57,11,11,0,0,1-3.74-10A11,11,0,0,0,40.82,57.8Z"/><path class="cls-6" d="M54.13,60.37a19.58,19.58,0,0,0-1-2.57,11,11,0,0,0,4.69-7.43A10.93,10.93,0,0,1,54.13,60.37Z"/><path class="cls-7" d="M54.13,60.37a11,11,0,0,1-14.26,0,19.58,19.58,0,0,1,1-2.57,11,11,0,0,0,12.36,0A18.16,18.16,0,0,1,54.13,60.37Z"/><circle class="cls-8" cx="17" cy="52" r="11"/><path class="cls-9" d="M13,50.19V48.81c0-5.14,8-5,8,0v1.38C21,55.33,13,55.18,13,50.19Z"/><path class="cls-10" d="M24.13,60.37a11,11,0,0,1-14.26,0,19.58,19.58,0,0,1,1-2.57,6.93,6.93,0,0,1,12.36,0A18.16,18.16,0,0,1,24.13,60.37Z"/><path class="cls-6" d="M10.82,57.8a18.16,18.16,0,0,0-1,2.57,11,11,0,0,1-3.74-10A11,11,0,0,0,10.82,57.8Z"/><path class="cls-6" d="M24.13,60.37a19.58,19.58,0,0,0-.95-2.57,11,11,0,0,0,4.69-7.43A10.93,10.93,0,0,1,24.13,60.37Z"/><path class="cls-7" d="M24.13,60.37a11,11,0,0,1-14.26,0,19.58,19.58,0,0,1,1-2.57,11,11,0,0,0,12.36,0A18.16,18.16,0,0,1,24.13,60.37Z"/><circle class="cls-11" cx="32" cy="26" r="11"/><path class="cls-12" d="M28,24.19V22.81c0-5.14,8-5,8,0v1.38C36,29.33,28,29.18,28,24.19Z"/><path class="cls-13" d="M39.13,34.37a11,11,0,0,1-14.26,0,19.58,19.58,0,0,1,.95-2.57,6.93,6.93,0,0,1,12.36,0A18.16,18.16,0,0,1,39.13,34.37Z"/><path class="cls-6" d="M25.82,31.8a18.16,18.16,0,0,0-.95,2.57,11,11,0,0,1-3.74-10A11,11,0,0,0,25.82,31.8Z"/><path class="cls-6" d="M39.13,34.37a19.58,19.58,0,0,0-1-2.57,11,11,0,0,0,4.69-7.43A10.93,10.93,0,0,1,39.13,34.37Z"/><path class="cls-7" d="M39.13,34.37a11,11,0,0,1-14.26,0,19.58,19.58,0,0,1,.95-2.57,11,11,0,0,0,12.36,0A18.16,18.16,0,0,1,39.13,34.37Z"/><rect class="cls-14" x="1" y="1" width="62" height="8"/><path d="M63,0H1A1,1,0,0,0,0,1V52a1,1,0,0,0,1,1H5.05A12,12,0,0,0,29,53h6.1A12,12,0,0,0,59,53h4a1,1,0,0,0,1-1V1A1,1,0,0,0,63,0ZM2,2H62V8H2ZM14,50V49a3,3,0,0,1,6,0v1a3,3,0,0,1-6,0ZM11.05,60l.32-1a5.94,5.94,0,0,1,11.26,0L23,60A9.93,9.93,0,0,1,11.05,60Zm13.51-1.5a7.91,7.91,0,0,0-4.27-4.79C22,52.2,22,50.54,22,49a5,5,0,0,0-10,0c0,1.64,0,3.21,1.71,4.73a7.88,7.88,0,0,0-4.27,4.79C4,52.26,8.27,42,17,42A10,10,0,0,1,24.56,58.52ZM32,16a10,10,0,0,1,7.56,16.52,7.9,7.9,0,0,0-4.27-4.79C37,26.2,37,24.54,37,23a5,5,0,0,0-10,0c0,1.64,0,3.21,1.71,4.73a7.91,7.91,0,0,0-4.27,4.79A10,10,0,0,1,32,16ZM26.14,34.1c-.14-.1-.14.06.23-1a5.94,5.94,0,0,1,11.26,0c.37,1.09.37.94.23,1A10,10,0,0,1,26.14,34.1ZM29,24V23a3,3,0,0,1,6,0v1a3,3,0,0,1-6,0Zm8.36,12.72,3,5.32a12,12,0,0,0-5.27,9H29a12,12,0,0,0-5.27-9l3-5.32A11.87,11.87,0,0,0,37.36,36.72ZM44,50V49a3,3,0,0,1,6,0v1a3,3,0,0,1-6,0Zm-3,10,.32-1a5.94,5.94,0,0,1,11.26,0L53,60A9.93,9.93,0,0,1,41.05,60Zm13.51-1.5a7.91,7.91,0,0,0-4.27-4.79C52,52.2,52,50.54,52,49a5,5,0,0,0-10,0c0,1.64,0,3.21,1.71,4.73a7.88,7.88,0,0,0-4.27,4.79A10,10,0,0,1,47,42C55.74,42,60,52.27,54.56,58.52ZM59,51a12,12,0,0,0-16.87-9.93l-3-5.38C48.44,28.86,43.55,14,32,14S15.54,28.84,24.92,35.69l-3,5.38A12,12,0,0,0,5.05,51H2V10H62V51Z"/><path d="M6,4A1,1,0,0,0,6,6,1,1,0,0,0,6,4Z"/><path d="M11,4a1,1,0,0,0,0,2A1,1,0,0,0,11,4Z"/><path d="M16,4a1,1,0,0,0,0,2A1,1,0,0,0,16,4Z"/></g></svg>