<svg xmlns="http://www.w3.org/2000/svg" xmlns:xlink="http://www.w3.org/1999/xlink" viewBox="0 0 64 64"><defs><style>.cls-1{fill:url(#linear-gradient);}.cls-2{fill:url(#linear-gradient-2);}.cls-3{fill:#aae0e5;}.cls-4{fill:#77cacb;}.cls-5{fill:url(#linear-gradient-3);}.cls-6{fill:#c7cdd8;}.cls-7{fill:url(#linear-gradient-4);}.cls-8{fill:url(#linear-gradient-5);}.cls-9{fill:#8288a1;}.cls-10{fill:#d7dbe2;}.cls-11{fill:url(#linear-gradient-6);}.cls-12{fill:#5b8dc9;}.cls-13{fill:url(#linear-gradient-7);}.cls-14{fill:url(#linear-gradient-8);}.cls-15{fill:url(#linear-gradient-9);}.cls-16{fill:url(#linear-gradient-10);}</style><linearGradient id="linear-gradient" x1="32" y1="55" x2="32" y2="15" gradientUnits="userSpaceOnUse"><stop offset="0" stop-color="#a0a6ba"/><stop offset="1" stop-color="#c6ccda"/></linearGradient><linearGradient id="linear-gradient-2" x1="32" y1="51" x2="32" y2="19" gradientUnits="userSpaceOnUse"><stop offset="0" stop-color="#9dd5df"/><stop offset="1" stop-color="#c3e1f5"/></linearGradient><linearGradient id="linear-gradient-3" x1="32" y1="51" x2="32" y2="1" gradientUnits="userSpaceOnUse"><stop offset="0" stop-color="#d4d8e1"/><stop offset="1" stop-color="#f3f4f5"/></linearGradient><linearGradient id="linear-gradient-4" y1="7" y2="1" xlink:href="#linear-gradient"/><linearGradient id="linear-gradient-5" y1="63" y2="55" xlink:href="#linear-gradient"/><linearGradient id="linear-gradient-6" x1="32" y1="21" x2="32" y2="11" gradientUnits="userSpaceOnUse"><stop offset="0" stop-color="#7aa8d7"/><stop offset="1" stop-color="#c3d2e7"/></linearGradient><linearGradient id="linear-gradient-7" y1="31" y2="25" xlink:href="#linear-gradient-6"/><linearGradient id="linear-gradient-8" x1="42" y1="31" x2="42" y2="25" xlink:href="#linear-gradient-6"/><linearGradient id="linear-gradient-9" x1="22" y1="31" x2="22" y2="25" xlink:href="#linear-gradient-6"/><linearGradient id="linear-gradient-10" x1="19" y1="45" x2="45" y2="45" xlink:href="#linear-gradient"/></defs><title>User Interface</title><g id="User_Interface" data-name="User Interface"><path class="cls-1" d="M8,15a3,3,0,0,0-3,3V55H59V18a3,3,0,0,0-3-3Z"/><path class="cls-2" d="M55,19V51H9V19Z"/><path class="cls-3" d="M55,19v2H9V19Z"/><path class="cls-4" d="M55,49v2H9V49Z"/><rect class="cls-5" x="14" y="1" width="36" height="50"/><rect class="cls-6" x="14" y="49" width="36" height="2"/><rect class="cls-7" x="14" y="1" width="36" height="6"/><path class="cls-8" d="M3,55H61a2,2,0,0,1,2,2v2a4,4,0,0,1-4,4H5a4,4,0,0,1-4-4V57A2,2,0,0,1,3,55Z"/><path class="cls-9" d="M63,57v2a4,4,0,0,1-4,4H5a4,4,0,0,1-4-4V57a4,4,0,0,0,4,4H59A4,4,0,0,0,63,57Z"/><polygon class="cls-10" points="40 58 24 58 22 55 42 55 40 58"/><rect class="cls-9" x="5" y="53" width="54" height="2"/><rect class="cls-11" x="19" y="11" width="26" height="10"/><rect class="cls-12" x="19" y="19" width="26" height="2"/><circle class="cls-13" cx="32" cy="28" r="3"/><circle class="cls-14" cx="42" cy="28" r="3"/><circle class="cls-15" cx="22" cy="28" r="3"/><rect class="cls-16" x="19" y="43" width="26" height="4"/><path d="M61,54H60V18a4,4,0,0,0-4-4H51V1a1,1,0,0,0-1-1H14a1,1,0,0,0-1,1V14H8a4,4,0,0,0-4,4V54H3a3,3,0,0,0-3,3v2a5,5,0,0,0,5,5H59a5,5,0,0,0,5-5V57A3,3,0,0,0,61,54ZM10,50V20h3V50ZM15,8H49V50H15ZM51,20h3V50H51ZM15,2H49V6H15ZM6,18a2,2,0,0,1,2-2h5v2H9a1,1,0,0,0-1,1V51a1,1,0,0,0,1,1H55a1,1,0,0,0,1-1V19a1,1,0,0,0-1-1H51V16h5a2,2,0,0,1,2,2V54H6ZM40.13,56l-.67,1H24.54l-.67-1ZM62,59a3,3,0,0,1-3,3H5a3,3,0,0,1-3-3V57a1,1,0,0,1,1-1H21.46l1.71,2.55c.42.64-.41.45,16.83.45.69,0,.74-.3,2.54-3H61a1,1,0,0,1,1,1Z"/><path d="M18,3a1,1,0,0,0,0,2A1,1,0,0,0,18,3Z"/><path d="M22,3a1,1,0,0,0,0,2A1,1,0,0,0,22,3Z"/><path d="M26,3a1,1,0,0,0,0,2A1,1,0,0,0,26,3Z"/><path d="M45,10H19a1,1,0,0,0-1,1V21a1,1,0,0,0,1,1H45a1,1,0,0,0,1-1V11A1,1,0,0,0,45,10ZM44,20H20V12H44Z"/><path d="M32,32a4,4,0,1,0-4-4A4,4,0,0,0,32,32Zm0-6a2,2,0,1,1-2,2A2,2,0,0,1,32,26Z"/><path d="M42,24a4,4,0,1,0,4,4A4,4,0,0,0,42,24Zm0,6a2,2,0,1,1,2-2A2,2,0,0,1,42,30Z"/><path d="M22,32a4,4,0,1,0-4-4A4,4,0,0,0,22,32Zm0-6a2,2,0,1,1-2,2A2,2,0,0,1,22,26Z"/><path d="M19,36h6a1,1,0,0,0,0-2H19A1,1,0,0,0,19,36Z"/><path d="M19,40h6a1,1,0,0,0,0-2H19A1,1,0,0,0,19,40Z"/><path d="M29,36h6a1,1,0,0,0,0-2H29A1,1,0,0,0,29,36Z"/><path d="M29,40h6a1,1,0,0,0,0-2H29A1,1,0,0,0,29,40Z"/><path d="M45,34H39a1,1,0,0,0,0,2h6A1,1,0,0,0,45,34Z"/><path d="M45,38H39a1,1,0,0,0,0,2h6A1,1,0,0,0,45,38Z"/><path d="M45,42H19a1,1,0,0,0-1,1v4a1,1,0,0,0,1,1H45a1,1,0,0,0,1-1V43A1,1,0,0,0,45,42Zm-1,4H20V44H44Z"/></g></svg>