<svg xmlns="http://www.w3.org/2000/svg" xmlns:xlink="http://www.w3.org/1999/xlink" viewBox="0 0 64 64"><defs><style>.cls-1{fill:url(#linear-gradient);}.cls-2{fill:url(#linear-gradient-2);}.cls-3{fill:#aae0e5;}.cls-4{fill:#77cacb;}.cls-5{fill:url(#linear-gradient-3);}.cls-6{fill:#8288a1;}.cls-7{fill:#d7dbe2;}.cls-8{fill:url(#linear-gradient-4);}.cls-9{fill:url(#linear-gradient-5);}.cls-10{fill:url(#linear-gradient-6);}.cls-11{fill:#cf4055;}</style><linearGradient id="linear-gradient" x1="32" y1="55" x2="32" y2="15" gradientUnits="userSpaceOnUse"><stop offset="0" stop-color="#a0a6ba"/><stop offset="1" stop-color="#c6ccda"/></linearGradient><linearGradient id="linear-gradient-2" x1="32" y1="51" x2="32" y2="19" gradientUnits="userSpaceOnUse"><stop offset="0" stop-color="#9dd5df"/><stop offset="1" stop-color="#c3e1f5"/></linearGradient><linearGradient id="linear-gradient-3" y1="63" y2="55" xlink:href="#linear-gradient"/><linearGradient id="linear-gradient-4" x1="32" y1="51" x2="32" y2="13" gradientUnits="userSpaceOnUse"><stop offset="0" stop-color="#da5466"/><stop offset="1" stop-color="#f4929c"/></linearGradient><linearGradient id="linear-gradient-5" x1="45" x2="45" y2="1" xlink:href="#linear-gradient-4"/><linearGradient id="linear-gradient-6" x1="19" x2="19" y2="25" xlink:href="#linear-gradient-4"/></defs><title>Valuations</title><g id="Valuations"><path class="cls-1" d="M8,15a3,3,0,0,0-3,3V55H59V18a3,3,0,0,0-3-3Z"/><path class="cls-2" d="M55,19V51H9V19Z"/><path class="cls-3" d="M55,19v2H9V19Z"/><path class="cls-4" d="M55,49v2H9V49Z"/><path class="cls-5" d="M3,55H61a2,2,0,0,1,2,2v2a4,4,0,0,1-4,4H5a4,4,0,0,1-4-4V57A2,2,0,0,1,3,55Z"/><path class="cls-6" d="M63,57v2a4,4,0,0,1-4,4H5a4,4,0,0,1-4-4V57a4,4,0,0,0,4,4H59A4,4,0,0,0,63,57Z"/><polygon class="cls-7" points="40 58 24 58 22 55 42 55 40 58"/><rect class="cls-6" x="5" y="53" width="54" height="2"/><polygon class="cls-8" points="32 13 26 19 29 19 29 51 35 51 35 19 38 19 32 13"/><polygon class="cls-9" points="45 1 39 7 42 7 42 51 48 51 48 7 51 7 45 1"/><polygon class="cls-10" points="19 25 13 31 16 31 16 51 22 51 22 31 25 31 19 25"/><rect class="cls-11" x="16" y="49" width="6" height="2"/><rect class="cls-11" x="29" y="49" width="6" height="2"/><rect class="cls-11" x="42" y="49" width="6" height="2"/><path d="M61,54H60V18a4,4,0,0,0-4-4H49V8h2a1,1,0,0,0,.71-1.71l-6-6a1,1,0,0,0-1.42,0c-6.46,6.47-6.56,6.25-6.21,7.09S39,8,41,8v6H34.41l-1.7-1.71a1,1,0,0,0-1.42,0L29.59,14H8a4,4,0,0,0-4,4V54H3a3,3,0,0,0-3,3v2a5,5,0,0,0,5,5H59a5,5,0,0,0,5-5V57A3,3,0,0,0,61,54ZM49,20h5V50H49ZM45,2.41,48.59,6H48a1,1,0,0,0-1,1V50H43V7a1,1,0,0,0-1-1h-.59ZM36,50V20h5V50Zm5-34v2H38.41l-2-2Zm-9-1.59L35.59,18H35a1,1,0,0,0-1,1V50H30V19a1,1,0,0,0-1-1h-.59ZM23,50V32h2a1,1,0,0,0,.71-1.71l-6-6a1,1,0,0,0-1.42,0c-6.46,6.47-6.56,6.25-6.21,7.09S13,32,15,32V50H10V20H28V50ZM16,30h-.59L19,26.41,22.59,30H22a1,1,0,0,0-1,1V50H17V31A1,1,0,0,0,16,30ZM6,18a2,2,0,0,1,2-2H27.59l-2,2H9a1,1,0,0,0-1,1V51a1,1,0,0,0,1,1H55a1,1,0,0,0,1-1V19a1,1,0,0,0-1-1H49V16h7a2,2,0,0,1,2,2V54H6ZM40.13,56l-.67,1H24.54l-.67-1ZM62,59a3,3,0,0,1-3,3H5a3,3,0,0,1-3-3V57a1,1,0,0,1,1-1H21.46l1.71,2.55c.42.64-.41.45,16.83.45.69,0,.74-.3,2.54-3H61a1,1,0,0,1,1,1Z"/></g></svg>