<svg xmlns="http://www.w3.org/2000/svg" xmlns:xlink="http://www.w3.org/1999/xlink" viewBox="0 0 64 64"><defs><style>.cls-1{fill:url(#linear-gradient);}.cls-2{fill:#c7cdd8;}.cls-3{fill:url(#linear-gradient-2);}.cls-4{fill:url(#linear-gradient-3);}.cls-5{fill:#5b8dc9;}.cls-6{fill:url(#linear-gradient-4);}.cls-7{fill:url(#linear-gradient-5);}.cls-8{fill:url(#linear-gradient-6);}.cls-9{fill:#77cacb;}</style><linearGradient id="linear-gradient" x1="32" y1="63" x2="32" y2="1" gradientUnits="userSpaceOnUse"><stop offset="0" stop-color="#d4d8e1"/><stop offset="1" stop-color="#f3f4f5"/></linearGradient><linearGradient id="linear-gradient-2" x1="32" y1="9" x2="32" y2="1" gradientUnits="userSpaceOnUse"><stop offset="0" stop-color="#a0a6ba"/><stop offset="1" stop-color="#c6ccda"/></linearGradient><linearGradient id="linear-gradient-3" x1="32" y1="29" x2="32" y2="14" gradientUnits="userSpaceOnUse"><stop offset="0" stop-color="#7aa8d7"/><stop offset="1" stop-color="#c3d2e7"/></linearGradient><linearGradient id="linear-gradient-4" x1="15" y1="40" x2="15" y2="34" gradientUnits="userSpaceOnUse"><stop offset="0" stop-color="#9dd5df"/><stop offset="1" stop-color="#c3e1f5"/></linearGradient><linearGradient id="linear-gradient-5" x1="32" x2="32" xlink:href="#linear-gradient-4"/><linearGradient id="linear-gradient-6" x1="49" x2="49" xlink:href="#linear-gradient-4"/></defs><title>Website</title><g id="Website"><path class="cls-1" d="M60,63V1H4V63Z"/><path class="cls-2" d="M60,63V61H4v2Z"/><rect class="cls-3" x="4" y="1" width="56" height="8"/><rect class="cls-4" x="9" y="14" width="46" height="15"/><rect class="cls-5" x="9" y="27" width="46" height="2"/><rect class="cls-6" x="9" y="34" width="12" height="6"/><rect class="cls-7" x="26" y="34" width="12" height="6"/><rect class="cls-8" x="43" y="34" width="12" height="6"/><rect class="cls-9" x="9" y="38" width="12" height="2"/><rect class="cls-9" x="26" y="38" width="12" height="2"/><rect class="cls-9" x="43" y="38" width="12" height="2"/><path d="M60,0H4A1,1,0,0,0,3,1V63a1,1,0,0,0,1,1H60a1,1,0,0,0,1-1V1A1,1,0,0,0,60,0ZM5,2H59V8H5ZM5,62V10H59V62Z"/><path d="M8,5a1,1,0,0,0,2,0A1,1,0,0,0,8,5Z"/><path d="M13,5a1,1,0,0,0,2,0A1,1,0,0,0,13,5Z"/><path d="M18,5a1,1,0,0,0,2,0A1,1,0,0,0,18,5Z"/><path d="M55,13H9a1,1,0,0,0-1,1V29a1,1,0,0,0,1,1H55a1,1,0,0,0,1-1V14A1,1,0,0,0,55,13ZM54,28H10V15H54Z"/><path d="M9,46H21a1,1,0,0,0,0-2H9A1,1,0,0,0,9,46Z"/><path d="M9,50H21a1,1,0,0,0,0-2H9A1,1,0,0,0,9,50Z"/><path d="M26,46H38a1,1,0,0,0,0-2H26A1,1,0,0,0,26,46Z"/><path d="M26,50H38a1,1,0,0,0,0-2H26A1,1,0,0,0,26,50Z"/><path d="M55,44H43a1,1,0,0,0,0,2H55A1,1,0,0,0,55,44Z"/><path d="M55,48H43a1,1,0,0,0,0,2H55A1,1,0,0,0,55,48Z"/><path d="M55,57H9a1,1,0,0,0,0,2H55A1,1,0,0,0,55,57Z"/><path d="M55,53H9a1,1,0,0,0,0,2H55A1,1,0,0,0,55,53Z"/><path d="M9,41H21a1,1,0,0,0,1-1V34a1,1,0,0,0-1-1H9a1,1,0,0,0-1,1v6A1,1,0,0,0,9,41Zm1-6H20v4H10Z"/><path d="M26,41H38a1,1,0,0,0,1-1V34a1,1,0,0,0-1-1H26a1,1,0,0,0-1,1v6A1,1,0,0,0,26,41Zm1-6H37v4H27Z"/><path d="M55,33H43a1,1,0,0,0-1,1v6a1,1,0,0,0,1,1H55a1,1,0,0,0,1-1V34A1,1,0,0,0,55,33Zm-1,6H44V35H54Z"/></g></svg>