<svg xmlns="http://www.w3.org/2000/svg" xmlns:xlink="http://www.w3.org/1999/xlink" viewBox="0 0 64 64"><defs><style>.cls-1{fill:url(#linear-gradient);}.cls-2{fill:url(#linear-gradient-2);}.cls-3{fill:url(#linear-gradient-3);}.cls-4{fill:#c7cdd8;}.cls-5{fill:url(#linear-gradient-4);}.cls-6{fill:url(#linear-gradient-5);}.cls-7{fill:url(#linear-gradient-6);}.cls-8{fill:#9ca0ad;}.cls-9{fill:url(#linear-gradient-7);}.cls-10{fill:url(#linear-gradient-8);}</style><linearGradient id="linear-gradient" x1="9" y1="23" x2="9" y2="1" gradientUnits="userSpaceOnUse"><stop offset="0" stop-color="#d4d8e1"/><stop offset="1" stop-color="#f3f4f5"/></linearGradient><linearGradient id="linear-gradient-2" x1="32" y1="23" x2="32" y2="1" xlink:href="#linear-gradient"/><linearGradient id="linear-gradient-3" x1="55" y1="23" x2="55" y2="1" xlink:href="#linear-gradient"/><linearGradient id="linear-gradient-4" y1="63" x2="9" y2="41" xlink:href="#linear-gradient"/><linearGradient id="linear-gradient-5" x1="32" y1="63" x2="32" y2="41" xlink:href="#linear-gradient"/><linearGradient id="linear-gradient-6" x1="55" y1="63" x2="55" y2="41" xlink:href="#linear-gradient"/><linearGradient id="linear-gradient-7" x1="55" y1="57" x2="55" y2="47" gradientUnits="userSpaceOnUse"><stop offset="0" stop-color="#e9a254"/><stop offset="1" stop-color="#f4bb79"/></linearGradient><linearGradient id="linear-gradient-8" x1="32" y1="53" x2="32" y2="45" gradientUnits="userSpaceOnUse"><stop offset="0" stop-color="#9dd5df"/><stop offset="1" stop-color="#c3e1f5"/></linearGradient></defs><title>Work Flow</title><g id="Work_Flow" data-name="Work Flow"><rect class="cls-1" x="1" y="1" width="16" height="22"/><rect class="cls-2" x="24" y="1" width="16" height="22"/><rect class="cls-3" x="47" y="1" width="16" height="22"/><rect class="cls-4" x="1" y="20" width="16" height="3"/><rect class="cls-4" x="24" y="20" width="16" height="3"/><rect class="cls-4" x="47" y="20" width="16" height="3"/><rect class="cls-5" x="1" y="41" width="16" height="22"/><rect class="cls-6" x="24" y="41" width="16" height="22"/><rect class="cls-7" x="47" y="41" width="16" height="22"/><rect class="cls-8" x="4" y="6" width="10" height="4"/><rect class="cls-8" x="4" y="14" width="10" height="4"/><polygon class="cls-9" points="55 47 56.61 50.31 60.26 50.82 57.6 53.37 58.25 57 55 55.27 51.75 57 52.4 53.37 49.74 50.82 53.39 50.31 55 47"/><rect class="cls-10" x="27" y="45" width="10" height="8"/><rect class="cls-4" x="1" y="60" width="16" height="3"/><rect class="cls-4" x="24" y="60" width="16" height="3"/><rect class="cls-4" x="47" y="60" width="16" height="3"/><path d="M36,5H28a1,1,0,0,0,0,2h8A1,1,0,0,0,36,5Z"/><path d="M36,9H28a1,1,0,0,0,0,2h8A1,1,0,0,0,36,9Z"/><path d="M36,13H28a1,1,0,0,0,0,2h8A1,1,0,0,0,36,13Z"/><path d="M36,17H28a1,1,0,0,0,0,2h8A1,1,0,0,0,36,17Z"/><path d="M13,5H5A1,1,0,0,0,4,6v4a1,1,0,0,0,1,1h8a1,1,0,0,0,1-1V6A1,1,0,0,0,13,5ZM12,9H6V7h6Z"/><path d="M13,13H5a1,1,0,0,0-1,1v4a1,1,0,0,0,1,1h8a1,1,0,0,0,1-1V14A1,1,0,0,0,13,13Zm-1,4H6V15h6Z"/><path d="M51.32,53.72c-.51,2.87-.86,3.58-.16,4.09s1,.09,3.84-1.41C57.92,58,57.89,58,58.25,58a1,1,0,0,0,1-1.18l-.55-3.1L61,51.54a1,1,0,0,0-.55-1.71l-3.12-.43L55.9,46.56a1,1,0,0,0-1.8,0L52.72,49.4c-2.85.39-3.66.27-3.93,1.11S49,51.51,51.32,53.72ZM55,49.29c1.09,2.24.62,1.89,3.08,2.24-1.81,1.74-1.61,1.17-1.18,3.62-2.21-1.18-1.59-1.18-3.8,0,.43-2.46.62-1.89-1.18-3.62C54.4,51.18,53.91,51.53,55,49.29Z"/><path d="M56,32V24h7a1,1,0,0,0,1-1V1a1,1,0,0,0-1-1H47a1,1,0,0,0-1,1V11H41V1a1,1,0,0,0-1-1H24a1,1,0,0,0-1,1V11H18V1a1,1,0,0,0-1-1H1A1,1,0,0,0,0,1V23a1,1,0,0,0,1,1H17a1,1,0,0,0,1-1V13h5V23a1,1,0,0,0,1,1H40a1,1,0,0,0,1-1V13h5V23a1,1,0,0,0,1,1h7v7H9a1,1,0,0,0-1,1v8H1a1,1,0,0,0-1,1V63a1,1,0,0,0,1,1H17a1,1,0,0,0,1-1V53h5V63a1,1,0,0,0,1,1H40a1,1,0,0,0,1-1V53h5V63a1,1,0,0,0,1,1H63a1,1,0,0,0,1-1V41a1,1,0,0,0-1-1H47a1,1,0,0,0-1,1V51H41V41a1,1,0,0,0-1-1H24a1,1,0,0,0-1,1V51H18V41a1,1,0,0,0-1-1H10V33H55A1,1,0,0,0,56,32ZM16,22H2V2H16Zm23,0H25V2H39ZM48,2H62V22H48Zm0,40H62V62H48ZM25,42H39V62H25ZM16,62H2V42H16Z"/><path d="M32,27a1,1,0,0,0,0-2A1,1,0,0,0,32,27Z"/><path d="M32,30a1,1,0,0,0,0-2A1,1,0,0,0,32,30Z"/><path d="M32,34a1,1,0,0,0,0,2A1,1,0,0,0,32,34Z"/><path d="M32,37a1,1,0,0,0,0,2A1,1,0,0,0,32,37Z"/><path d="M56,19V13.9a5,5,0,1,0-2,0V19A1,1,0,0,0,56,19ZM52,9a3,3,0,1,1,3,3A3,3,0,0,1,52,9Z"/><path d="M28,54h8a1,1,0,0,0,1-1V45a1,1,0,0,0-1-1H28a1,1,0,0,0-1,1v8A1,1,0,0,0,28,54Zm1-8h6v6H29Z"/><path d="M28,59h8a1,1,0,0,0,0-2H28A1,1,0,0,0,28,59Z"/><path d="M8,52v4a1,1,0,0,0,2,0V52A1,1,0,0,0,8,52Z"/><path d="M4,49v7a1,1,0,0,0,2,0V49A1,1,0,0,0,4,49Z"/><path d="M14,56V47a1,1,0,0,0-2,0v9A1,1,0,0,0,14,56Z"/></g></svg>